{"glyphs":{"0":{"ha":697,"x_min":31,"x_max":668,"o":"m 349 -21 q 192 26 265 -21 q 75 175 119 74 q 31 439 31 276 q 75 705 31 603 q 192 854 119 807 q 349 901 265 901 q 505 854 432 901 q 623 705 578 807 q 668 439 668 603 q 623 175 668 276 q 505 26 578 74 q 349 -21 432 -21 m 349 7 q 408 25 383 7 q 447 90 432 43 q 469 222 463 138 q 476 439 476 306 q 469 658 476 572 q 447 790 463 743 q 408 856 432 838 q 349 874 383 874 q 290 856 314 874 q 250 791 265 838 q 228 659 235 744 q 221 439 221 574 q 228 221 221 306 q 250 90 235 136 q 290 25 265 43 q 349 7 314 7 z "},"1":{"ha":486,"x_min":33,"x_max":456,"o":"m 39 0 l 39 14 l 93 31 q 146 101 146 49 l 146 774 l 33 758 l 33 776 q 191 824 115 793 q 333 894 267 854 l 351 882 l 346 683 l 346 101 q 399 32 346 47 l 456 14 l 456 0 l 39 0 z "},"2":{"ha":739,"x_min":72,"x_max":683,"o":"m 96 647 l 106 844 q 209 885 147 868 q 349 901 271 901 q 528 870 460 901 q 628 785 596 839 q 660 663 660 731 q 567 476 660 567 q 313 275 474 385 q 240 221 282 253 q 163 158 199 189 l 683 158 l 683 0 l 72 0 l 72 117 q 170 213 122 165 q 261 304 218 261 q 410 487 361 407 q 460 658 460 567 q 425 813 460 754 q 321 872 390 872 q 241 851 278 872 q 176 776 204 829 l 110 647 l 96 647 z "},"3":{"ha":739,"x_min":85,"x_max":692,"o":"m 353 -21 q 201 0 260 -21 q 85 49 142 21 l 100 229 l 114 229 l 175 117 q 344 7 236 7 q 448 60 408 7 q 488 240 488 114 q 454 398 488 350 q 340 446 421 446 l 257 446 l 257 474 l 331 474 q 437 518 404 474 q 469 672 469 563 q 438 824 469 779 q 353 869 406 869 q 265 839 300 869 q 207 767 229 808 l 144 650 l 131 651 l 144 856 q 244 888 189 875 q 367 901 299 901 q 588 838 513 901 q 664 681 664 775 q 606 551 664 613 q 422 465 547 489 q 628 389 564 453 q 692 235 692 325 q 651 104 692 163 q 534 13 610 46 q 353 -21 458 -21 z "},"4":{"ha":747,"x_min":33,"x_max":708,"o":"m 399 0 l 399 225 l 33 225 l 33 304 l 440 892 l 576 892 l 576 328 l 708 328 l 708 225 l 576 225 l 576 0 l 399 0 m 94 328 l 399 328 l 399 765 l 94 328 z "},"5":{"ha":739,"x_min":83,"x_max":696,"o":"m 339 -21 q 195 -6 258 -21 q 83 42 132 8 l 93 217 l 107 217 l 171 103 q 239 30 199 53 q 328 7 279 7 q 488 250 488 7 q 445 417 488 360 q 319 474 403 474 q 242 463 281 474 q 172 436 204 453 l 147 451 l 178 881 l 664 881 l 664 722 l 206 722 l 186 482 q 272 526 218 506 q 386 547 326 547 q 547 515 476 547 q 656 422 617 483 q 696 269 696 360 q 649 111 696 176 q 522 13 603 46 q 339 -21 442 -21 z "},"6":{"ha":736,"x_min":44,"x_max":693,"o":"m 375 -21 q 135 78 226 -21 q 44 356 44 176 q 86 556 44 463 q 205 722 128 649 q 390 842 282 796 q 629 901 497 889 l 633 881 q 376 753 464 846 q 260 500 288 660 q 440 547 340 547 q 581 513 525 547 q 665 419 636 478 q 693 286 693 360 q 647 119 693 188 q 527 15 600 50 q 375 -21 454 -21 m 247 326 q 277 81 247 154 q 371 7 307 7 q 465 67 435 7 q 494 269 494 128 q 464 451 494 400 q 364 503 433 503 q 256 474 306 503 q 247 326 247 407 z "},"7":{"ha":679,"x_min":38,"x_max":649,"o":"m 138 0 l 124 14 l 604 736 l 38 736 l 38 881 l 649 881 l 649 790 l 321 0 l 138 0 z "},"8":{"ha":697,"x_min":39,"x_max":658,"o":"m 39 193 q 96 318 39 264 q 236 406 153 372 q 60 656 60 497 q 99 787 60 732 q 205 872 138 842 q 356 901 272 901 q 497 874 440 901 q 583 802 554 847 q 611 703 611 757 q 589 622 611 661 q 530 551 567 583 q 450 499 493 519 q 606 383 554 447 q 658 228 658 318 q 572 47 658 115 q 342 -21 486 -21 q 117 37 194 -21 q 39 193 39 94 m 222 735 q 238 658 222 693 q 297 587 253 622 q 424 511 340 551 q 476 604 465 560 q 488 690 488 649 q 450 831 488 789 q 351 874 413 874 q 260 837 297 874 q 222 735 222 800 m 185 207 q 229 63 185 118 q 349 7 274 7 q 454 52 418 7 q 490 169 490 97 q 471 249 490 214 q 403 318 451 285 q 271 389 356 351 q 257 396 264 392 q 211 341 226 367 q 190 284 196 315 q 185 207 185 253 z "},"9":{"ha":739,"x_min":43,"x_max":694,"o":"m 694 529 q 629 274 694 389 q 438 82 564 160 q 131 -28 313 4 l 125 -3 q 324 74 249 24 q 437 200 399 124 q 486 383 475 276 q 414 352 457 364 q 317 340 371 340 q 177 372 239 340 q 79 463 115 403 q 43 607 43 522 q 88 763 43 697 q 205 865 132 829 q 365 901 278 901 q 609 802 524 901 q 694 529 694 703 m 239 625 q 274 442 239 499 q 388 386 308 386 q 489 411 446 386 q 493 473 492 442 q 494 539 494 504 q 482 740 494 667 q 442 843 469 813 q 367 874 414 874 q 271 815 303 874 q 239 625 239 757 z "},"A":{"ha":903,"x_min":11,"x_max":885,"o":"m 11 0 l 11 14 l 46 26 q 89 53 74 38 q 114 99 104 69 l 400 919 l 518 919 l 800 93 q 825 47 811 63 q 868 19 839 31 l 885 14 l 885 0 l 532 0 l 532 14 l 553 21 q 588 52 582 32 q 586 100 594 72 l 521 300 l 213 300 l 146 104 q 140 56 136 74 q 172 26 143 38 l 203 14 l 203 0 l 11 0 m 222 328 l 513 328 l 372 760 l 222 328 z "},"Á":{"ha":903,"x_min":11,"x_max":885,"o":"m 11 0 l 11 14 l 46 26 q 89 53 74 38 q 114 99 104 69 l 400 919 l 518 919 l 800 93 q 825 47 811 63 q 868 19 839 31 l 885 14 l 885 0 l 532 0 l 532 14 l 553 21 q 588 52 582 32 q 586 100 594 72 l 521 300 l 213 300 l 146 104 q 140 56 136 74 q 172 26 143 38 l 203 14 l 203 0 l 11 0 m 222 328 l 513 328 l 372 760 l 222 328 m 332 1007 q 404 1081 368 1043 q 474 1154 440 1119 q 530 1204 508 1192 q 572 1217 551 1217 q 615 1201 599 1217 q 631 1161 631 1185 q 544 1078 631 1117 q 445 1035 493 1056 q 346 990 397 1014 l 332 1007 z "},"Ă":{"ha":903,"x_min":11,"x_max":885,"o":"m 11 0 l 11 14 l 46 26 q 89 53 74 38 q 114 99 104 69 l 400 919 l 518 919 l 800 93 q 825 47 811 63 q 868 19 839 31 l 885 14 l 885 0 l 532 0 l 532 14 l 553 21 q 588 52 582 32 q 586 100 594 72 l 521 300 l 213 300 l 146 104 q 140 56 136 74 q 172 26 143 38 l 203 14 l 203 0 l 11 0 m 222 328 l 513 328 l 372 760 l 222 328 m 438 990 q 337 1017 381 990 q 267 1088 293 1044 q 236 1183 242 1132 l 253 1190 q 325 1122 276 1147 q 438 1096 374 1096 q 551 1122 501 1096 q 622 1190 600 1147 l 639 1183 q 608 1088 633 1132 q 539 1017 582 1044 q 438 990 496 990 z "},"Â":{"ha":903,"x_min":11,"x_max":885,"o":"m 11 0 l 11 14 l 46 26 q 89 53 74 38 q 114 99 104 69 l 400 919 l 518 919 l 800 93 q 825 47 811 63 q 868 19 839 31 l 885 14 l 885 0 l 532 0 l 532 14 l 553 21 q 588 52 582 32 q 586 100 594 72 l 521 300 l 213 300 l 146 104 q 140 56 136 74 q 172 26 143 38 l 203 14 l 203 0 l 11 0 m 222 328 l 513 328 l 372 760 l 222 328 m 232 964 l 218 981 l 428 1208 l 447 1208 l 657 981 l 643 964 l 438 1078 l 232 964 z "},"Ä":{"ha":903,"x_min":11,"x_max":885,"o":"m 11 0 l 11 14 l 46 26 q 89 53 74 38 q 114 99 104 69 l 400 919 l 518 919 l 800 93 q 825 47 811 63 q 868 19 839 31 l 885 14 l 885 0 l 532 0 l 532 14 l 553 21 q 588 52 582 32 q 586 100 594 72 l 521 300 l 213 300 l 146 104 q 140 56 136 74 q 172 26 143 38 l 203 14 l 203 0 l 11 0 m 222 328 l 513 328 l 372 760 l 222 328 m 268 1000 q 201 1024 231 1000 q 171 1092 171 1049 q 201 1159 171 1135 q 268 1183 231 1183 q 337 1159 308 1183 q 365 1092 365 1135 q 337 1024 365 1049 q 268 1000 308 1000 m 606 1000 q 539 1024 568 1000 q 510 1092 510 1049 q 539 1159 510 1135 q 606 1183 568 1183 q 674 1159 646 1183 q 703 1092 703 1135 q 674 1024 703 1049 q 606 1000 646 1000 z "},"À":{"ha":903,"x_min":11,"x_max":885,"o":"m 11 0 l 11 14 l 46 26 q 89 53 74 38 q 114 99 104 69 l 400 919 l 518 919 l 800 93 q 825 47 811 63 q 868 19 839 31 l 885 14 l 885 0 l 532 0 l 532 14 l 553 21 q 588 52 582 32 q 586 100 594 72 l 521 300 l 213 300 l 146 104 q 140 56 136 74 q 172 26 143 38 l 203 14 l 203 0 l 11 0 m 222 328 l 513 328 l 372 760 l 222 328 m 531 990 q 432 1035 479 1014 q 332 1078 385 1056 q 246 1161 246 1117 q 262 1201 246 1185 q 304 1217 278 1217 q 347 1204 325 1217 q 403 1154 368 1192 q 472 1081 436 1119 q 544 1007 508 1043 l 531 990 z "},"Ā":{"ha":903,"x_min":11,"x_max":885,"o":"m 11 0 l 11 14 l 46 26 q 89 53 74 38 q 114 99 104 69 l 400 919 l 518 919 l 800 93 q 825 47 811 63 q 868 19 839 31 l 885 14 l 885 0 l 532 0 l 532 14 l 553 21 q 588 52 582 32 q 586 100 594 72 l 521 300 l 213 300 l 146 104 q 140 56 136 74 q 172 26 143 38 l 203 14 l 203 0 l 11 0 m 222 328 l 513 328 l 372 760 l 222 328 m 218 1067 l 218 1101 l 657 1101 l 657 1067 l 218 1067 z "},"Ą":{"ha":903,"x_min":11,"x_max":910,"o":"m 11 0 l 11 14 l 46 26 q 89 53 74 38 q 114 99 104 69 l 400 919 l 518 919 l 800 93 q 825 47 811 63 q 868 19 839 31 l 885 14 l 885 0 l 532 0 l 532 14 l 553 21 q 588 52 582 32 q 586 100 594 72 l 521 300 l 213 300 l 146 104 q 140 56 136 74 q 172 26 143 38 l 203 14 l 203 0 l 11 0 m 222 328 l 513 328 l 372 760 l 222 328 m 735 -311 q 631 -278 671 -311 q 592 -187 592 -244 q 620 -103 592 -143 q 692 -32 649 -62 q 779 14 736 -1 l 803 14 q 734 -52 760 -12 q 708 -136 708 -92 q 738 -208 708 -181 q 813 -236 767 -236 q 861 -227 839 -236 q 900 -208 883 -218 l 910 -224 q 834 -285 879 -258 q 735 -311 789 -311 z "},"Å":{"ha":903,"x_min":11,"x_max":885,"o":"m 11 0 l 11 14 l 46 26 q 89 53 74 38 q 114 99 104 69 l 400 919 l 518 919 l 800 93 q 825 47 811 63 q 868 19 839 31 l 885 14 l 885 0 l 532 0 l 532 14 l 553 21 q 588 52 582 32 q 586 100 594 72 l 521 300 l 213 300 l 146 104 q 140 56 136 74 q 172 26 143 38 l 203 14 l 203 0 l 11 0 m 222 328 l 513 328 l 372 760 l 222 328 m 438 981 q 338 1017 381 981 q 296 1115 296 1053 q 338 1215 296 1178 q 438 1251 381 1251 q 537 1216 494 1251 q 579 1115 579 1181 q 537 1016 579 1051 q 438 981 494 981 m 438 1017 q 507 1045 482 1017 q 532 1115 532 1074 q 507 1186 532 1157 q 438 1215 482 1215 q 369 1186 394 1215 q 343 1115 343 1157 q 369 1045 343 1074 q 438 1017 394 1017 z "},"Ã":{"ha":903,"x_min":11,"x_max":885,"o":"m 11 0 l 11 14 l 46 26 q 89 53 74 38 q 114 99 104 69 l 400 919 l 518 919 l 800 93 q 825 47 811 63 q 868 19 839 31 l 885 14 l 885 0 l 532 0 l 532 14 l 553 21 q 588 52 582 32 q 586 100 594 72 l 521 300 l 213 300 l 146 104 q 140 56 136 74 q 172 26 143 38 l 203 14 l 203 0 l 11 0 m 222 328 l 513 328 l 372 760 l 222 328 m 201 999 q 247 1140 213 1085 q 342 1194 282 1194 q 403 1182 376 1194 q 451 1151 429 1169 q 499 1112 475 1133 q 553 1090 522 1090 q 616 1117 592 1090 q 656 1186 640 1144 l 676 1179 q 630 1039 664 1094 q 536 983 596 983 q 477 996 504 983 q 428 1025 450 1008 q 380 1067 406 1046 q 325 1088 354 1088 q 260 1060 286 1088 q 219 990 235 1032 l 201 999 z "},"Æ":{"ha":1247,"x_min":24,"x_max":1208,"o":"m 24 0 l 24 14 l 61 26 q 119 59 97 39 q 158 111 142 79 l 508 818 q 513 863 521 843 q 476 890 504 882 l 435 903 l 435 917 l 1172 917 l 1181 703 l 1167 703 l 1103 843 q 1032 889 1083 889 l 790 889 q 788 706 789 800 q 788 488 788 611 l 933 488 q 994 525 976 488 l 1033 597 l 1047 597 l 1047 347 l 1033 347 l 994 422 q 933 460 975 460 l 788 460 q 788 267 788 344 q 788 135 788 190 q 790 28 789 79 l 1063 28 q 1136 76 1115 28 l 1194 214 l 1208 214 l 1200 0 l 510 0 l 510 14 l 531 22 q 581 94 579 40 q 582 234 582 168 q 582 367 582 300 l 319 367 l 193 107 q 225 28 164 50 l 267 14 l 267 0 l 24 0 m 333 396 l 582 396 l 582 883 l 572 883 l 333 396 z "},"B":{"ha":831,"x_min":31,"x_max":800,"o":"m 31 0 l 31 14 l 56 24 q 94 51 83 35 q 104 96 104 68 l 104 821 q 94 867 104 850 q 56 893 83 883 l 31 903 l 31 917 l 429 917 q 674 855 599 917 q 749 699 749 793 q 694 570 749 628 q 506 489 639 513 q 729 409 658 472 q 800 256 800 346 q 781 166 800 211 q 715 83 761 121 q 588 23 668 46 q 383 0 507 0 l 31 0 m 310 490 l 369 490 q 503 533 463 490 q 544 683 544 576 q 507 842 544 794 q 385 889 469 889 l 310 889 l 310 490 m 310 28 l 379 28 q 534 83 483 28 q 585 257 585 139 q 536 415 585 368 q 376 463 488 463 l 310 463 l 310 28 z "},"C":{"ha":838,"x_min":28,"x_max":801,"o":"m 508 -25 q 265 30 374 -25 q 92 193 156 85 q 28 458 28 301 q 67 668 28 578 q 173 819 106 758 q 328 911 240 881 q 515 942 417 942 q 661 924 594 942 q 786 874 728 906 l 792 703 l 778 703 l 708 814 q 678 862 694 840 q 636 894 661 883 q 595 909 615 904 q 544 914 575 914 q 398 871 464 914 q 292 728 332 828 q 253 457 253 629 q 290 187 253 286 q 392 45 328 88 q 538 3 457 3 q 608 9 582 3 q 661 28 635 15 q 701 60 688 39 q 726 107 715 82 l 788 243 l 801 243 l 797 44 q 667 -6 739 14 q 508 -25 594 -25 z "},"Ć":{"ha":838,"x_min":28,"x_max":801,"o":"m 508 -25 q 265 30 374 -25 q 92 193 156 85 q 28 458 28 301 q 67 668 28 578 q 173 819 106 758 q 328 911 240 881 q 515 942 417 942 q 661 924 594 942 q 786 874 728 906 l 792 703 l 778 703 l 708 814 q 678 862 694 840 q 636 894 661 883 q 595 909 615 904 q 544 914 575 914 q 398 871 464 914 q 292 728 332 828 q 253 457 253 629 q 290 187 253 286 q 392 45 328 88 q 538 3 457 3 q 608 9 582 3 q 661 28 635 15 q 701 60 688 39 q 726 107 715 82 l 788 243 l 801 243 l 797 44 q 667 -6 739 14 q 508 -25 594 -25 m 381 1007 q 453 1081 417 1043 q 522 1154 489 1119 q 578 1204 557 1192 q 621 1217 600 1217 q 663 1201 647 1217 q 679 1161 679 1185 q 593 1078 679 1117 q 494 1035 542 1056 q 394 990 446 1014 l 381 1007 z "},"Č":{"ha":838,"x_min":28,"x_max":801,"o":"m 508 -25 q 265 30 374 -25 q 92 193 156 85 q 28 458 28 301 q 67 668 28 578 q 173 819 106 758 q 328 911 240 881 q 515 942 417 942 q 661 924 594 942 q 786 874 728 906 l 792 703 l 778 703 l 708 814 q 678 862 694 840 q 636 894 661 883 q 595 909 615 904 q 544 914 575 914 q 398 871 464 914 q 292 728 332 828 q 253 457 253 629 q 290 187 253 286 q 392 45 328 88 q 538 3 457 3 q 608 9 582 3 q 661 28 635 15 q 701 60 688 39 q 726 107 715 82 l 788 243 l 801 243 l 797 44 q 667 -6 739 14 q 508 -25 594 -25 m 476 996 l 267 1210 l 281 1226 l 486 1113 l 692 1226 l 706 1210 l 496 996 l 476 996 z "},"Ç":{"ha":838,"x_min":28,"x_max":801,"o":"m 508 -25 q 265 30 374 -25 q 92 193 156 85 q 28 458 28 301 q 67 668 28 578 q 173 819 106 758 q 328 911 240 881 q 515 942 417 942 q 661 924 594 942 q 786 874 728 906 l 792 703 l 778 703 l 708 814 q 678 862 694 840 q 636 894 661 883 q 595 909 615 904 q 544 914 575 914 q 398 871 464 914 q 292 728 332 828 q 253 457 253 629 q 290 187 253 286 q 392 45 328 88 q 538 3 457 3 q 608 9 582 3 q 661 28 635 15 q 701 60 688 39 q 726 107 715 82 l 788 243 l 801 243 l 797 44 q 667 -6 739 14 q 508 -25 594 -25 m 479 -118 l 497 3 l 526 3 l 518 -65 q 640 -107 600 -75 q 681 -186 681 -139 q 636 -272 681 -237 q 501 -307 592 -307 q 444 -302 468 -307 q 397 -290 419 -297 l 403 -267 q 476 -279 443 -279 q 537 -256 515 -279 q 558 -193 558 -233 q 537 -142 558 -160 q 479 -118 515 -124 z "},"D":{"ha":900,"x_min":31,"x_max":872,"o":"m 31 0 l 31 14 l 60 25 q 104 96 104 43 l 104 821 q 60 892 104 876 l 31 903 l 31 917 l 397 917 q 651 862 544 917 q 815 705 757 807 q 872 460 872 603 q 810 211 872 314 q 635 54 747 108 q 372 0 524 0 l 31 0 m 313 28 l 372 28 q 533 67 472 28 q 623 201 594 107 q 651 458 651 294 q 623 716 651 622 q 535 849 594 810 q 378 889 475 889 l 313 889 l 313 28 z "},"Ð":{"ha":900,"x_min":31,"x_max":872,"o":"m 31 0 l 31 14 l 60 25 q 104 96 104 43 l 104 451 l 49 451 l 49 489 l 104 489 l 104 821 q 60 892 104 876 l 31 903 l 31 917 l 397 917 q 651 862 544 917 q 815 705 757 807 q 872 460 872 603 q 810 211 872 314 q 635 54 747 108 q 372 0 524 0 l 31 0 m 313 28 l 372 28 q 533 67 472 28 q 623 201 594 107 q 651 458 651 294 q 623 716 651 622 q 535 849 594 810 q 378 889 475 889 l 313 889 l 313 489 l 544 489 l 544 451 l 313 451 l 313 28 z "},"Ď":{"ha":900,"x_min":31,"x_max":872,"o":"m 31 0 l 31 14 l 60 25 q 104 96 104 43 l 104 821 q 60 892 104 876 l 31 903 l 31 917 l 397 917 q 651 862 544 917 q 815 705 757 807 q 872 460 872 603 q 810 211 872 314 q 635 54 747 108 q 372 0 524 0 l 31 0 m 313 28 l 372 28 q 533 67 472 28 q 623 201 594 107 q 651 458 651 294 q 623 716 651 622 q 535 849 594 810 q 378 889 475 889 l 313 889 l 313 28 m 382 996 l 172 1210 l 186 1226 l 392 1113 l 597 1226 l 611 1210 l 401 996 l 382 996 z "},"Đ":{"ha":900,"x_min":31,"x_max":872,"o":"m 31 0 l 31 14 l 60 25 q 104 96 104 43 l 104 451 l 49 451 l 49 489 l 104 489 l 104 821 q 60 892 104 876 l 31 903 l 31 917 l 397 917 q 651 862 544 917 q 815 705 757 807 q 872 460 872 603 q 810 211 872 314 q 635 54 747 108 q 372 0 524 0 l 31 0 m 313 28 l 372 28 q 533 67 472 28 q 623 201 594 107 q 651 458 651 294 q 623 716 651 622 q 535 849 594 810 q 378 889 475 889 l 313 889 l 313 489 l 544 489 l 544 451 l 313 451 l 313 28 z "},"E":{"ha":771,"x_min":31,"x_max":732,"o":"m 31 0 l 31 14 l 63 26 q 95 52 86 36 q 104 96 104 68 l 104 821 q 97 865 104 849 q 63 890 89 881 l 31 903 l 31 917 l 696 917 l 704 703 l 690 703 l 631 833 q 604 874 618 858 q 563 889 590 889 l 313 889 l 313 488 l 461 488 q 503 502 489 488 q 529 542 518 517 l 557 597 l 571 597 l 571 347 l 557 347 l 529 406 q 503 445 517 431 q 461 460 489 460 l 313 460 l 313 28 l 593 28 q 636 42 621 28 q 661 83 651 57 l 718 214 l 732 214 l 724 0 l 31 0 z "},"É":{"ha":771,"x_min":31,"x_max":732,"o":"m 31 0 l 31 14 l 63 26 q 95 52 86 36 q 104 96 104 68 l 104 821 q 97 865 104 849 q 63 890 89 881 l 31 903 l 31 917 l 696 917 l 704 703 l 690 703 l 631 833 q 604 874 618 858 q 563 889 590 889 l 313 889 l 313 488 l 461 488 q 503 502 489 488 q 529 542 518 517 l 557 597 l 571 597 l 571 347 l 557 347 l 529 406 q 503 445 517 431 q 461 460 489 460 l 313 460 l 313 28 l 593 28 q 636 42 621 28 q 661 83 651 57 l 718 214 l 732 214 l 724 0 l 31 0 m 278 1007 q 350 1081 314 1043 q 419 1154 386 1119 q 476 1204 454 1192 q 518 1217 497 1217 q 560 1201 544 1217 q 576 1161 576 1185 q 490 1078 576 1117 q 391 1035 439 1056 q 292 990 343 1014 l 278 1007 z "},"Ě":{"ha":771,"x_min":31,"x_max":732,"o":"m 31 0 l 31 14 l 63 26 q 95 52 86 36 q 104 96 104 68 l 104 821 q 97 865 104 849 q 63 890 89 881 l 31 903 l 31 917 l 696 917 l 704 703 l 690 703 l 631 833 q 604 874 618 858 q 563 889 590 889 l 313 889 l 313 488 l 461 488 q 503 502 489 488 q 529 542 518 517 l 557 597 l 571 597 l 571 347 l 557 347 l 529 406 q 503 445 517 431 q 461 460 489 460 l 313 460 l 313 28 l 593 28 q 636 42 621 28 q 661 83 651 57 l 718 214 l 732 214 l 724 0 l 31 0 m 374 996 l 164 1210 l 178 1226 l 383 1113 l 589 1226 l 603 1210 l 393 996 l 374 996 z "},"Ê":{"ha":771,"x_min":31,"x_max":732,"o":"m 31 0 l 31 14 l 63 26 q 95 52 86 36 q 104 96 104 68 l 104 821 q 97 865 104 849 q 63 890 89 881 l 31 903 l 31 917 l 696 917 l 704 703 l 690 703 l 631 833 q 604 874 618 858 q 563 889 590 889 l 313 889 l 313 488 l 461 488 q 503 502 489 488 q 529 542 518 517 l 557 597 l 571 597 l 571 347 l 557 347 l 529 406 q 503 445 517 431 q 461 460 489 460 l 313 460 l 313 28 l 593 28 q 636 42 621 28 q 661 83 651 57 l 718 214 l 732 214 l 724 0 l 31 0 m 178 964 l 164 981 l 374 1208 l 393 1208 l 603 981 l 589 964 l 383 1078 l 178 964 z "},"Ë":{"ha":771,"x_min":31,"x_max":732,"o":"m 31 0 l 31 14 l 63 26 q 95 52 86 36 q 104 96 104 68 l 104 821 q 97 865 104 849 q 63 890 89 881 l 31 903 l 31 917 l 696 917 l 704 703 l 690 703 l 631 833 q 604 874 618 858 q 563 889 590 889 l 313 889 l 313 488 l 461 488 q 503 502 489 488 q 529 542 518 517 l 557 597 l 571 597 l 571 347 l 557 347 l 529 406 q 503 445 517 431 q 461 460 489 460 l 313 460 l 313 28 l 593 28 q 636 42 621 28 q 661 83 651 57 l 718 214 l 732 214 l 724 0 l 31 0 m 214 1000 q 147 1024 176 1000 q 117 1092 117 1049 q 147 1159 117 1135 q 214 1183 176 1183 q 283 1159 254 1183 q 311 1092 311 1135 q 283 1024 311 1049 q 214 1000 254 1000 m 551 1000 q 485 1024 514 1000 q 456 1092 456 1049 q 485 1159 456 1135 q 551 1183 514 1183 q 620 1159 592 1183 q 649 1092 649 1135 q 620 1024 649 1049 q 551 1000 592 1000 z "},"Ė":{"ha":771,"x_min":31,"x_max":732,"o":"m 31 0 l 31 14 l 63 26 q 95 52 86 36 q 104 96 104 68 l 104 821 q 97 865 104 849 q 63 890 89 881 l 31 903 l 31 917 l 696 917 l 704 703 l 690 703 l 631 833 q 604 874 618 858 q 563 889 590 889 l 313 889 l 313 488 l 461 488 q 503 502 489 488 q 529 542 518 517 l 557 597 l 571 597 l 571 347 l 557 347 l 529 406 q 503 445 517 431 q 461 460 489 460 l 313 460 l 313 28 l 593 28 q 636 42 621 28 q 661 83 651 57 l 718 214 l 732 214 l 724 0 l 31 0 m 383 994 q 303 1024 336 994 q 271 1099 271 1053 q 303 1175 271 1146 q 383 1204 336 1204 q 463 1175 431 1204 q 496 1099 496 1146 q 463 1024 496 1053 q 383 994 431 994 z "},"È":{"ha":771,"x_min":31,"x_max":732,"o":"m 31 0 l 31 14 l 63 26 q 95 52 86 36 q 104 96 104 68 l 104 821 q 97 865 104 849 q 63 890 89 881 l 31 903 l 31 917 l 696 917 l 704 703 l 690 703 l 631 833 q 604 874 618 858 q 563 889 590 889 l 313 889 l 313 488 l 461 488 q 503 502 489 488 q 529 542 518 517 l 557 597 l 571 597 l 571 347 l 557 347 l 529 406 q 503 445 517 431 q 461 460 489 460 l 313 460 l 313 28 l 593 28 q 636 42 621 28 q 661 83 651 57 l 718 214 l 732 214 l 724 0 l 31 0 m 476 990 q 378 1035 425 1014 q 278 1078 331 1056 q 192 1161 192 1117 q 208 1201 192 1185 q 250 1217 224 1217 q 292 1204 271 1217 q 349 1154 314 1192 q 418 1081 382 1119 q 490 1007 454 1043 l 476 990 z "},"Ē":{"ha":771,"x_min":31,"x_max":732,"o":"m 31 0 l 31 14 l 63 26 q 95 52 86 36 q 104 96 104 68 l 104 821 q 97 865 104 849 q 63 890 89 881 l 31 903 l 31 917 l 696 917 l 704 703 l 690 703 l 631 833 q 604 874 618 858 q 563 889 590 889 l 313 889 l 313 488 l 461 488 q 503 502 489 488 q 529 542 518 517 l 557 597 l 571 597 l 571 347 l 557 347 l 529 406 q 503 445 517 431 q 461 460 489 460 l 313 460 l 313 28 l 593 28 q 636 42 621 28 q 661 83 651 57 l 718 214 l 732 214 l 724 0 l 31 0 m 164 1067 l 164 1101 l 603 1101 l 603 1067 l 164 1067 z "},"Ę":{"ha":829,"x_min":31,"x_max":810,"o":"m 31 0 l 31 14 l 63 26 q 95 52 86 36 q 104 96 104 68 l 104 821 q 97 865 104 849 q 63 890 89 881 l 31 903 l 31 917 l 696 917 l 704 703 l 690 703 l 631 833 q 604 874 618 858 q 563 889 590 889 l 313 889 l 313 488 l 461 488 q 503 502 489 488 q 529 542 518 517 l 557 597 l 571 597 l 571 347 l 557 347 l 529 406 q 503 445 517 431 q 461 460 489 460 l 313 460 l 313 28 l 593 28 q 636 42 621 28 q 661 83 651 57 l 718 214 l 732 214 l 724 0 l 31 0 m 635 -311 q 531 -278 571 -311 q 492 -187 492 -244 q 520 -103 492 -143 q 592 -32 549 -62 q 679 14 636 -1 l 703 14 q 634 -52 660 -12 q 608 -136 608 -92 q 638 -208 608 -181 q 713 -236 667 -236 q 761 -227 739 -236 q 800 -208 783 -218 l 810 -224 q 734 -285 779 -258 q 635 -311 689 -311 z "},"F":{"ha":747,"x_min":31,"x_max":713,"o":"m 31 0 l 31 14 l 56 22 q 93 49 83 32 q 103 93 103 65 q 104 261 104 176 q 104 431 104 346 l 104 486 q 104 653 104 569 q 103 821 104 738 q 95 865 103 849 q 61 892 88 882 l 31 903 l 31 917 l 703 917 l 713 686 l 699 686 l 619 832 q 588 874 606 858 q 538 889 569 889 l 314 889 q 313 688 313 790 q 313 483 313 585 l 457 483 q 504 497 489 483 q 533 538 519 511 l 563 590 l 576 590 l 576 347 l 563 347 l 532 400 q 503 440 518 425 q 457 456 489 456 l 313 456 q 313 270 313 358 q 314 97 313 182 q 367 26 314 43 l 408 14 l 408 0 l 31 0 z "},"G":{"ha":911,"x_min":28,"x_max":890,"o":"m 506 -25 q 256 34 364 -25 q 88 202 149 93 q 28 460 28 311 q 88 713 28 604 q 260 881 147 821 q 535 942 374 942 q 672 925 608 942 q 792 876 735 908 l 797 682 l 783 682 l 706 826 q 672 876 688 861 q 633 900 657 892 q 592 910 611 907 q 543 914 574 914 q 391 868 457 914 q 289 722 325 822 q 253 460 253 622 q 287 197 253 299 q 383 49 321 96 q 528 3 446 3 q 552 5 540 3 q 575 10 564 7 q 610 32 601 14 q 618 75 618 50 l 618 350 q 563 417 618 404 l 499 433 l 499 447 l 890 447 l 890 433 l 871 428 q 818 358 818 411 l 818 57 q 672 -4 746 17 q 506 -25 597 -25 z "},"Ğ":{"ha":911,"x_min":28,"x_max":890,"o":"m 506 -25 q 256 34 364 -25 q 88 202 149 93 q 28 460 28 311 q 88 713 28 604 q 260 881 147 821 q 535 942 374 942 q 672 925 608 942 q 792 876 735 908 l 797 682 l 783 682 l 706 826 q 672 876 688 861 q 633 900 657 892 q 592 910 611 907 q 543 914 574 914 q 391 868 457 914 q 289 722 325 822 q 253 460 253 622 q 287 197 253 299 q 383 49 321 96 q 528 3 446 3 q 552 5 540 3 q 575 10 564 7 q 610 32 601 14 q 618 75 618 50 l 618 350 q 563 417 618 404 l 499 433 l 499 447 l 890 447 l 890 433 l 871 428 q 818 358 818 411 l 818 57 q 672 -4 746 17 q 506 -25 597 -25 m 499 990 q 398 1017 442 990 q 328 1088 354 1044 q 297 1183 303 1132 l 314 1190 q 386 1122 338 1147 q 499 1096 435 1096 q 612 1122 563 1096 q 683 1190 661 1147 l 700 1183 q 669 1088 694 1132 q 600 1017 643 1044 q 499 990 557 990 z "},"Ģ":{"ha":911,"x_min":28,"x_max":890,"o":"m 506 -25 q 256 34 364 -25 q 88 202 149 93 q 28 460 28 311 q 88 713 28 604 q 260 881 147 821 q 535 942 374 942 q 672 925 608 942 q 792 876 735 908 l 797 682 l 783 682 l 706 826 q 672 876 688 861 q 633 900 657 892 q 592 910 611 907 q 543 914 574 914 q 391 868 457 914 q 289 722 325 822 q 253 460 253 622 q 287 197 253 299 q 383 49 321 96 q 528 3 446 3 q 552 5 540 3 q 575 10 564 7 q 610 32 601 14 q 618 75 618 50 l 618 350 q 563 417 618 404 l 499 433 l 499 447 l 890 447 l 890 433 l 871 428 q 818 358 818 411 l 818 57 q 672 -4 746 17 q 506 -25 597 -25 m 424 -368 l 419 -353 q 497 -312 468 -333 q 539 -256 525 -290 q 463 -227 490 -253 q 435 -162 435 -201 q 463 -99 435 -124 q 529 -74 490 -74 q 601 -100 576 -74 q 626 -172 626 -126 q 599 -258 626 -219 q 525 -324 571 -296 q 424 -368 479 -351 z "},"H":{"ha":960,"x_min":31,"x_max":929,"o":"m 31 0 l 31 14 l 58 25 q 95 51 86 35 q 104 94 104 68 l 104 821 q 95 865 104 849 q 58 892 86 882 l 31 903 l 31 917 l 383 917 l 383 903 l 360 893 q 324 867 333 883 q 314 824 314 851 l 314 486 l 646 486 l 646 824 q 637 867 646 851 q 600 893 628 883 l 575 903 l 575 917 l 929 917 l 929 903 l 901 892 q 865 865 875 882 q 856 821 856 849 l 856 94 q 865 51 856 68 q 901 25 875 35 l 929 14 l 929 0 l 575 0 l 575 14 l 600 22 q 637 49 628 33 q 646 93 646 65 l 646 458 l 314 458 l 314 93 q 360 22 314 42 l 383 14 l 383 0 l 31 0 z "},"I":{"ha":418,"x_min":31,"x_max":388,"o":"m 31 0 l 31 14 l 58 25 q 95 51 86 35 q 104 96 104 68 l 104 821 q 96 865 104 849 q 58 892 88 882 l 31 903 l 31 917 l 388 917 l 388 903 l 360 892 q 323 865 332 882 q 314 821 314 849 l 314 96 q 323 52 314 68 q 360 25 332 36 l 388 14 l 388 0 l 31 0 z "},"Í":{"ha":418,"x_min":31,"x_max":403,"o":"m 31 0 l 31 14 l 58 25 q 95 51 86 35 q 104 96 104 68 l 104 821 q 96 865 104 849 q 58 892 88 882 l 31 903 l 31 917 l 388 917 l 388 903 l 360 892 q 323 865 332 882 q 314 821 314 849 l 314 96 q 323 52 314 68 q 360 25 332 36 l 388 14 l 388 0 l 31 0 m 104 1007 q 176 1081 140 1043 q 246 1154 213 1119 q 302 1204 281 1192 q 344 1217 324 1217 q 387 1201 371 1217 q 403 1161 403 1185 q 317 1078 403 1117 q 217 1035 265 1056 q 118 990 169 1014 l 104 1007 z "},"Î":{"ha":418,"x_min":-10,"x_max":429,"o":"m 31 0 l 31 14 l 58 25 q 95 51 86 35 q 104 96 104 68 l 104 821 q 96 865 104 849 q 58 892 88 882 l 31 903 l 31 917 l 388 917 l 388 903 l 360 892 q 323 865 332 882 q 314 821 314 849 l 314 96 q 323 52 314 68 q 360 25 332 36 l 388 14 l 388 0 l 31 0 m 4 964 l -10 981 l 200 1208 l 219 1208 l 429 981 l 415 964 l 210 1078 l 4 964 z "},"Ï":{"ha":418,"x_min":-57,"x_max":475,"o":"m 31 0 l 31 14 l 58 25 q 95 51 86 35 q 104 96 104 68 l 104 821 q 96 865 104 849 q 58 892 88 882 l 31 903 l 31 917 l 388 917 l 388 903 l 360 892 q 323 865 332 882 q 314 821 314 849 l 314 96 q 323 52 314 68 q 360 25 332 36 l 388 14 l 388 0 l 31 0 m 40 1000 q -27 1024 3 1000 q -57 1092 -57 1049 q -27 1159 -57 1135 q 40 1183 3 1183 q 109 1159 81 1183 q 138 1092 138 1135 q 109 1024 138 1049 q 40 1000 81 1000 m 378 1000 q 311 1024 340 1000 q 282 1092 282 1049 q 311 1159 282 1135 q 378 1183 340 1183 q 447 1159 418 1183 q 475 1092 475 1135 q 447 1024 475 1049 q 378 1000 418 1000 z "},"İ":{"ha":418,"x_min":31,"x_max":388,"o":"m 31 0 l 31 14 l 58 25 q 95 51 86 35 q 104 96 104 68 l 104 821 q 96 865 104 849 q 58 892 88 882 l 31 903 l 31 917 l 388 917 l 388 903 l 360 892 q 323 865 332 882 q 314 821 314 849 l 314 96 q 323 52 314 68 q 360 25 332 36 l 388 14 l 388 0 l 31 0 m 210 994 q 130 1024 163 994 q 97 1099 97 1053 q 130 1175 97 1146 q 210 1204 163 1204 q 290 1175 257 1204 q 322 1099 322 1146 q 290 1024 322 1053 q 210 994 257 994 z "},"Ì":{"ha":418,"x_min":18,"x_max":388,"o":"m 31 0 l 31 14 l 58 25 q 95 51 86 35 q 104 96 104 68 l 104 821 q 96 865 104 849 q 58 892 88 882 l 31 903 l 31 917 l 388 917 l 388 903 l 360 892 q 323 865 332 882 q 314 821 314 849 l 314 96 q 323 52 314 68 q 360 25 332 36 l 388 14 l 388 0 l 31 0 m 303 990 q 204 1035 251 1014 q 104 1078 157 1056 q 18 1161 18 1117 q 34 1201 18 1185 q 76 1217 50 1217 q 119 1204 97 1217 q 175 1154 140 1192 q 244 1081 208 1119 q 317 1007 281 1043 l 303 990 z "},"Ī":{"ha":418,"x_min":-10,"x_max":429,"o":"m 31 0 l 31 14 l 58 25 q 95 51 86 35 q 104 96 104 68 l 104 821 q 96 865 104 849 q 58 892 88 882 l 31 903 l 31 917 l 388 917 l 388 903 l 360 892 q 323 865 332 882 q 314 821 314 849 l 314 96 q 323 52 314 68 q 360 25 332 36 l 388 14 l 388 0 l 31 0 m -10 1067 l -10 1101 l 429 1101 l 429 1067 l -10 1067 z "},"Į":{"ha":418,"x_min":31,"x_max":425,"o":"m 31 0 l 31 14 l 58 25 q 95 51 86 35 q 104 96 104 68 l 104 821 q 96 865 104 849 q 58 892 88 882 l 31 903 l 31 917 l 388 917 l 388 903 l 360 892 q 323 865 332 882 q 314 821 314 849 l 314 96 q 323 52 314 68 q 360 25 332 36 l 388 14 l 388 0 l 31 0 m 250 -311 q 147 -278 186 -311 q 107 -187 107 -244 q 135 -103 107 -143 q 208 -32 164 -62 q 294 14 251 -1 l 318 14 q 249 -52 275 -12 q 224 -136 224 -92 q 253 -208 224 -181 q 328 -236 282 -236 q 376 -227 354 -236 q 415 -208 399 -218 l 425 -224 q 349 -285 394 -258 q 250 -311 304 -311 z "},"J":{"ha":593,"x_min":10,"x_max":563,"o":"m 151 -25 q 47 1 83 -25 q 10 72 10 28 q 37 132 10 111 q 100 153 64 153 q 164 137 136 153 q 215 82 192 121 l 240 39 q 258 29 247 29 q 272 42 268 29 q 284 123 281 69 q 288 253 288 176 q 283 478 288 340 q 275 817 279 615 q 231 892 275 876 l 199 903 l 199 917 l 563 917 l 563 903 l 532 892 q 498 866 507 882 q 489 821 489 850 l 489 546 q 476 321 489 410 q 436 167 464 232 q 323 24 401 74 q 151 -25 244 -25 z "},"K":{"ha":908,"x_min":31,"x_max":896,"o":"m 31 0 l 31 14 l 60 25 q 96 51 88 35 q 104 94 104 68 l 104 821 q 96 865 104 849 q 60 892 88 882 l 31 903 l 31 917 l 376 917 l 376 903 l 346 890 q 314 865 322 882 q 306 819 306 849 l 306 93 q 315 50 306 65 q 350 25 324 35 l 376 14 l 376 0 l 31 0 m 543 0 l 543 14 l 561 19 q 590 47 589 28 q 574 92 592 67 l 307 471 l 658 829 q 680 867 678 849 q 653 894 682 885 l 629 903 l 629 917 l 832 917 l 832 903 l 796 892 q 747 868 765 882 q 706 831 729 854 l 457 576 l 783 100 q 823 50 804 69 q 876 19 842 31 l 896 14 l 896 0 l 543 0 z "},"Ķ":{"ha":908,"x_min":31,"x_max":896,"o":"m 31 0 l 31 14 l 60 25 q 96 51 88 35 q 104 94 104 68 l 104 821 q 96 865 104 849 q 60 892 88 882 l 31 903 l 31 917 l 376 917 l 376 903 l 346 890 q 314 865 322 882 q 306 819 306 849 l 306 93 q 315 50 306 65 q 350 25 324 35 l 376 14 l 376 0 l 31 0 m 543 0 l 543 14 l 561 19 q 590 47 589 28 q 574 92 592 67 l 307 471 l 658 829 q 680 867 678 849 q 653 894 682 885 l 629 903 l 629 917 l 832 917 l 832 903 l 796 892 q 747 868 765 882 q 706 831 729 854 l 457 576 l 783 100 q 823 50 804 69 q 876 19 842 31 l 896 14 l 896 0 l 543 0 m 353 -368 l 349 -353 q 426 -312 397 -333 q 468 -256 454 -290 q 392 -227 419 -253 q 364 -162 364 -201 q 392 -99 364 -124 q 458 -74 419 -74 q 531 -100 506 -74 q 556 -172 556 -126 q 528 -258 556 -219 q 454 -324 500 -296 q 353 -368 408 -351 z "},"L":{"ha":750,"x_min":31,"x_max":718,"o":"m 31 0 l 31 14 l 60 25 q 97 52 89 36 q 104 96 104 68 l 104 821 q 96 865 104 849 q 60 892 88 882 l 31 903 l 31 917 l 385 917 l 385 903 l 360 892 q 324 865 333 882 q 314 819 314 847 l 314 28 l 528 28 q 603 53 579 28 q 650 125 628 78 l 704 242 l 718 242 l 706 0 l 31 0 z "},"Ĺ":{"ha":750,"x_min":31,"x_max":718,"o":"m 31 0 l 31 14 l 60 25 q 97 52 89 36 q 104 96 104 68 l 104 821 q 96 865 104 849 q 60 892 88 882 l 31 903 l 31 917 l 385 917 l 385 903 l 360 892 q 324 865 333 882 q 314 819 314 847 l 314 28 l 528 28 q 603 53 579 28 q 650 125 628 78 l 704 242 l 718 242 l 706 0 l 31 0 m 113 1007 q 185 1081 149 1043 q 254 1154 221 1119 q 310 1204 289 1192 q 353 1217 332 1217 q 395 1201 379 1217 q 411 1161 411 1185 q 325 1078 411 1117 q 226 1035 274 1056 q 126 990 178 1014 l 113 1007 z "},"Ľ":{"ha":811,"x_min":31,"x_max":778,"o":"m 596 617 l 585 636 q 658 701 628 663 q 703 799 689 739 l 679 804 q 616 840 640 815 q 592 899 592 865 q 615 961 592 935 q 678 988 639 988 q 750 956 722 988 q 778 872 778 925 q 753 771 778 821 q 688 681 729 721 q 596 617 647 640 m 31 0 l 31 14 l 60 25 q 97 52 89 36 q 104 96 104 68 l 104 821 q 96 865 104 849 q 60 892 88 882 l 31 903 l 31 917 l 385 917 l 385 903 l 360 892 q 324 865 333 882 q 314 819 314 847 l 314 28 l 528 28 q 603 53 579 28 q 650 125 628 78 l 704 242 l 718 242 l 706 0 l 31 0 z "},"Ļ":{"ha":750,"x_min":31,"x_max":718,"o":"m 31 0 l 31 14 l 60 25 q 97 52 89 36 q 104 96 104 68 l 104 821 q 96 865 104 849 q 60 892 88 882 l 31 903 l 31 917 l 385 917 l 385 903 l 360 892 q 324 865 333 882 q 314 819 314 847 l 314 28 l 528 28 q 603 53 579 28 q 650 125 628 78 l 704 242 l 718 242 l 706 0 l 31 0 m 275 -368 l 271 -353 q 348 -312 319 -333 q 390 -256 376 -290 q 314 -227 342 -253 q 286 -162 286 -201 q 314 -99 286 -124 q 381 -74 342 -74 q 453 -100 428 -74 q 478 -172 478 -126 q 450 -258 478 -219 q 376 -324 422 -296 q 275 -368 331 -351 z "},"Ŀ":{"ha":811,"x_min":31,"x_max":782,"o":"m 31 0 l 31 14 l 60 25 q 97 52 89 36 q 104 96 104 68 l 104 821 q 96 865 104 849 q 60 892 88 882 l 31 903 l 31 917 l 385 917 l 385 903 l 360 892 q 324 865 333 882 q 314 819 314 847 l 314 28 l 528 28 q 603 53 579 28 q 650 125 628 78 l 704 242 l 718 242 l 706 0 l 31 0 z "},"Ł":{"ha":811,"x_min":31,"x_max":718,"o":"m 31 0 l 31 14 l 60 25 q 97 52 89 36 q 104 96 104 68 l 104 347 l 47 317 l 47 351 l 104 382 l 104 821 q 96 865 104 849 q 60 892 88 882 l 31 903 l 31 917 l 385 917 l 385 903 l 360 892 q 324 865 333 882 q 314 819 314 847 l 314 489 l 556 621 l 556 585 l 314 454 l 314 28 l 528 28 q 603 53 579 28 q 650 125 628 78 l 704 242 l 718 242 l 706 0 l 31 0 z "},"M":{"ha":1099,"x_min":28,"x_max":1068,"o":"m 28 0 l 28 14 l 56 24 q 103 103 103 39 l 103 814 q 97 858 103 842 q 64 886 90 875 l 28 903 l 28 917 l 296 917 l 553 244 l 794 917 l 1068 917 l 1068 903 l 1046 894 q 1010 867 1019 885 q 1000 822 1000 850 l 1000 96 q 1007 53 1000 68 q 1040 26 1014 38 l 1068 14 l 1068 0 l 722 0 l 722 14 l 751 26 q 785 53 778 38 q 792 96 792 68 l 792 408 l 794 806 l 504 0 l 435 0 l 132 796 l 136 450 l 136 100 q 145 51 136 69 q 181 24 154 32 l 211 14 l 211 0 l 28 0 z "},"N":{"ha":907,"x_min":43,"x_max":857,"o":"m 49 0 l 49 14 l 94 28 q 131 55 119 35 q 142 103 142 75 l 142 771 q 117 821 126 804 q 97 849 108 838 q 67 879 86 861 l 43 903 l 43 917 l 289 917 l 750 288 l 750 811 q 741 861 750 839 q 704 890 732 883 l 658 903 l 658 917 l 857 917 l 857 903 l 819 890 q 789 861 794 882 q 783 813 783 840 l 783 -4 l 706 -4 l 175 725 l 175 103 q 183 56 175 75 q 218 28 192 36 l 260 14 l 260 0 l 49 0 z "},"Ń":{"ha":907,"x_min":43,"x_max":857,"o":"m 49 0 l 49 14 l 94 28 q 131 55 119 35 q 142 103 142 75 l 142 771 q 117 821 126 804 q 97 849 108 838 q 67 879 86 861 l 43 903 l 43 917 l 289 917 l 750 288 l 750 811 q 741 861 750 839 q 704 890 732 883 l 658 903 l 658 917 l 857 917 l 857 903 l 819 890 q 789 861 794 882 q 783 813 783 840 l 783 -4 l 706 -4 l 175 725 l 175 103 q 183 56 175 75 q 218 28 192 36 l 260 14 l 260 0 l 49 0 m 347 1007 q 419 1081 383 1043 q 489 1154 456 1119 q 545 1204 524 1192 q 588 1217 567 1217 q 630 1201 614 1217 q 646 1161 646 1185 q 560 1078 646 1117 q 460 1035 508 1056 q 361 990 413 1014 l 347 1007 z "},"Ň":{"ha":907,"x_min":43,"x_max":857,"o":"m 49 0 l 49 14 l 94 28 q 131 55 119 35 q 142 103 142 75 l 142 771 q 117 821 126 804 q 97 849 108 838 q 67 879 86 861 l 43 903 l 43 917 l 289 917 l 750 288 l 750 811 q 741 861 750 839 q 704 890 732 883 l 658 903 l 658 917 l 857 917 l 857 903 l 819 890 q 789 861 794 882 q 783 813 783 840 l 783 -4 l 706 -4 l 175 725 l 175 103 q 183 56 175 75 q 218 28 192 36 l 260 14 l 260 0 l 49 0 m 443 996 l 233 1210 l 247 1226 l 453 1113 l 658 1226 l 672 1210 l 463 996 l 443 996 z "},"Ņ":{"ha":907,"x_min":43,"x_max":857,"o":"m 49 0 l 49 14 l 94 28 q 131 55 119 35 q 142 103 142 75 l 142 771 q 117 821 126 804 q 97 849 108 838 q 67 879 86 861 l 43 903 l 43 917 l 289 917 l 750 288 l 750 811 q 741 861 750 839 q 704 890 732 883 l 658 903 l 658 917 l 857 917 l 857 903 l 819 890 q 789 861 794 882 q 783 813 783 840 l 783 -4 l 706 -4 l 175 725 l 175 103 q 183 56 175 75 q 218 28 192 36 l 260 14 l 260 0 l 49 0 m 375 -368 l 371 -353 q 448 -312 419 -333 q 490 -256 476 -290 q 414 -227 442 -253 q 386 -162 386 -201 q 414 -99 386 -124 q 481 -74 442 -74 q 553 -100 528 -74 q 578 -172 578 -126 q 550 -258 578 -219 q 476 -324 522 -296 q 375 -368 431 -351 z "},"Ñ":{"ha":907,"x_min":43,"x_max":857,"o":"m 49 0 l 49 14 l 94 28 q 131 55 119 35 q 142 103 142 75 l 142 771 q 117 821 126 804 q 97 849 108 838 q 67 879 86 861 l 43 903 l 43 917 l 289 917 l 750 288 l 750 811 q 741 861 750 839 q 704 890 732 883 l 658 903 l 658 917 l 857 917 l 857 903 l 819 890 q 789 861 794 882 q 783 813 783 840 l 783 -4 l 706 -4 l 175 725 l 175 103 q 183 56 175 75 q 218 28 192 36 l 260 14 l 260 0 l 49 0 m 217 999 q 263 1140 228 1085 q 357 1194 297 1194 q 418 1182 392 1194 q 467 1151 444 1169 q 514 1112 490 1133 q 568 1090 538 1090 q 631 1117 607 1090 q 671 1186 656 1144 l 692 1179 q 645 1039 679 1094 q 551 983 611 983 q 492 996 519 983 q 443 1025 465 1008 q 395 1067 421 1046 q 340 1088 369 1088 q 276 1060 301 1088 q 235 990 250 1032 l 217 999 z "},"O":{"ha":931,"x_min":28,"x_max":903,"o":"m 465 -25 q 302 6 381 -25 q 162 97 224 36 q 64 247 100 157 q 28 458 28 338 q 64 668 28 578 q 163 819 100 758 q 303 910 225 879 q 465 942 382 942 q 628 912 550 942 q 769 822 707 882 q 867 670 831 761 q 903 458 903 579 q 867 249 903 340 q 769 98 831 158 q 628 6 707 38 q 465 -25 550 -25 m 465 4 q 589 45 542 4 q 658 185 636 86 q 679 458 679 285 q 658 733 679 633 q 589 873 636 832 q 465 914 542 914 q 343 873 390 914 q 274 733 296 832 q 253 458 253 633 q 274 185 253 285 q 343 45 296 86 q 465 4 390 4 z "},"Ó":{"ha":931,"x_min":28,"x_max":903,"o":"m 465 -25 q 302 6 381 -25 q 162 97 224 36 q 64 247 100 157 q 28 458 28 338 q 64 668 28 578 q 163 819 100 758 q 303 910 225 879 q 465 942 382 942 q 628 912 550 942 q 769 822 707 882 q 867 670 831 761 q 903 458 903 579 q 867 249 903 340 q 769 98 831 158 q 628 6 707 38 q 465 -25 550 -25 m 465 4 q 589 45 542 4 q 658 185 636 86 q 679 458 679 285 q 658 733 679 633 q 589 873 636 832 q 465 914 542 914 q 343 873 390 914 q 274 733 296 832 q 253 458 253 633 q 274 185 253 285 q 343 45 296 86 q 465 4 390 4 m 360 1007 q 432 1081 396 1043 q 501 1154 468 1119 q 558 1204 536 1192 q 600 1217 579 1217 q 642 1201 626 1217 q 658 1161 658 1185 q 572 1078 658 1117 q 473 1035 521 1056 q 374 990 425 1014 l 360 1007 z "},"Ô":{"ha":931,"x_min":28,"x_max":903,"o":"m 465 -25 q 302 6 381 -25 q 162 97 224 36 q 64 247 100 157 q 28 458 28 338 q 64 668 28 578 q 163 819 100 758 q 303 910 225 879 q 465 942 382 942 q 628 912 550 942 q 769 822 707 882 q 867 670 831 761 q 903 458 903 579 q 867 249 903 340 q 769 98 831 158 q 628 6 707 38 q 465 -25 550 -25 m 465 4 q 589 45 542 4 q 658 185 636 86 q 679 458 679 285 q 658 733 679 633 q 589 873 636 832 q 465 914 542 914 q 343 873 390 914 q 274 733 296 832 q 253 458 253 633 q 274 185 253 285 q 343 45 296 86 q 465 4 390 4 m 260 964 l 246 981 l 456 1208 l 475 1208 l 685 981 l 671 964 l 465 1078 l 260 964 z "},"Ö":{"ha":931,"x_min":28,"x_max":903,"o":"m 465 -25 q 302 6 381 -25 q 162 97 224 36 q 64 247 100 157 q 28 458 28 338 q 64 668 28 578 q 163 819 100 758 q 303 910 225 879 q 465 942 382 942 q 628 912 550 942 q 769 822 707 882 q 867 670 831 761 q 903 458 903 579 q 867 249 903 340 q 769 98 831 158 q 628 6 707 38 q 465 -25 550 -25 m 465 4 q 589 45 542 4 q 658 185 636 86 q 679 458 679 285 q 658 733 679 633 q 589 873 636 832 q 465 914 542 914 q 343 873 390 914 q 274 733 296 832 q 253 458 253 633 q 274 185 253 285 q 343 45 296 86 q 465 4 390 4 m 296 1000 q 228 1024 258 1000 q 199 1092 199 1049 q 228 1159 199 1135 q 296 1183 258 1183 q 365 1159 336 1183 q 393 1092 393 1135 q 365 1024 393 1049 q 296 1000 336 1000 m 633 1000 q 567 1024 596 1000 q 538 1092 538 1049 q 567 1159 538 1135 q 633 1183 596 1183 q 702 1159 674 1183 q 731 1092 731 1135 q 702 1024 731 1049 q 633 1000 674 1000 z "},"Ò":{"ha":931,"x_min":28,"x_max":903,"o":"m 465 -25 q 302 6 381 -25 q 162 97 224 36 q 64 247 100 157 q 28 458 28 338 q 64 668 28 578 q 163 819 100 758 q 303 910 225 879 q 465 942 382 942 q 628 912 550 942 q 769 822 707 882 q 867 670 831 761 q 903 458 903 579 q 867 249 903 340 q 769 98 831 158 q 628 6 707 38 q 465 -25 550 -25 m 465 4 q 589 45 542 4 q 658 185 636 86 q 679 458 679 285 q 658 733 679 633 q 589 873 636 832 q 465 914 542 914 q 343 873 390 914 q 274 733 296 832 q 253 458 253 633 q 274 185 253 285 q 343 45 296 86 q 465 4 390 4 m 558 990 q 460 1035 507 1014 q 360 1078 413 1056 q 274 1161 274 1117 q 290 1201 274 1185 q 332 1217 306 1217 q 374 1204 353 1217 q 431 1154 396 1192 q 500 1081 464 1119 q 572 1007 536 1043 l 558 990 z "},"Ő":{"ha":931,"x_min":28,"x_max":903,"o":"m 465 -25 q 302 6 381 -25 q 162 97 224 36 q 64 247 100 157 q 28 458 28 338 q 64 668 28 578 q 163 819 100 758 q 303 910 225 879 q 465 942 382 942 q 628 912 550 942 q 769 822 707 882 q 867 670 831 761 q 903 458 903 579 q 867 249 903 340 q 769 98 831 158 q 628 6 707 38 q 465 -25 550 -25 m 465 4 q 589 45 542 4 q 658 185 636 86 q 679 458 679 285 q 658 733 679 633 q 589 873 636 832 q 465 914 542 914 q 343 873 390 914 q 274 733 296 832 q 253 458 253 633 q 274 185 253 285 q 343 45 296 86 q 465 4 390 4 m 538 982 l 526 990 l 592 1178 q 660 1242 615 1242 q 702 1226 688 1242 q 717 1186 717 1211 q 685 1125 717 1157 l 538 982 m 319 982 l 307 990 l 374 1178 q 442 1242 397 1242 q 484 1226 469 1242 q 499 1186 499 1211 q 467 1125 499 1157 l 319 982 z "},"Ō":{"ha":931,"x_min":28,"x_max":903,"o":"m 465 -25 q 302 6 381 -25 q 162 97 224 36 q 64 247 100 157 q 28 458 28 338 q 64 668 28 578 q 163 819 100 758 q 303 910 225 879 q 465 942 382 942 q 628 912 550 942 q 769 822 707 882 q 867 670 831 761 q 903 458 903 579 q 867 249 903 340 q 769 98 831 158 q 628 6 707 38 q 465 -25 550 -25 m 465 4 q 589 45 542 4 q 658 185 636 86 q 679 458 679 285 q 658 733 679 633 q 589 873 636 832 q 465 914 542 914 q 343 873 390 914 q 274 733 296 832 q 253 458 253 633 q 274 185 253 285 q 343 45 296 86 q 465 4 390 4 m 246 1067 l 246 1101 l 685 1101 l 685 1067 l 246 1067 z "},"Ø":{"ha":931,"x_min":28,"x_max":903,"o":"m 99 -18 l 67 8 l 149 110 q 60 257 93 169 q 28 458 28 344 q 64 668 28 578 q 163 819 100 758 q 303 910 225 879 q 465 942 382 942 q 615 917 542 942 q 746 842 688 892 l 833 949 l 865 922 l 776 813 q 868 664 833 753 q 903 458 903 575 q 867 249 903 340 q 769 98 831 158 q 628 6 707 38 q 465 -25 550 -25 q 313 1 386 -25 q 179 81 239 28 l 99 -18 m 253 458 q 265 251 253 336 l 656 731 q 586 870 632 826 q 465 914 540 914 q 302 807 351 914 q 253 458 253 700 m 465 4 q 630 110 581 4 q 679 458 679 217 q 665 678 679 589 l 274 197 q 343 50 296 96 q 465 4 390 4 z "},"Õ":{"ha":931,"x_min":28,"x_max":903,"o":"m 465 -25 q 302 6 381 -25 q 162 97 224 36 q 64 247 100 157 q 28 458 28 338 q 64 668 28 578 q 163 819 100 758 q 303 910 225 879 q 465 942 382 942 q 628 912 550 942 q 769 822 707 882 q 867 670 831 761 q 903 458 903 579 q 867 249 903 340 q 769 98 831 158 q 628 6 707 38 q 465 -25 550 -25 m 465 4 q 589 45 542 4 q 658 185 636 86 q 679 458 679 285 q 658 733 679 633 q 589 873 636 832 q 465 914 542 914 q 343 873 390 914 q 274 733 296 832 q 253 458 253 633 q 274 185 253 285 q 343 45 296 86 q 465 4 390 4 m 229 999 q 275 1140 240 1085 q 369 1194 310 1194 q 431 1182 404 1194 q 479 1151 457 1169 q 526 1112 503 1133 q 581 1090 550 1090 q 644 1117 619 1090 q 683 1186 668 1144 l 704 1179 q 658 1039 692 1094 q 564 983 624 983 q 505 996 532 983 q 456 1025 478 1008 q 408 1067 433 1046 q 353 1088 382 1088 q 288 1060 314 1088 q 247 990 263 1032 l 229 999 z "},"Œ":{"ha":1271,"x_min":28,"x_max":1233,"o":"m 517 -25 q 328 5 417 -25 q 172 95 240 35 q 66 247 104 156 q 28 458 28 338 q 66 670 28 579 q 172 822 104 761 q 328 912 240 882 q 517 942 417 942 q 706 917 613 942 l 1197 917 l 1206 703 l 1192 703 l 1126 844 q 1057 889 1107 889 l 817 889 q 815 706 815 800 q 814 488 814 611 l 958 488 q 1018 525 1000 488 l 1057 597 l 1071 597 l 1071 347 l 1057 347 l 1018 422 q 958 460 1000 460 l 814 460 q 814 267 814 344 q 815 135 814 190 q 817 28 815 79 l 1089 28 q 1158 74 1140 28 l 1219 214 l 1233 214 l 1225 0 l 706 0 q 614 -18 663 -11 q 517 -25 565 -25 m 533 3 q 547 3 540 3 q 560 6 554 4 q 590 20 579 7 q 600 54 600 33 q 604 431 604 274 l 604 486 q 604 651 604 560 q 601 849 604 742 q 560 911 599 907 q 547 913 554 913 q 533 914 540 914 q 376 854 439 914 q 283 692 314 794 q 253 458 253 589 q 283 225 253 328 q 376 63 314 122 q 533 3 439 3 z "},"P":{"ha":785,"x_min":31,"x_max":760,"o":"m 31 0 l 31 14 l 58 24 q 95 49 86 32 q 104 93 104 65 l 104 821 q 94 865 104 849 q 57 892 85 882 l 31 903 l 31 917 l 368 917 q 667 841 575 917 q 760 642 760 765 q 722 497 760 563 q 596 392 683 431 q 360 353 508 353 l 313 353 l 313 97 q 367 26 313 43 l 408 14 l 408 0 l 31 0 m 313 381 l 365 381 q 476 403 433 381 q 540 481 519 425 q 561 635 561 536 q 538 790 561 735 q 471 867 515 846 q 360 889 426 889 l 313 889 l 313 381 z "},"Þ":{"ha":801,"x_min":31,"x_max":776,"o":"m 31 0 l 31 14 l 53 22 q 103 93 103 39 q 104 264 104 172 q 104 431 104 356 l 104 486 q 104 651 104 560 q 103 824 104 743 q 53 894 103 878 l 31 903 l 31 917 l 383 917 l 383 903 l 363 894 q 313 824 313 876 q 312 783 313 804 q 311 743 311 763 l 393 743 q 687 672 597 743 q 776 478 776 601 q 741 337 776 400 q 618 236 706 274 q 372 199 531 199 l 311 199 q 312 147 311 172 q 313 93 313 121 q 363 22 313 39 l 383 14 l 383 0 l 31 0 m 310 226 l 383 226 q 526 283 475 226 q 576 474 576 339 q 529 663 576 610 q 382 715 482 715 l 311 715 q 310 601 310 658 q 310 486 310 543 l 310 226 z "},"Q":{"ha":931,"x_min":28,"x_max":903,"o":"m 465 -25 q 297 7 376 -25 l 236 -79 q 442 -127 326 -101 q 671 -176 558 -153 q 752 -187 725 -187 q 801 -172 779 -186 l 839 -149 l 850 -164 l 779 -240 q 719 -292 749 -272 q 654 -312 690 -312 q 571 -303 625 -312 q 450 -281 517 -294 q 317 -253 383 -268 q 196 -228 250 -239 q 156 -226 174 -222 q 121 -247 138 -229 l 104 -264 l 88 -251 l 263 24 q 94 184 161 75 q 28 458 28 293 q 64 668 28 578 q 163 819 100 758 q 303 910 225 879 q 465 942 382 942 q 628 912 550 942 q 769 822 707 882 q 867 670 831 761 q 903 458 903 579 q 867 249 903 340 q 769 98 831 158 q 628 6 707 38 q 465 -25 550 -25 m 465 4 q 589 45 542 4 q 658 185 636 86 q 679 458 679 285 q 658 733 679 633 q 589 873 636 832 q 465 914 542 914 q 343 873 390 914 q 274 733 296 832 q 253 458 253 633 q 274 185 253 285 q 343 45 296 86 q 465 4 390 4 z "},"R":{"ha":872,"x_min":31,"x_max":858,"o":"m 31 0 l 31 14 l 60 24 q 96 49 88 33 q 104 94 104 65 l 104 821 q 97 865 104 849 q 63 890 89 881 l 31 903 l 31 917 l 428 917 q 679 855 592 917 q 767 683 767 793 q 721 561 767 622 q 576 467 675 500 l 769 83 q 798 45 782 60 q 840 19 814 31 l 858 13 l 858 0 l 610 0 l 404 438 l 310 438 l 310 94 q 318 51 310 68 q 353 26 326 35 l 386 14 l 386 0 l 31 0 m 310 465 l 376 465 q 521 519 476 465 q 565 678 565 572 q 524 837 565 785 q 383 889 482 889 l 310 889 l 310 465 z "},"Ŕ":{"ha":872,"x_min":31,"x_max":858,"o":"m 31 0 l 31 14 l 60 24 q 96 49 88 33 q 104 94 104 65 l 104 821 q 97 865 104 849 q 63 890 89 881 l 31 903 l 31 917 l 428 917 q 679 855 592 917 q 767 683 767 793 q 721 561 767 622 q 576 467 675 500 l 769 83 q 798 45 782 60 q 840 19 814 31 l 858 13 l 858 0 l 610 0 l 404 438 l 310 438 l 310 94 q 318 51 310 68 q 353 26 326 35 l 386 14 l 386 0 l 31 0 m 310 465 l 376 465 q 521 519 476 465 q 565 678 565 572 q 524 837 565 785 q 383 889 482 889 l 310 889 l 310 465 m 272 1007 q 344 1081 308 1043 q 414 1154 381 1119 q 470 1204 449 1192 q 513 1217 492 1217 q 555 1201 539 1217 q 571 1161 571 1185 q 485 1078 571 1117 q 385 1035 433 1056 q 286 990 338 1014 l 272 1007 z "},"Ř":{"ha":872,"x_min":31,"x_max":858,"o":"m 31 0 l 31 14 l 60 24 q 96 49 88 33 q 104 94 104 65 l 104 821 q 97 865 104 849 q 63 890 89 881 l 31 903 l 31 917 l 428 917 q 679 855 592 917 q 767 683 767 793 q 721 561 767 622 q 576 467 675 500 l 769 83 q 798 45 782 60 q 840 19 814 31 l 858 13 l 858 0 l 610 0 l 404 438 l 310 438 l 310 94 q 318 51 310 68 q 353 26 326 35 l 386 14 l 386 0 l 31 0 m 310 465 l 376 465 q 521 519 476 465 q 565 678 565 572 q 524 837 565 785 q 383 889 482 889 l 310 889 l 310 465 m 368 996 l 158 1210 l 172 1226 l 378 1113 l 583 1226 l 597 1210 l 388 996 l 368 996 z "},"Ŗ":{"ha":872,"x_min":31,"x_max":858,"o":"m 31 0 l 31 14 l 60 24 q 96 49 88 33 q 104 94 104 65 l 104 821 q 97 865 104 849 q 63 890 89 881 l 31 903 l 31 917 l 428 917 q 679 855 592 917 q 767 683 767 793 q 721 561 767 622 q 576 467 675 500 l 769 83 q 798 45 782 60 q 840 19 814 31 l 858 13 l 858 0 l 610 0 l 404 438 l 310 438 l 310 94 q 318 51 310 68 q 353 26 326 35 l 386 14 l 386 0 l 31 0 m 310 465 l 376 465 q 521 519 476 465 q 565 678 565 572 q 524 837 565 785 q 383 889 482 889 l 310 889 l 310 465 m 356 -368 l 351 -353 q 428 -312 400 -333 q 471 -256 457 -290 q 394 -227 422 -253 q 367 -162 367 -201 q 394 -99 367 -124 q 461 -74 422 -74 q 533 -100 508 -74 q 558 -172 558 -126 q 531 -258 558 -219 q 457 -324 503 -296 q 356 -368 411 -351 z "},"S":{"ha":724,"x_min":42,"x_max":683,"o":"m 329 -25 q 174 -6 253 -25 q 42 43 94 13 l 49 232 l 63 232 l 106 142 q 147 73 125 103 q 208 26 169 43 q 262 8 236 13 q 319 3 288 3 q 453 49 404 3 q 503 167 503 94 q 469 273 503 235 q 363 347 436 311 l 306 372 q 119 494 186 425 q 51 676 51 563 q 94 818 51 758 q 212 910 136 878 q 389 942 288 942 q 528 922 463 942 q 643 869 594 903 l 635 703 l 621 703 l 564 807 q 517 876 540 856 q 463 904 493 896 q 429 912 444 910 q 390 914 414 914 q 271 873 319 914 q 222 763 222 832 q 260 649 222 692 q 369 574 297 607 l 433 546 q 625 422 567 488 q 683 251 683 356 q 591 52 683 129 q 329 -25 499 -25 z "},"Ś":{"ha":724,"x_min":42,"x_max":683,"o":"m 329 -25 q 174 -6 253 -25 q 42 43 94 13 l 49 232 l 63 232 l 106 142 q 147 73 125 103 q 208 26 169 43 q 262 8 236 13 q 319 3 288 3 q 453 49 404 3 q 503 167 503 94 q 469 273 503 235 q 363 347 436 311 l 306 372 q 119 494 186 425 q 51 676 51 563 q 94 818 51 758 q 212 910 136 878 q 389 942 288 942 q 528 922 463 942 q 643 869 594 903 l 635 703 l 621 703 l 564 807 q 517 876 540 856 q 463 904 493 896 q 429 912 444 910 q 390 914 414 914 q 271 873 319 914 q 222 763 222 832 q 260 649 222 692 q 369 574 297 607 l 433 546 q 625 422 567 488 q 683 251 683 356 q 591 52 683 129 q 329 -25 499 -25 m 258 1007 q 331 1081 294 1043 q 400 1154 367 1119 q 456 1204 435 1192 q 499 1217 478 1217 q 541 1201 525 1217 q 557 1161 557 1185 q 471 1078 557 1117 q 372 1035 419 1056 q 272 990 324 1014 l 258 1007 z "},"Š":{"ha":724,"x_min":42,"x_max":683,"o":"m 329 -25 q 174 -6 253 -25 q 42 43 94 13 l 49 232 l 63 232 l 106 142 q 147 73 125 103 q 208 26 169 43 q 262 8 236 13 q 319 3 288 3 q 453 49 404 3 q 503 167 503 94 q 469 273 503 235 q 363 347 436 311 l 306 372 q 119 494 186 425 q 51 676 51 563 q 94 818 51 758 q 212 910 136 878 q 389 942 288 942 q 528 922 463 942 q 643 869 594 903 l 635 703 l 621 703 l 564 807 q 517 876 540 856 q 463 904 493 896 q 429 912 444 910 q 390 914 414 914 q 271 873 319 914 q 222 763 222 832 q 260 649 222 692 q 369 574 297 607 l 433 546 q 625 422 567 488 q 683 251 683 356 q 591 52 683 129 q 329 -25 499 -25 m 354 996 l 144 1210 l 158 1226 l 364 1113 l 569 1226 l 583 1210 l 374 996 l 354 996 z "},"Ş":{"ha":724,"x_min":42,"x_max":683,"o":"m 329 -25 q 174 -6 253 -25 q 42 43 94 13 l 49 232 l 63 232 l 106 142 q 147 73 125 103 q 208 26 169 43 q 262 8 236 13 q 319 3 288 3 q 453 49 404 3 q 503 167 503 94 q 469 273 503 235 q 363 347 436 311 l 306 372 q 119 494 186 425 q 51 676 51 563 q 94 818 51 758 q 212 910 136 878 q 389 942 288 942 q 528 922 463 942 q 643 869 594 903 l 635 703 l 621 703 l 564 807 q 517 876 540 856 q 463 904 493 896 q 429 912 444 910 q 390 914 414 914 q 271 873 319 914 q 222 763 222 832 q 260 649 222 692 q 369 574 297 607 l 433 546 q 625 422 567 488 q 683 251 683 356 q 591 52 683 129 q 329 -25 499 -25 m 303 -118 l 321 3 l 350 3 l 342 -65 q 464 -107 424 -75 q 504 -186 504 -139 q 460 -272 504 -237 q 325 -307 415 -307 q 267 -302 292 -307 q 221 -290 243 -297 l 226 -267 q 300 -279 267 -279 q 360 -256 339 -279 q 382 -193 382 -233 q 360 -142 382 -160 q 303 -118 339 -124 z "},"Ș":{"ha":724,"x_min":42,"x_max":683,"o":"m 329 -25 q 174 -6 253 -25 q 42 43 94 13 l 49 232 l 63 232 l 106 142 q 147 73 125 103 q 208 26 169 43 q 262 8 236 13 q 319 3 288 3 q 453 49 404 3 q 503 167 503 94 q 469 273 503 235 q 363 347 436 311 l 306 372 q 119 494 186 425 q 51 676 51 563 q 94 818 51 758 q 212 910 136 878 q 389 942 288 942 q 528 922 463 942 q 643 869 594 903 l 635 703 l 621 703 l 564 807 q 517 876 540 856 q 463 904 493 896 q 429 912 444 910 q 390 914 414 914 q 271 873 319 914 q 222 763 222 832 q 260 649 222 692 q 369 574 297 607 l 433 546 q 625 422 567 488 q 683 251 683 356 q 591 52 683 129 q 329 -25 499 -25 m 238 -368 l 233 -353 q 310 -312 282 -333 q 353 -256 339 -290 q 276 -227 304 -253 q 249 -162 249 -201 q 276 -99 249 -124 q 343 -74 304 -74 q 415 -100 390 -74 q 440 -172 440 -126 q 413 -258 440 -219 q 339 -324 385 -296 q 238 -368 293 -351 z "},"T":{"ha":871,"x_min":28,"x_max":842,"o":"m 217 0 l 217 14 l 274 28 q 331 97 331 40 l 331 889 l 213 889 q 139 862 161 889 q 92 788 117 835 l 42 690 l 28 690 l 35 917 l 836 917 l 842 690 l 828 690 l 778 788 q 732 862 754 835 q 658 889 710 889 l 540 889 l 540 97 q 597 28 540 40 l 654 14 l 654 0 l 217 0 z "},"Ť":{"ha":871,"x_min":28,"x_max":842,"o":"m 217 0 l 217 14 l 274 28 q 331 97 331 40 l 331 889 l 213 889 q 139 862 161 889 q 92 788 117 835 l 42 690 l 28 690 l 35 917 l 836 917 l 842 690 l 828 690 l 778 788 q 732 862 754 835 q 658 889 710 889 l 540 889 l 540 97 q 597 28 540 40 l 654 14 l 654 0 l 217 0 m 425 996 l 215 1210 l 229 1226 l 435 1113 l 640 1226 l 654 1210 l 444 996 l 425 996 z "},"Ţ":{"ha":871,"x_min":28,"x_max":842,"o":"m 217 0 l 217 14 l 274 28 q 331 97 331 40 l 331 889 l 213 889 q 139 862 161 889 q 92 788 117 835 l 42 690 l 28 690 l 35 917 l 836 917 l 842 690 l 828 690 l 778 788 q 732 862 754 835 q 658 889 710 889 l 540 889 l 540 97 q 597 28 540 40 l 654 14 l 654 0 l 217 0 m 399 -118 l 417 3 l 446 3 l 438 -65 q 560 -107 519 -75 q 600 -186 600 -139 q 556 -272 600 -237 q 421 -307 511 -307 q 363 -302 388 -307 q 317 -290 339 -297 l 322 -267 q 396 -279 363 -279 q 456 -256 435 -279 q 478 -193 478 -233 q 456 -142 478 -160 q 399 -118 435 -124 z "},"Ț":{"ha":871,"x_min":28,"x_max":842,"o":"m 217 0 l 217 14 l 274 28 q 331 97 331 40 l 331 889 l 213 889 q 139 862 161 889 q 92 788 117 835 l 42 690 l 28 690 l 35 917 l 836 917 l 842 690 l 828 690 l 778 788 q 732 862 754 835 q 658 889 710 889 l 540 889 l 540 97 q 597 28 540 40 l 654 14 l 654 0 l 217 0 m 331 -368 l 326 -353 q 403 -312 375 -333 q 446 -256 432 -290 q 369 -227 397 -253 q 342 -162 342 -201 q 369 -99 342 -124 q 436 -74 397 -74 q 508 -100 483 -74 q 533 -172 533 -126 q 506 -258 533 -219 q 432 -324 478 -296 q 331 -368 386 -351 z "},"U":{"ha":901,"x_min":28,"x_max":874,"o":"m 471 -25 q 284 13 365 -25 q 158 131 203 50 q 113 346 113 213 l 113 825 q 58 894 113 878 l 28 903 l 28 917 l 413 917 l 413 903 l 372 892 q 321 822 321 879 l 321 310 q 375 119 321 181 q 531 57 429 57 q 698 122 636 57 q 760 307 760 188 l 760 817 q 751 866 760 844 q 714 894 742 888 l 679 903 l 679 917 l 874 917 l 874 903 l 836 893 q 801 867 810 888 q 793 818 793 846 l 793 310 q 753 133 793 208 q 640 16 713 57 q 471 -25 568 -25 z "},"Ú":{"ha":901,"x_min":28,"x_max":874,"o":"m 471 -25 q 284 13 365 -25 q 158 131 203 50 q 113 346 113 213 l 113 825 q 58 894 113 878 l 28 903 l 28 917 l 413 917 l 413 903 l 372 892 q 321 822 321 879 l 321 310 q 375 119 321 181 q 531 57 429 57 q 698 122 636 57 q 760 307 760 188 l 760 817 q 751 866 760 844 q 714 894 742 888 l 679 903 l 679 917 l 874 917 l 874 903 l 836 893 q 801 867 810 888 q 793 818 793 846 l 793 310 q 753 133 793 208 q 640 16 713 57 q 471 -25 568 -25 m 450 1007 q 522 1081 486 1043 q 592 1154 558 1119 q 648 1204 626 1192 q 690 1217 669 1217 q 733 1201 717 1217 q 749 1161 749 1185 q 663 1078 749 1117 q 563 1035 611 1056 q 464 990 515 1014 l 450 1007 z "},"Û":{"ha":901,"x_min":28,"x_max":874,"o":"m 471 -25 q 284 13 365 -25 q 158 131 203 50 q 113 346 113 213 l 113 825 q 58 894 113 878 l 28 903 l 28 917 l 413 917 l 413 903 l 372 892 q 321 822 321 879 l 321 310 q 375 119 321 181 q 531 57 429 57 q 698 122 636 57 q 760 307 760 188 l 760 817 q 751 866 760 844 q 714 894 742 888 l 679 903 l 679 917 l 874 917 l 874 903 l 836 893 q 801 867 810 888 q 793 818 793 846 l 793 310 q 753 133 793 208 q 640 16 713 57 q 471 -25 568 -25 m 350 964 l 336 981 l 546 1208 l 565 1208 l 775 981 l 761 964 l 556 1078 l 350 964 z "},"Ü":{"ha":901,"x_min":28,"x_max":874,"o":"m 471 -25 q 284 13 365 -25 q 158 131 203 50 q 113 346 113 213 l 113 825 q 58 894 113 878 l 28 903 l 28 917 l 413 917 l 413 903 l 372 892 q 321 822 321 879 l 321 310 q 375 119 321 181 q 531 57 429 57 q 698 122 636 57 q 760 307 760 188 l 760 817 q 751 866 760 844 q 714 894 742 888 l 679 903 l 679 917 l 874 917 l 874 903 l 836 893 q 801 867 810 888 q 793 818 793 846 l 793 310 q 753 133 793 208 q 640 16 713 57 q 471 -25 568 -25 m 386 1000 q 319 1024 349 1000 q 289 1092 289 1049 q 319 1159 289 1135 q 386 1183 349 1183 q 455 1159 426 1183 q 483 1092 483 1135 q 455 1024 483 1049 q 386 1000 426 1000 m 724 1000 q 657 1024 686 1000 q 628 1092 628 1049 q 657 1159 628 1135 q 724 1183 686 1183 q 792 1159 764 1183 q 821 1092 821 1135 q 792 1024 821 1049 q 724 1000 764 1000 z "},"Ù":{"ha":901,"x_min":28,"x_max":874,"o":"m 471 -25 q 284 13 365 -25 q 158 131 203 50 q 113 346 113 213 l 113 825 q 58 894 113 878 l 28 903 l 28 917 l 413 917 l 413 903 l 372 892 q 321 822 321 879 l 321 310 q 375 119 321 181 q 531 57 429 57 q 698 122 636 57 q 760 307 760 188 l 760 817 q 751 866 760 844 q 714 894 742 888 l 679 903 l 679 917 l 874 917 l 874 903 l 836 893 q 801 867 810 888 q 793 818 793 846 l 793 310 q 753 133 793 208 q 640 16 713 57 q 471 -25 568 -25 m 649 990 q 550 1035 597 1014 q 450 1078 503 1056 q 364 1161 364 1117 q 380 1201 364 1185 q 422 1217 396 1217 q 465 1204 443 1217 q 521 1154 486 1192 q 590 1081 554 1119 q 663 1007 626 1043 l 649 990 z "},"Ű":{"ha":901,"x_min":28,"x_max":874,"o":"m 471 -25 q 284 13 365 -25 q 158 131 203 50 q 113 346 113 213 l 113 825 q 58 894 113 878 l 28 903 l 28 917 l 413 917 l 413 903 l 372 892 q 321 822 321 879 l 321 310 q 375 119 321 181 q 531 57 429 57 q 698 122 636 57 q 760 307 760 188 l 760 817 q 751 866 760 844 q 714 894 742 888 l 679 903 l 679 917 l 874 917 l 874 903 l 836 893 q 801 867 810 888 q 793 818 793 846 l 793 310 q 753 133 793 208 q 640 16 713 57 q 471 -25 568 -25 m 628 982 l 617 990 l 682 1178 q 750 1242 706 1242 q 792 1226 778 1242 q 807 1186 807 1211 q 775 1125 807 1157 l 628 982 m 410 982 l 397 990 l 464 1178 q 532 1242 488 1242 q 574 1226 560 1242 q 589 1186 589 1211 q 557 1125 589 1157 l 410 982 z "},"Ū":{"ha":901,"x_min":28,"x_max":874,"o":"m 471 -25 q 284 13 365 -25 q 158 131 203 50 q 113 346 113 213 l 113 825 q 58 894 113 878 l 28 903 l 28 917 l 413 917 l 413 903 l 372 892 q 321 822 321 879 l 321 310 q 375 119 321 181 q 531 57 429 57 q 698 122 636 57 q 760 307 760 188 l 760 817 q 751 866 760 844 q 714 894 742 888 l 679 903 l 679 917 l 874 917 l 874 903 l 836 893 q 801 867 810 888 q 793 818 793 846 l 793 310 q 753 133 793 208 q 640 16 713 57 q 471 -25 568 -25 m 336 1067 l 336 1101 l 775 1101 l 775 1067 l 336 1067 z "},"Ų":{"ha":901,"x_min":28,"x_max":874,"o":"m 471 -25 q 284 13 365 -25 q 158 131 203 50 q 113 346 113 213 l 113 825 q 58 894 113 878 l 28 903 l 28 917 l 413 917 l 413 903 l 372 892 q 321 822 321 879 l 321 310 q 375 119 321 181 q 531 57 429 57 q 698 122 636 57 q 760 307 760 188 l 760 817 q 751 866 760 844 q 714 894 742 888 l 679 903 l 679 917 l 874 917 l 874 903 l 836 893 q 801 867 810 888 q 793 818 793 846 l 793 310 q 753 133 793 208 q 640 16 713 57 q 471 -25 568 -25 m 567 -311 q 463 -278 503 -311 q 424 -187 424 -244 q 452 -103 424 -143 q 524 -32 481 -62 q 611 14 568 -1 l 635 14 q 566 -52 592 -12 q 540 -136 540 -92 q 569 -208 540 -181 q 644 -236 599 -236 q 693 -227 671 -236 q 732 -208 715 -218 l 742 -224 q 666 -285 711 -258 q 567 -311 621 -311 z "},"Ů":{"ha":901,"x_min":28,"x_max":874,"o":"m 471 -25 q 284 13 365 -25 q 158 131 203 50 q 113 346 113 213 l 113 825 q 58 894 113 878 l 28 903 l 28 917 l 413 917 l 413 903 l 372 892 q 321 822 321 879 l 321 310 q 375 119 321 181 q 531 57 429 57 q 698 122 636 57 q 760 307 760 188 l 760 817 q 751 866 760 844 q 714 894 742 888 l 679 903 l 679 917 l 874 917 l 874 903 l 836 893 q 801 867 810 888 q 793 818 793 846 l 793 310 q 753 133 793 208 q 640 16 713 57 q 471 -25 568 -25 m 556 981 q 456 1017 499 981 q 414 1115 414 1053 q 456 1215 414 1178 q 556 1251 499 1251 q 655 1216 613 1251 q 697 1115 697 1181 q 655 1016 697 1051 q 556 981 613 981 m 556 1017 q 625 1045 600 1017 q 650 1115 650 1074 q 625 1186 650 1157 q 556 1215 600 1215 q 487 1186 513 1215 q 461 1115 461 1157 q 487 1045 461 1074 q 556 1017 513 1017 z "},"V":{"ha":878,"x_min":-6,"x_max":871,"o":"m 394 -4 l 97 824 q 72 867 88 851 q 28 892 56 883 l -6 903 l -6 917 l 394 917 l 394 903 l 351 890 q 316 861 319 882 q 322 810 313 840 l 528 200 l 735 811 q 745 864 746 843 q 713 893 744 885 l 676 903 l 676 917 l 871 917 l 871 903 l 833 892 q 796 867 807 885 q 775 822 785 850 l 497 -4 l 394 -4 z "},"W":{"ha":1279,"x_min":6,"x_max":1267,"o":"m 328 -4 l 82 822 q 61 869 72 854 q 22 896 50 883 l 6 903 l 6 917 l 374 917 l 374 903 l 344 892 q 301 861 313 879 q 300 811 290 843 l 451 233 l 615 718 l 583 817 q 565 861 574 846 q 538 886 557 876 l 507 903 l 507 917 l 856 917 l 856 903 l 813 886 q 781 858 785 876 q 788 810 778 839 l 964 219 l 1131 799 q 1138 857 1140 832 q 1103 893 1135 882 l 1074 903 l 1074 917 l 1267 917 l 1267 903 l 1231 889 q 1192 858 1203 879 q 1172 807 1181 838 l 942 -4 l 846 -4 l 638 649 l 424 -4 l 328 -4 z "},"X":{"ha":853,"x_min":6,"x_max":847,"o":"m 14 0 l 14 14 l 38 21 q 83 47 67 31 q 117 88 100 63 l 331 418 l 88 832 q 64 869 74 856 q 28 893 54 882 l 6 903 l 6 917 l 378 917 l 378 903 l 346 893 q 314 863 317 883 q 328 813 311 842 l 471 569 l 624 811 q 645 864 642 840 q 617 896 649 888 l 589 903 l 589 917 l 782 917 l 782 903 l 746 892 q 705 869 719 885 q 675 829 690 853 l 489 539 l 753 88 q 782 49 768 63 q 821 25 796 36 l 847 14 l 847 0 l 458 0 l 458 14 l 490 22 q 528 53 524 31 q 514 104 532 75 l 349 386 l 167 99 q 152 49 149 71 q 182 19 156 26 l 201 14 l 201 0 l 14 0 z "},"Y":{"ha":819,"x_min":11,"x_max":810,"o":"m 229 0 l 229 14 l 271 25 q 319 94 319 39 l 319 358 l 90 825 q 67 867 78 853 q 36 890 57 881 l 11 903 l 11 917 l 383 917 l 383 903 l 358 893 q 325 859 328 881 q 336 806 322 838 l 500 442 l 683 819 q 692 865 694 842 q 663 896 690 889 l 643 903 l 643 917 l 810 917 l 810 903 l 783 893 q 744 866 757 883 q 719 822 732 849 l 529 422 l 529 94 q 540 49 529 67 q 576 25 550 32 l 619 14 l 619 0 l 229 0 z "},"Ý":{"ha":819,"x_min":11,"x_max":810,"o":"m 229 0 l 229 14 l 271 25 q 319 94 319 39 l 319 358 l 90 825 q 67 867 78 853 q 36 890 57 881 l 11 903 l 11 917 l 383 917 l 383 903 l 358 893 q 325 859 328 881 q 336 806 322 838 l 500 442 l 683 819 q 692 865 694 842 q 663 896 690 889 l 643 903 l 643 917 l 810 917 l 810 903 l 783 893 q 744 866 757 883 q 719 822 732 849 l 529 422 l 529 94 q 540 49 529 67 q 576 25 550 32 l 619 14 l 619 0 l 229 0 m 363 1007 q 435 1081 399 1043 q 504 1154 471 1119 q 560 1204 539 1192 q 603 1217 582 1217 q 645 1201 629 1217 q 661 1161 661 1185 q 575 1078 661 1117 q 476 1035 524 1056 q 376 990 428 1014 l 363 1007 z "},"Ÿ":{"ha":819,"x_min":11,"x_max":810,"o":"m 229 0 l 229 14 l 271 25 q 319 94 319 39 l 319 358 l 90 825 q 67 867 78 853 q 36 890 57 881 l 11 903 l 11 917 l 383 917 l 383 903 l 358 893 q 325 859 328 881 q 336 806 322 838 l 500 442 l 683 819 q 692 865 694 842 q 663 896 690 889 l 643 903 l 643 917 l 810 917 l 810 903 l 783 893 q 744 866 757 883 q 719 822 732 849 l 529 422 l 529 94 q 540 49 529 67 q 576 25 550 32 l 619 14 l 619 0 l 229 0 m 299 1000 q 231 1024 261 1000 q 201 1092 201 1049 q 231 1159 201 1135 q 299 1183 261 1183 q 367 1159 339 1183 q 396 1092 396 1135 q 367 1024 396 1049 q 299 1000 339 1000 m 636 1000 q 569 1024 599 1000 q 540 1092 540 1049 q 569 1159 540 1135 q 636 1183 599 1183 q 705 1159 676 1183 q 733 1092 733 1135 q 705 1024 733 1049 q 636 1000 676 1000 z "},"Z":{"ha":778,"x_min":28,"x_max":749,"o":"m 28 0 l 28 17 l 510 889 l 246 889 q 172 868 200 889 q 121 807 143 847 l 57 694 l 43 694 l 53 917 l 732 917 l 732 900 l 250 28 l 553 28 q 626 49 599 28 q 675 111 653 71 l 735 222 l 749 222 l 739 0 l 28 0 z "},"Ź":{"ha":778,"x_min":28,"x_max":749,"o":"m 28 0 l 28 17 l 510 889 l 246 889 q 172 868 200 889 q 121 807 143 847 l 57 694 l 43 694 l 53 917 l 732 917 l 732 900 l 250 28 l 553 28 q 626 49 599 28 q 675 111 653 71 l 735 222 l 749 222 l 739 0 l 28 0 m 300 1007 q 372 1081 336 1043 q 442 1154 408 1119 q 498 1204 476 1192 q 540 1217 519 1217 q 583 1201 567 1217 q 599 1161 599 1185 q 513 1078 599 1117 q 413 1035 461 1056 q 314 990 365 1014 l 300 1007 z "},"Ž":{"ha":778,"x_min":28,"x_max":749,"o":"m 28 0 l 28 17 l 510 889 l 246 889 q 172 868 200 889 q 121 807 143 847 l 57 694 l 43 694 l 53 917 l 732 917 l 732 900 l 250 28 l 553 28 q 626 49 599 28 q 675 111 653 71 l 735 222 l 749 222 l 739 0 l 28 0 m 396 996 l 186 1210 l 200 1226 l 406 1113 l 611 1226 l 625 1210 l 415 996 l 396 996 z "},"Ż":{"ha":778,"x_min":28,"x_max":749,"o":"m 28 0 l 28 17 l 510 889 l 246 889 q 172 868 200 889 q 121 807 143 847 l 57 694 l 43 694 l 53 917 l 732 917 l 732 900 l 250 28 l 553 28 q 626 49 599 28 q 675 111 653 71 l 735 222 l 749 222 l 739 0 l 28 0 m 406 994 q 326 1024 358 994 q 293 1099 293 1053 q 326 1175 293 1146 q 406 1204 358 1204 q 485 1175 453 1204 q 518 1099 518 1146 q 485 1024 518 1053 q 406 994 453 994 z "},"a":{"ha":719,"x_min":40,"x_max":718,"o":"m 231 -21 q 95 25 150 -21 q 40 157 40 71 q 107 277 40 222 q 317 360 174 332 q 367 369 339 364 q 425 379 394 374 l 425 489 q 402 622 425 583 q 331 660 379 660 q 278 638 297 660 q 253 564 258 617 l 250 549 q 221 461 247 489 q 156 433 194 433 q 96 456 119 433 q 72 515 72 478 q 112 611 72 572 q 217 669 151 650 q 358 689 282 689 q 549 628 482 689 q 617 432 617 568 l 617 125 q 675 63 617 63 l 706 63 l 718 51 q 660 0 692 18 q 572 -18 629 -18 q 476 10 511 -18 q 429 86 440 39 q 344 10 388 42 q 231 -21 300 -21 m 315 64 q 367 77 343 64 q 425 118 392 90 l 425 351 q 397 346 411 349 q 365 340 383 343 q 263 284 301 324 q 225 178 225 244 q 251 92 225 121 q 315 64 278 64 z "},"á":{"ha":719,"x_min":40,"x_max":718,"o":"m 231 -21 q 95 25 150 -21 q 40 157 40 71 q 107 277 40 222 q 317 360 174 332 q 367 369 339 364 q 425 379 394 374 l 425 489 q 402 622 425 583 q 331 660 379 660 q 278 638 297 660 q 253 564 258 617 l 250 549 q 221 461 247 489 q 156 433 194 433 q 96 456 119 433 q 72 515 72 478 q 112 611 72 572 q 217 669 151 650 q 358 689 282 689 q 549 628 482 689 q 617 432 617 568 l 617 125 q 675 63 617 63 l 706 63 l 718 51 q 660 0 692 18 q 572 -18 629 -18 q 476 10 511 -18 q 429 86 440 39 q 344 10 388 42 q 231 -21 300 -21 m 315 64 q 367 77 343 64 q 425 118 392 90 l 425 351 q 397 346 411 349 q 365 340 383 343 q 263 284 301 324 q 225 178 225 244 q 251 92 225 121 q 315 64 278 64 m 274 796 q 318 877 293 832 q 378 988 343 922 q 424 1052 401 1032 q 475 1072 446 1072 q 521 1055 501 1072 q 540 1013 540 1038 q 522 963 540 986 q 461 910 504 940 q 361 837 401 868 q 289 782 321 806 l 274 796 z "},"ă":{"ha":719,"x_min":40,"x_max":718,"o":"m 231 -21 q 95 25 150 -21 q 40 157 40 71 q 107 277 40 222 q 317 360 174 332 q 367 369 339 364 q 425 379 394 374 l 425 489 q 402 622 425 583 q 331 660 379 660 q 278 638 297 660 q 253 564 258 617 l 250 549 q 221 461 247 489 q 156 433 194 433 q 96 456 119 433 q 72 515 72 478 q 112 611 72 572 q 217 669 151 650 q 358 689 282 689 q 549 628 482 689 q 617 432 617 568 l 617 125 q 675 63 617 63 l 706 63 l 718 51 q 660 0 692 18 q 572 -18 629 -18 q 476 10 511 -18 q 429 86 440 39 q 344 10 388 42 q 231 -21 300 -21 m 315 64 q 367 77 343 64 q 425 118 392 90 l 425 351 q 397 346 411 349 q 365 340 383 343 q 263 284 301 324 q 225 178 225 244 q 251 92 225 121 q 315 64 278 64 m 354 789 q 239 822 283 789 q 172 906 194 856 q 146 1006 150 957 l 172 1015 q 240 933 196 967 q 354 899 283 899 q 469 933 425 899 q 536 1015 513 967 l 563 1006 q 536 906 558 957 q 470 822 514 856 q 354 789 426 789 z "},"â":{"ha":719,"x_min":40,"x_max":718,"o":"m 231 -21 q 95 25 150 -21 q 40 157 40 71 q 107 277 40 222 q 317 360 174 332 q 367 369 339 364 q 425 379 394 374 l 425 489 q 402 622 425 583 q 331 660 379 660 q 278 638 297 660 q 253 564 258 617 l 250 549 q 221 461 247 489 q 156 433 194 433 q 96 456 119 433 q 72 515 72 478 q 112 611 72 572 q 217 669 151 650 q 358 689 282 689 q 549 628 482 689 q 617 432 617 568 l 617 125 q 675 63 617 63 l 706 63 l 718 51 q 660 0 692 18 q 572 -18 629 -18 q 476 10 511 -18 q 429 86 440 39 q 344 10 388 42 q 231 -21 300 -21 m 315 64 q 367 77 343 64 q 425 118 392 90 l 425 351 q 397 346 411 349 q 365 340 383 343 q 263 284 301 324 q 225 178 225 244 q 251 92 225 121 q 315 64 278 64 m 165 757 l 147 774 l 344 1043 l 364 1043 l 561 774 l 543 757 l 354 904 l 165 757 z "},"ä":{"ha":719,"x_min":40,"x_max":718,"o":"m 231 -21 q 95 25 150 -21 q 40 157 40 71 q 107 277 40 222 q 317 360 174 332 q 367 369 339 364 q 425 379 394 374 l 425 489 q 402 622 425 583 q 331 660 379 660 q 278 638 297 660 q 253 564 258 617 l 250 549 q 221 461 247 489 q 156 433 194 433 q 96 456 119 433 q 72 515 72 478 q 112 611 72 572 q 217 669 151 650 q 358 689 282 689 q 549 628 482 689 q 617 432 617 568 l 617 125 q 675 63 617 63 l 706 63 l 718 51 q 660 0 692 18 q 572 -18 629 -18 q 476 10 511 -18 q 429 86 440 39 q 344 10 388 42 q 231 -21 300 -21 m 315 64 q 367 77 343 64 q 425 118 392 90 l 425 351 q 397 346 411 349 q 365 340 383 343 q 263 284 301 324 q 225 178 225 244 q 251 92 225 121 q 315 64 278 64 m 515 806 q 445 831 476 806 q 414 901 414 857 q 445 972 414 946 q 515 997 476 997 q 587 972 557 997 q 617 901 617 946 q 587 831 617 857 q 515 806 557 806 m 193 806 q 122 831 153 806 q 92 901 92 857 q 122 972 92 946 q 193 997 153 997 q 264 972 233 997 q 294 901 294 946 q 264 831 294 857 q 193 806 233 806 z "},"à":{"ha":719,"x_min":40,"x_max":718,"o":"m 231 -21 q 95 25 150 -21 q 40 157 40 71 q 107 277 40 222 q 317 360 174 332 q 367 369 339 364 q 425 379 394 374 l 425 489 q 402 622 425 583 q 331 660 379 660 q 278 638 297 660 q 253 564 258 617 l 250 549 q 221 461 247 489 q 156 433 194 433 q 96 456 119 433 q 72 515 72 478 q 112 611 72 572 q 217 669 151 650 q 358 689 282 689 q 549 628 482 689 q 617 432 617 568 l 617 125 q 675 63 617 63 l 706 63 l 718 51 q 660 0 692 18 q 572 -18 629 -18 q 476 10 511 -18 q 429 86 440 39 q 344 10 388 42 q 231 -21 300 -21 m 315 64 q 367 77 343 64 q 425 118 392 90 l 425 351 q 397 346 411 349 q 365 340 383 343 q 263 284 301 324 q 225 178 225 244 q 251 92 225 121 q 315 64 278 64 m 408 782 q 337 837 378 806 q 238 910 296 868 q 176 963 194 940 q 157 1013 157 986 q 177 1055 157 1038 q 224 1072 197 1072 q 274 1052 251 1072 q 319 988 297 1032 q 379 877 354 922 q 425 796 404 832 l 408 782 z "},"ā":{"ha":719,"x_min":40,"x_max":718,"o":"m 231 -21 q 95 25 150 -21 q 40 157 40 71 q 107 277 40 222 q 317 360 174 332 q 367 369 339 364 q 425 379 394 374 l 425 489 q 402 622 425 583 q 331 660 379 660 q 278 638 297 660 q 253 564 258 617 l 250 549 q 221 461 247 489 q 156 433 194 433 q 96 456 119 433 q 72 515 72 478 q 112 611 72 572 q 217 669 151 650 q 358 689 282 689 q 549 628 482 689 q 617 432 617 568 l 617 125 q 675 63 617 63 l 706 63 l 718 51 q 660 0 692 18 q 572 -18 629 -18 q 476 10 511 -18 q 429 86 440 39 q 344 10 388 42 q 231 -21 300 -21 m 315 64 q 367 77 343 64 q 425 118 392 90 l 425 351 q 397 346 411 349 q 365 340 383 343 q 263 284 301 324 q 225 178 225 244 q 251 92 225 121 q 315 64 278 64 m 142 857 l 142 888 l 567 888 l 567 857 l 142 857 z "},"ą":{"ha":719,"x_min":40,"x_max":799,"o":"m 231 -21 q 95 25 150 -21 q 40 157 40 71 q 107 277 40 222 q 317 360 174 332 q 367 369 339 364 q 425 379 394 374 l 425 489 q 402 622 425 583 q 331 660 379 660 q 278 638 297 660 q 253 564 258 617 l 250 549 q 221 461 247 489 q 156 433 194 433 q 96 456 119 433 q 72 515 72 478 q 112 611 72 572 q 217 669 151 650 q 358 689 282 689 q 549 628 482 689 q 617 432 617 568 l 617 125 q 675 63 617 63 l 706 63 l 718 51 q 660 0 692 18 q 572 -18 629 -18 q 476 10 511 -18 q 429 86 440 39 q 344 10 388 42 q 231 -21 300 -21 m 315 64 q 367 77 343 64 q 425 118 392 90 l 425 351 q 397 346 411 349 q 365 340 383 343 q 263 284 301 324 q 225 178 225 244 q 251 92 225 121 q 315 64 278 64 m 624 -303 q 520 -269 560 -303 q 481 -179 481 -236 q 509 -94 481 -135 q 581 -24 538 -54 q 668 22 625 7 l 692 22 q 623 -44 649 -4 q 597 -128 597 -83 q 626 -200 597 -172 q 701 -228 656 -228 q 750 -219 728 -228 q 789 -200 772 -210 l 799 -215 q 723 -276 768 -250 q 624 -303 678 -303 z "},"å":{"ha":719,"x_min":40,"x_max":718,"o":"m 231 -21 q 95 25 150 -21 q 40 157 40 71 q 107 277 40 222 q 317 360 174 332 q 367 369 339 364 q 425 379 394 374 l 425 489 q 402 622 425 583 q 331 660 379 660 q 278 638 297 660 q 253 564 258 617 l 250 549 q 221 461 247 489 q 156 433 194 433 q 96 456 119 433 q 72 515 72 478 q 112 611 72 572 q 217 669 151 650 q 358 689 282 689 q 549 628 482 689 q 617 432 617 568 l 617 125 q 675 63 617 63 l 706 63 l 718 51 q 660 0 692 18 q 572 -18 629 -18 q 476 10 511 -18 q 429 86 440 39 q 344 10 388 42 q 231 -21 300 -21 m 315 64 q 367 77 343 64 q 425 118 392 90 l 425 351 q 397 346 411 349 q 365 340 383 343 q 263 284 301 324 q 225 178 225 244 q 251 92 225 121 q 315 64 278 64 m 354 767 q 240 808 288 767 q 192 922 192 850 q 240 1035 192 993 q 354 1076 288 1076 q 469 1036 421 1076 q 517 922 517 996 q 469 808 517 850 q 354 767 421 767 m 354 800 q 415 828 394 800 q 436 922 436 857 q 415 1016 436 988 q 354 1044 394 1044 q 294 1016 315 1044 q 272 922 272 988 q 294 828 272 857 q 354 800 315 800 z "},"ã":{"ha":719,"x_min":40,"x_max":718,"o":"m 231 -21 q 95 25 150 -21 q 40 157 40 71 q 107 277 40 222 q 317 360 174 332 q 367 369 339 364 q 425 379 394 374 l 425 489 q 402 622 425 583 q 331 660 379 660 q 278 638 297 660 q 253 564 258 617 l 250 549 q 221 461 247 489 q 156 433 194 433 q 96 456 119 433 q 72 515 72 478 q 112 611 72 572 q 217 669 151 650 q 358 689 282 689 q 549 628 482 689 q 617 432 617 568 l 617 125 q 675 63 617 63 l 706 63 l 718 51 q 660 0 692 18 q 572 -18 629 -18 q 476 10 511 -18 q 429 86 440 39 q 344 10 388 42 q 231 -21 300 -21 m 315 64 q 367 77 343 64 q 425 118 392 90 l 425 351 q 397 346 411 349 q 365 340 383 343 q 263 284 301 324 q 225 178 225 244 q 251 92 225 121 q 315 64 278 64 m 122 813 q 170 953 133 903 q 263 1003 207 1003 q 322 991 299 1003 q 365 961 344 979 q 409 922 388 940 q 457 903 431 903 q 522 928 494 903 q 565 996 549 953 l 586 989 q 539 849 575 900 q 447 797 503 797 q 388 809 413 797 q 343 839 363 821 q 300 877 322 858 q 250 896 278 896 q 186 872 213 896 q 143 806 160 847 l 122 813 z "},"æ":{"ha":1090,"x_min":40,"x_max":1049,"o":"m 231 -21 q 95 25 150 -21 q 40 157 40 71 q 107 277 40 222 q 317 360 174 332 q 367 369 339 364 q 425 379 394 374 l 425 486 q 401 622 425 585 q 332 660 376 660 q 276 640 293 658 q 256 583 258 621 l 250 549 q 221 461 247 489 q 156 433 194 433 q 96 456 119 433 q 72 515 72 478 q 112 611 72 572 q 217 669 151 650 q 358 689 282 689 q 474 670 424 689 q 553 607 524 651 q 653 669 599 649 q 764 689 707 689 q 917 652 854 689 q 1015 552 981 615 q 1049 408 1049 489 q 1047 377 1049 393 q 1042 349 1046 361 l 628 349 q 686 135 631 203 q 843 67 742 67 q 951 89 908 67 q 1029 154 993 111 l 1043 142 q 928 22 1000 65 q 757 -21 857 -21 q 592 17 664 -21 q 476 125 519 54 q 353 17 408 54 q 231 -21 299 -21 m 629 376 l 865 376 q 853 583 878 504 q 758 661 829 661 q 696 637 725 661 q 649 551 667 613 q 629 376 632 489 m 315 64 q 379 81 343 64 q 464 150 415 97 q 435 234 444 188 q 425 332 425 281 l 425 351 q 365 340 401 346 q 263 284 301 324 q 225 178 225 244 q 251 92 225 121 q 315 64 278 64 z "},"b":{"ha":807,"x_min":31,"x_max":774,"o":"m 265 -18 l 31 0 l 31 14 l 44 17 q 99 86 99 29 l 99 829 q 90 874 99 858 q 53 894 81 889 l 33 900 l 33 914 l 281 974 l 297 961 l 292 765 l 292 625 q 392 673 338 657 q 501 689 446 689 q 642 652 581 689 q 738 538 703 615 q 774 340 774 461 q 734 140 774 219 q 628 19 694 60 q 483 -21 563 -21 q 380 -7 432 -21 q 288 32 328 7 l 265 -18 m 414 26 q 492 54 458 26 q 544 149 525 82 q 564 335 564 217 q 546 517 564 453 q 495 606 528 581 q 417 631 463 631 q 296 594 351 631 l 296 61 q 350 35 322 44 q 414 26 378 26 z "},"c":{"ha":686,"x_min":33,"x_max":650,"o":"m 372 -21 q 201 20 278 -21 q 78 140 124 61 q 33 332 33 218 q 83 524 33 444 q 215 647 132 604 q 396 689 297 689 q 532 663 476 689 q 617 594 588 636 q 646 506 646 551 q 622 445 646 467 q 561 424 599 424 q 496 453 521 424 q 467 529 471 482 q 468 581 465 560 q 468 625 471 603 q 451 656 463 649 q 418 664 439 664 q 287 590 333 664 q 240 356 240 517 q 292 141 240 215 q 453 67 344 67 q 558 90 518 67 q 636 161 599 114 l 650 150 q 543 24 615 68 q 372 -21 471 -21 z "},"ć":{"ha":686,"x_min":33,"x_max":650,"o":"m 372 -21 q 201 20 278 -21 q 78 140 124 61 q 33 332 33 218 q 83 524 33 444 q 215 647 132 604 q 396 689 297 689 q 532 663 476 689 q 617 594 588 636 q 646 506 646 551 q 622 445 646 467 q 561 424 599 424 q 496 453 521 424 q 467 529 471 482 q 468 581 465 560 q 468 625 471 603 q 451 656 463 649 q 418 664 439 664 q 287 590 333 664 q 240 356 240 517 q 292 141 240 215 q 453 67 344 67 q 558 90 518 67 q 636 161 599 114 l 650 150 q 543 24 615 68 q 372 -21 471 -21 m 304 796 q 349 877 324 832 q 408 988 374 922 q 454 1052 432 1032 q 506 1072 476 1072 q 551 1055 532 1072 q 571 1013 571 1038 q 553 963 571 986 q 492 910 535 940 q 392 837 432 868 q 319 782 351 806 l 304 796 z "},"č":{"ha":686,"x_min":33,"x_max":650,"o":"m 372 -21 q 201 20 278 -21 q 78 140 124 61 q 33 332 33 218 q 83 524 33 444 q 215 647 132 604 q 396 689 297 689 q 532 663 476 689 q 617 594 588 636 q 646 506 646 551 q 622 445 646 467 q 561 424 599 424 q 496 453 521 424 q 467 529 471 482 q 468 581 465 560 q 468 625 471 603 q 451 656 463 649 q 418 664 439 664 q 287 590 333 664 q 240 356 240 517 q 292 141 240 215 q 453 67 344 67 q 558 90 518 67 q 636 161 599 114 l 650 150 q 543 24 615 68 q 372 -21 471 -21 m 368 788 l 181 1035 l 199 1050 l 385 911 l 571 1050 l 589 1035 l 401 788 l 368 788 z "},"ç":{"ha":686,"x_min":33,"x_max":650,"o":"m 372 -21 q 201 20 278 -21 q 78 140 124 61 q 33 332 33 218 q 83 524 33 444 q 215 647 132 604 q 396 689 297 689 q 532 663 476 689 q 617 594 588 636 q 646 506 646 551 q 622 445 646 467 q 561 424 599 424 q 496 453 521 424 q 467 529 471 482 q 468 581 465 560 q 468 625 471 603 q 451 656 463 649 q 418 664 439 664 q 287 590 333 664 q 240 356 240 517 q 292 141 240 215 q 453 67 344 67 q 558 90 518 67 q 636 161 599 114 l 650 150 q 543 24 615 68 q 372 -21 471 -21 m 344 -118 l 363 3 l 392 3 l 383 -65 q 506 -107 465 -75 q 546 -186 546 -139 q 501 -272 546 -237 q 367 -307 457 -307 q 309 -302 333 -307 q 263 -290 285 -297 l 268 -267 q 342 -279 308 -279 q 402 -256 381 -279 q 424 -193 424 -233 q 402 -142 424 -160 q 344 -118 381 -124 z "},"d":{"ha":797,"x_min":33,"x_max":764,"o":"m 322 -21 q 175 16 240 -21 q 72 130 110 53 q 33 328 33 207 q 76 530 33 450 q 190 649 119 610 q 344 689 261 689 q 438 679 393 689 q 517 650 482 669 l 517 831 q 508 874 517 860 q 469 893 499 888 l 443 899 l 443 913 l 696 974 l 711 961 l 706 767 l 706 88 q 715 42 706 60 q 751 18 725 25 l 764 14 l 764 0 l 526 -15 l 514 35 q 428 -6 476 10 q 322 -21 381 -21 m 403 31 q 510 65 461 31 l 510 617 q 404 650 458 650 q 290 573 338 650 q 243 331 243 496 q 288 98 243 165 q 403 31 332 31 z "},"ð":{"ha":767,"x_min":46,"x_max":718,"o":"m 371 -21 q 216 18 290 -21 q 94 135 142 57 q 46 331 46 214 q 93 514 46 439 q 215 628 140 589 q 375 668 290 668 q 494 631 443 668 q 403 835 464 754 l 181 728 l 164 757 l 381 861 q 300 935 346 901 q 196 1003 254 969 l 207 1026 q 457 897 347 981 l 658 994 l 675 965 l 486 875 q 656 661 593 785 q 718 388 718 538 q 672 160 718 250 q 546 24 625 69 q 371 -21 467 -21 m 385 7 q 486 90 454 7 q 518 335 518 174 q 483 563 518 485 q 385 640 449 640 q 256 322 256 640 q 288 88 256 168 q 385 7 321 7 z "},"ď":{"ha":844,"x_min":33,"x_max":950,"o":"m 799 708 l 790 722 q 850 790 828 756 q 883 872 872 825 l 863 875 q 808 903 828 882 q 788 956 788 925 q 810 1013 788 990 q 867 1035 832 1035 q 928 1009 906 1035 q 949 938 950 983 q 908 806 947 861 q 799 708 868 750 m 322 -21 q 175 16 240 -21 q 72 130 110 53 q 33 328 33 207 q 76 530 33 450 q 190 649 119 610 q 344 689 261 689 q 438 679 393 689 q 517 650 482 669 l 517 831 q 508 874 517 860 q 469 893 499 888 l 443 899 l 443 913 l 696 974 l 711 961 l 706 767 l 706 88 q 715 42 706 60 q 751 18 725 25 l 764 14 l 764 0 l 526 -15 l 514 35 q 428 -6 476 10 q 322 -21 381 -21 m 403 31 q 510 65 461 31 l 510 617 q 404 650 458 650 q 290 573 338 650 q 243 331 243 496 q 288 98 243 165 q 403 31 332 31 z "},"đ":{"ha":797,"x_min":33,"x_max":796,"o":"m 322 -21 q 175 16 240 -21 q 72 130 110 53 q 33 328 33 207 q 76 530 33 450 q 190 649 119 610 q 344 689 261 689 q 438 679 393 689 q 517 650 482 669 l 517 772 l 285 772 l 285 800 l 517 800 l 517 831 q 508 874 517 860 q 469 893 499 888 l 443 899 l 443 913 l 696 974 l 711 961 l 707 800 l 796 800 l 796 772 l 706 772 l 706 767 l 706 88 q 715 42 706 60 q 751 18 725 25 l 764 14 l 764 0 l 526 -15 l 514 35 q 428 -6 476 10 q 322 -21 381 -21 m 403 31 q 510 65 461 31 l 510 617 q 404 650 458 650 q 290 573 338 650 q 243 331 243 496 q 288 98 243 165 q 403 31 332 31 z "},"e":{"ha":704,"x_min":33,"x_max":663,"o":"m 376 689 q 531 652 467 689 q 628 552 594 615 q 663 408 663 489 q 661 377 663 393 q 656 349 660 361 l 242 349 q 295 133 243 199 q 450 67 347 67 q 563 89 519 67 q 643 154 606 111 l 657 142 q 542 22 614 65 q 371 -21 471 -21 q 196 22 272 -21 q 76 143 119 64 q 33 332 33 222 q 83 526 33 446 q 212 647 133 606 q 376 689 290 689 m 372 661 q 303 637 332 661 q 259 551 275 613 q 242 376 243 489 l 479 376 q 468 594 493 528 q 372 661 443 661 z "},"é":{"ha":704,"x_min":33,"x_max":663,"o":"m 376 689 q 531 652 467 689 q 628 552 594 615 q 663 408 663 489 q 661 377 663 393 q 656 349 660 361 l 242 349 q 295 133 243 199 q 450 67 347 67 q 563 89 519 67 q 643 154 606 111 l 657 142 q 542 22 614 65 q 371 -21 471 -21 q 196 22 272 -21 q 76 143 119 64 q 33 332 33 222 q 83 526 33 446 q 212 647 133 606 q 376 689 290 689 m 372 661 q 303 637 332 661 q 259 551 275 613 q 242 376 243 489 l 479 376 q 468 594 493 528 q 372 661 443 661 m 299 796 q 343 877 318 832 q 403 988 368 922 q 449 1052 426 1032 q 500 1072 471 1072 q 546 1055 526 1072 q 565 1013 565 1038 q 547 963 565 986 q 486 910 529 940 q 386 837 426 868 q 314 782 346 806 l 299 796 z "},"ě":{"ha":704,"x_min":33,"x_max":663,"o":"m 376 689 q 531 652 467 689 q 628 552 594 615 q 663 408 663 489 q 661 377 663 393 q 656 349 660 361 l 242 349 q 295 133 243 199 q 450 67 347 67 q 563 89 519 67 q 643 154 606 111 l 657 142 q 542 22 614 65 q 371 -21 471 -21 q 196 22 272 -21 q 76 143 119 64 q 33 332 33 222 q 83 526 33 446 q 212 647 133 606 q 376 689 290 689 m 372 661 q 303 637 332 661 q 259 551 275 613 q 242 376 243 489 l 479 376 q 468 594 493 528 q 372 661 443 661 m 363 788 l 175 1035 l 193 1050 l 379 911 l 565 1050 l 583 1035 l 396 788 l 363 788 z "},"ê":{"ha":704,"x_min":33,"x_max":663,"o":"m 376 689 q 531 652 467 689 q 628 552 594 615 q 663 408 663 489 q 661 377 663 393 q 656 349 660 361 l 242 349 q 295 133 243 199 q 450 67 347 67 q 563 89 519 67 q 643 154 606 111 l 657 142 q 542 22 614 65 q 371 -21 471 -21 q 196 22 272 -21 q 76 143 119 64 q 33 332 33 222 q 83 526 33 446 q 212 647 133 606 q 376 689 290 689 m 372 661 q 303 637 332 661 q 259 551 275 613 q 242 376 243 489 l 479 376 q 468 594 493 528 q 372 661 443 661 m 190 757 l 172 774 l 369 1043 l 389 1043 l 586 774 l 568 757 l 379 904 l 190 757 z "},"ë":{"ha":704,"x_min":33,"x_max":663,"o":"m 376 689 q 531 652 467 689 q 628 552 594 615 q 663 408 663 489 q 661 377 663 393 q 656 349 660 361 l 242 349 q 295 133 243 199 q 450 67 347 67 q 563 89 519 67 q 643 154 606 111 l 657 142 q 542 22 614 65 q 371 -21 471 -21 q 196 22 272 -21 q 76 143 119 64 q 33 332 33 222 q 83 526 33 446 q 212 647 133 606 q 376 689 290 689 m 372 661 q 303 637 332 661 q 259 551 275 613 q 242 376 243 489 l 479 376 q 468 594 493 528 q 372 661 443 661 m 540 806 q 470 831 501 806 q 439 901 439 857 q 470 972 439 946 q 540 997 501 997 q 612 972 582 997 q 642 901 642 946 q 612 831 642 857 q 540 806 582 806 m 218 806 q 147 831 178 806 q 117 901 117 857 q 147 972 117 946 q 218 997 178 997 q 289 972 258 997 q 319 901 319 946 q 289 831 319 857 q 218 806 258 806 z "},"ė":{"ha":704,"x_min":33,"x_max":663,"o":"m 376 689 q 531 652 467 689 q 628 552 594 615 q 663 408 663 489 q 661 377 663 393 q 656 349 660 361 l 242 349 q 295 133 243 199 q 450 67 347 67 q 563 89 519 67 q 643 154 606 111 l 657 142 q 542 22 614 65 q 371 -21 471 -21 q 196 22 272 -21 q 76 143 119 64 q 33 332 33 222 q 83 526 33 446 q 212 647 133 606 q 376 689 290 689 m 372 661 q 303 637 332 661 q 259 551 275 613 q 242 376 243 489 l 479 376 q 468 594 493 528 q 372 661 443 661 m 379 797 q 299 827 332 797 q 267 903 267 857 q 299 978 267 949 q 379 1008 332 1008 q 459 978 426 1008 q 492 903 492 949 q 459 827 492 857 q 379 797 426 797 z "},"è":{"ha":704,"x_min":33,"x_max":663,"o":"m 376 689 q 531 652 467 689 q 628 552 594 615 q 663 408 663 489 q 661 377 663 393 q 656 349 660 361 l 242 349 q 295 133 243 199 q 450 67 347 67 q 563 89 519 67 q 643 154 606 111 l 657 142 q 542 22 614 65 q 371 -21 471 -21 q 196 22 272 -21 q 76 143 119 64 q 33 332 33 222 q 83 526 33 446 q 212 647 133 606 q 376 689 290 689 m 372 661 q 303 637 332 661 q 259 551 275 613 q 242 376 243 489 l 479 376 q 468 594 493 528 q 372 661 443 661 m 433 782 q 362 837 403 806 q 263 910 321 868 q 201 963 219 940 q 182 1013 182 986 q 202 1055 182 1038 q 249 1072 222 1072 q 299 1052 276 1072 q 344 988 322 1032 q 404 877 379 922 q 450 796 429 832 l 433 782 z "},"ē":{"ha":704,"x_min":33,"x_max":663,"o":"m 376 689 q 531 652 467 689 q 628 552 594 615 q 663 408 663 489 q 661 377 663 393 q 656 349 660 361 l 242 349 q 295 133 243 199 q 450 67 347 67 q 563 89 519 67 q 643 154 606 111 l 657 142 q 542 22 614 65 q 371 -21 471 -21 q 196 22 272 -21 q 76 143 119 64 q 33 332 33 222 q 83 526 33 446 q 212 647 133 606 q 376 689 290 689 m 372 661 q 303 637 332 661 q 259 551 275 613 q 242 376 243 489 l 479 376 q 468 594 493 528 q 372 661 443 661 m 167 857 l 167 888 l 592 888 l 592 857 l 167 857 z "},"ę":{"ha":704,"x_min":33,"x_max":663,"o":"m 376 689 q 531 652 467 689 q 628 552 594 615 q 663 408 663 489 q 661 377 663 393 q 656 349 660 361 l 242 349 q 295 133 243 199 q 450 67 347 67 q 563 89 519 67 q 643 154 606 111 l 657 142 q 542 22 614 65 q 371 -21 471 -21 q 196 22 272 -21 q 76 143 119 64 q 33 332 33 222 q 83 526 33 446 q 212 647 133 606 q 376 689 290 689 m 372 661 q 303 637 332 661 q 259 551 275 613 q 242 376 243 489 l 479 376 q 468 594 493 528 q 372 661 443 661 m 458 -311 q 355 -278 394 -311 q 315 -187 315 -244 q 344 -103 315 -143 q 416 -32 372 -62 q 503 14 460 -1 l 526 14 q 458 -52 483 -12 q 432 -136 432 -92 q 461 -208 432 -181 q 536 -236 490 -236 q 585 -227 563 -236 q 624 -208 607 -218 l 633 -224 q 558 -285 603 -258 q 458 -311 513 -311 z "},"f":{"ha":476,"x_min":29,"x_max":596,"o":"m 31 0 l 31 14 l 49 18 q 90 42 75 25 q 106 88 106 60 q 106 190 106 139 q 107 292 107 240 l 107 640 l 29 640 l 29 656 l 60 661 q 100 681 88 664 q 118 726 113 697 q 159 822 132 781 q 221 897 186 863 q 333 967 274 947 q 449 988 392 988 q 550 965 504 988 q 596 889 596 942 q 574 830 596 851 q 511 808 551 808 q 450 826 478 808 q 396 890 422 844 l 376 914 q 346 933 361 933 q 324 910 331 932 q 309 796 314 861 q 304 668 304 731 l 460 668 l 460 640 l 304 640 l 304 90 q 360 22 304 38 l 394 14 l 394 0 l 31 0 z "},"g":{"ha":738,"x_min":19,"x_max":719,"o":"m 331 240 q 168 272 235 240 l 168 225 q 211 174 168 182 l 472 125 q 590 92 538 113 q 675 35 643 72 q 707 -65 707 -1 q 663 -191 707 -133 q 531 -284 618 -249 q 315 -319 444 -319 q 139 -297 204 -319 q 47 -237 74 -274 q 19 -161 19 -201 q 53 -60 19 -111 q 138 21 88 -10 q 75 64 94 38 q 56 121 56 90 q 70 173 56 149 q 106 222 85 197 l 151 281 q 50 464 50 339 q 122 626 50 564 q 332 689 193 689 q 456 672 403 689 q 544 625 510 656 q 628 648 589 632 q 700 692 668 664 l 719 678 l 719 607 l 563 607 q 613 464 613 551 q 541 303 613 367 q 331 240 469 240 m 329 268 q 410 314 385 268 q 436 467 436 360 q 410 617 436 574 q 332 661 385 661 q 254 616 281 661 q 228 464 228 571 q 252 313 228 357 q 329 268 276 268 m 122 -117 q 173 -240 122 -199 q 333 -282 224 -282 q 507 -244 449 -282 q 565 -139 565 -207 q 537 -76 565 -100 q 440 -40 508 -53 l 189 7 q 167 13 178 10 q 135 -51 147 -15 q 122 -117 122 -86 z "},"ğ":{"ha":738,"x_min":19,"x_max":719,"o":"m 331 240 q 168 272 235 240 l 168 225 q 211 174 168 182 l 472 125 q 590 92 538 113 q 675 35 643 72 q 707 -65 707 -1 q 663 -191 707 -133 q 531 -284 618 -249 q 315 -319 444 -319 q 139 -297 204 -319 q 47 -237 74 -274 q 19 -161 19 -201 q 53 -60 19 -111 q 138 21 88 -10 q 75 64 94 38 q 56 121 56 90 q 70 173 56 149 q 106 222 85 197 l 151 281 q 50 464 50 339 q 122 626 50 564 q 332 689 193 689 q 456 672 403 689 q 544 625 510 656 q 628 648 589 632 q 700 692 668 664 l 719 678 l 719 607 l 563 607 q 613 464 613 551 q 541 303 613 367 q 331 240 469 240 m 329 268 q 410 314 385 268 q 436 467 436 360 q 410 617 436 574 q 332 661 385 661 q 254 616 281 661 q 228 464 228 571 q 252 313 228 357 q 329 268 276 268 m 122 -117 q 173 -240 122 -199 q 333 -282 224 -282 q 507 -244 449 -282 q 565 -139 565 -207 q 537 -76 565 -100 q 440 -40 508 -53 l 189 7 q 167 13 178 10 q 135 -51 147 -15 q 122 -117 122 -86 m 354 789 q 239 822 283 789 q 172 906 194 856 q 146 1006 150 957 l 172 1015 q 240 933 196 967 q 354 899 283 899 q 469 933 425 899 q 536 1015 513 967 l 563 1006 q 536 906 558 957 q 470 822 514 856 q 354 789 426 789 z "},"ģ":{"ha":738,"x_min":19,"x_max":719,"o":"m 350 789 q 279 816 306 789 q 253 886 253 843 q 281 973 253 935 q 356 1040 310 1011 q 456 1085 401 1068 l 464 1063 q 397 1026 424 1044 q 351 974 371 1007 q 419 937 394 965 q 444 874 444 908 q 417 814 444 839 q 350 789 390 789 m 331 240 q 168 272 235 240 l 168 225 q 211 174 168 182 l 472 125 q 590 92 538 113 q 675 35 643 72 q 707 -65 707 -1 q 663 -191 707 -133 q 531 -284 618 -249 q 315 -319 444 -319 q 139 -297 204 -319 q 47 -237 74 -274 q 19 -161 19 -201 q 53 -60 19 -111 q 138 21 88 -10 q 75 64 94 38 q 56 121 56 90 q 70 173 56 149 q 106 222 85 197 l 151 281 q 50 464 50 339 q 122 626 50 564 q 332 689 193 689 q 456 672 403 689 q 544 625 510 656 q 628 648 589 632 q 700 692 668 664 l 719 678 l 719 607 l 563 607 q 613 464 613 551 q 541 303 613 367 q 331 240 469 240 m 329 268 q 410 314 385 268 q 436 467 436 360 q 410 617 436 574 q 332 661 385 661 q 254 616 281 661 q 228 464 228 571 q 252 313 228 357 q 329 268 276 268 m 122 -117 q 173 -240 122 -199 q 333 -282 224 -282 q 507 -244 449 -282 q 565 -139 565 -207 q 537 -76 565 -100 q 440 -40 508 -53 l 189 7 q 167 13 178 10 q 135 -51 147 -15 q 122 -117 122 -86 z "},"h":{"ha":806,"x_min":31,"x_max":779,"o":"m 32 0 l 32 14 l 49 19 q 99 89 99 36 l 99 831 q 89 874 99 860 q 51 894 79 888 l 31 900 l 31 914 l 275 974 l 297 961 l 292 765 l 292 592 q 397 660 340 632 q 521 689 453 689 q 665 638 611 689 q 718 479 718 586 l 718 88 q 729 43 718 60 q 768 18 740 26 l 779 14 l 779 0 l 454 0 l 454 14 l 471 18 q 521 89 521 35 l 521 525 q 502 601 521 581 q 436 622 483 622 q 369 610 406 622 q 296 569 333 599 l 296 86 q 346 17 296 32 l 357 14 l 357 0 l 32 0 z "},"i":{"ha":389,"x_min":31,"x_max":356,"o":"m 194 761 q 115 791 147 761 q 82 867 82 821 q 115 943 82 914 q 194 972 147 972 q 274 943 242 972 q 306 867 306 914 q 274 791 306 821 q 194 761 242 761 m 31 0 l 31 14 l 50 19 q 88 44 78 28 q 99 89 99 61 l 99 524 q 88 567 99 553 q 50 588 78 582 l 31 592 l 31 606 l 285 688 l 299 674 l 294 476 l 294 88 q 305 43 294 60 q 342 18 315 26 l 356 14 l 356 0 l 31 0 z "},"ı":{"ha":389,"x_min":31,"x_max":356,"o":"m 31 0 l 31 14 l 50 19 q 88 44 78 28 q 97 89 97 61 q 98 194 97 138 q 99 292 99 250 l 99 358 q 98 440 99 401 q 97 524 97 478 q 87 567 96 553 q 50 588 78 582 l 31 592 l 31 606 l 285 688 l 299 674 l 294 476 l 294 88 q 306 43 296 60 q 342 18 315 26 l 356 14 l 356 0 l 31 0 z "},"í":{"ha":389,"x_min":31,"x_max":376,"o":"m 31 0 l 31 14 l 50 19 q 88 44 78 28 q 97 89 97 61 q 98 194 97 138 q 99 292 99 250 l 99 358 q 98 440 99 401 q 97 524 97 478 q 87 567 96 553 q 50 588 78 582 l 31 592 l 31 606 l 285 688 l 299 674 l 294 476 l 294 88 q 306 43 296 60 q 342 18 315 26 l 356 14 l 356 0 l 31 0 m 110 796 q 154 877 129 832 q 214 988 179 922 q 260 1052 238 1032 q 311 1072 282 1072 q 357 1055 338 1072 q 376 1013 376 1038 q 358 963 376 986 q 297 910 340 940 q 197 837 238 868 q 125 782 157 806 l 110 796 z "},"î":{"ha":389,"x_min":-17,"x_max":397,"o":"m 31 0 l 31 14 l 50 19 q 88 44 78 28 q 97 89 97 61 q 98 194 97 138 q 99 292 99 250 l 99 358 q 98 440 99 401 q 97 524 97 478 q 87 567 96 553 q 50 588 78 582 l 31 592 l 31 606 l 285 688 l 299 674 l 294 476 l 294 88 q 306 43 296 60 q 342 18 315 26 l 356 14 l 356 0 l 31 0 m 1 757 l -17 774 l 181 1043 l 200 1043 l 397 774 l 379 757 l 190 904 l 1 757 z "},"ï":{"ha":389,"x_min":-72,"x_max":453,"o":"m 31 0 l 31 14 l 50 19 q 88 44 78 28 q 97 89 97 61 q 98 194 97 138 q 99 292 99 250 l 99 358 q 98 440 99 401 q 97 524 97 478 q 87 567 96 553 q 50 588 78 582 l 31 592 l 31 606 l 285 688 l 299 674 l 294 476 l 294 88 q 306 43 296 60 q 342 18 315 26 l 356 14 l 356 0 l 31 0 m 351 806 q 281 831 313 806 q 250 901 250 857 q 281 972 250 946 q 351 997 313 997 q 423 972 393 997 q 453 901 453 946 q 423 831 453 857 q 351 806 393 806 m 29 806 q -42 831 -11 806 q -72 901 -72 857 q -42 972 -72 946 q 29 997 -11 997 q 100 972 69 997 q 131 901 131 946 q 100 831 131 857 q 29 806 69 806 z "},"ì":{"ha":389,"x_min":-7,"x_max":356,"o":"m 31 0 l 31 14 l 50 19 q 88 44 78 28 q 97 89 97 61 q 98 194 97 138 q 99 292 99 250 l 99 358 q 98 440 99 401 q 97 524 97 478 q 87 567 96 553 q 50 588 78 582 l 31 592 l 31 606 l 285 688 l 299 674 l 294 476 l 294 88 q 306 43 296 60 q 342 18 315 26 l 356 14 l 356 0 l 31 0 m 244 782 q 173 837 214 806 q 74 910 132 868 q 12 963 31 940 q -7 1013 -7 986 q 13 1055 -7 1038 q 60 1072 33 1072 q 110 1052 88 1072 q 156 988 133 1032 q 215 877 190 922 q 261 796 240 832 l 244 782 z "},"ī":{"ha":389,"x_min":-22,"x_max":403,"o":"m 31 0 l 31 14 l 50 19 q 88 44 78 28 q 97 89 97 61 q 98 194 97 138 q 99 292 99 250 l 99 358 q 98 440 99 401 q 97 524 97 478 q 87 567 96 553 q 50 588 78 582 l 31 592 l 31 606 l 285 688 l 299 674 l 294 476 l 294 88 q 306 43 296 60 q 342 18 315 26 l 356 14 l 356 0 l 31 0 m -22 857 l -22 888 l 403 888 l 403 857 l -22 857 z "},"į":{"ha":389,"x_min":31,"x_max":394,"o":"m 194 761 q 115 791 147 761 q 82 867 82 821 q 115 943 82 914 q 194 972 147 972 q 274 943 242 972 q 306 867 306 914 q 274 791 306 821 q 194 761 242 761 m 31 0 l 31 14 l 50 19 q 88 44 78 28 q 99 89 99 61 l 99 524 q 88 567 99 553 q 50 588 78 582 l 31 592 l 31 606 l 285 688 l 299 674 l 294 476 l 294 88 q 305 43 294 60 q 342 18 315 26 l 356 14 l 356 0 l 31 0 m 219 -311 q 116 -278 156 -311 q 76 -187 76 -244 q 105 -103 76 -143 q 177 -32 133 -62 q 264 14 221 -1 l 288 14 q 219 -52 244 -12 q 193 -136 193 -92 q 222 -208 193 -181 q 297 -236 251 -236 q 346 -227 324 -236 q 385 -208 368 -218 l 394 -224 q 319 -285 364 -258 q 219 -311 274 -311 z "},"j":{"ha":390,"x_min":-149,"x_max":318,"o":"m 206 761 q 126 791 158 761 q 94 867 94 821 q 126 943 94 914 q 206 972 158 972 q 285 943 253 972 q 318 867 318 914 q 285 791 318 821 q 206 761 253 761 m 0 -333 q -114 -306 -79 -333 q -149 -236 -149 -279 q -121 -174 -149 -197 q -56 -150 -93 -150 q 13 -169 -18 -150 q 60 -228 43 -187 l 74 -258 q 97 -269 83 -274 q 110 -225 110 -264 l 110 522 q 95 569 110 554 q 53 589 81 583 l 32 592 l 32 606 l 292 688 l 308 674 l 304 476 l 304 90 q 297 -61 304 0 q 270 -165 289 -122 q 217 -243 251 -207 q 111 -312 168 -292 q 0 -333 54 -333 z "},"k":{"ha":808,"x_min":31,"x_max":790,"o":"m 31 0 l 31 14 l 51 21 q 99 89 99 36 l 99 832 q 88 874 99 860 q 49 896 76 888 l 31 900 l 31 914 l 285 974 l 301 961 l 297 767 l 297 89 q 343 19 297 33 l 363 14 l 363 0 l 31 0 m 546 0 l 299 347 l 556 585 q 577 620 574 601 q 553 647 581 639 l 529 654 l 529 668 l 736 668 l 736 654 l 694 643 q 645 620 664 633 q 600 583 626 607 l 444 438 l 693 92 q 735 44 715 61 q 785 17 754 28 l 790 14 l 790 0 l 546 0 z "},"ķ":{"ha":808,"x_min":31,"x_max":790,"o":"m 31 0 l 31 14 l 51 21 q 99 89 99 36 l 99 832 q 88 874 99 860 q 49 896 76 888 l 31 900 l 31 914 l 285 974 l 301 961 l 297 767 l 297 89 q 343 19 297 33 l 363 14 l 363 0 l 31 0 m 546 0 l 299 347 l 556 585 q 577 620 574 601 q 553 647 581 639 l 529 654 l 529 668 l 736 668 l 736 654 l 694 643 q 645 620 664 633 q 600 583 626 607 l 444 438 l 693 92 q 735 44 715 61 q 785 17 754 28 l 790 14 l 790 0 l 546 0 m 322 -368 l 318 -353 q 395 -312 367 -333 q 438 -256 424 -290 q 361 -227 389 -253 q 333 -162 333 -201 q 361 -99 333 -124 q 428 -74 389 -74 q 500 -100 475 -74 q 525 -172 525 -126 q 497 -258 525 -219 q 424 -324 469 -296 q 322 -368 378 -351 z "},"l":{"ha":397,"x_min":31,"x_max":364,"o":"m 32 0 l 32 14 l 49 19 q 99 89 99 36 l 99 832 q 88 874 99 860 q 49 896 76 889 l 31 900 l 31 914 l 285 974 l 301 961 l 296 767 l 296 292 q 297 190 296 240 q 297 89 297 139 q 308 44 297 61 q 346 18 319 26 l 364 14 l 364 0 l 32 0 z "},"ĺ":{"ha":397,"x_min":31,"x_max":364,"o":"m 32 0 l 32 14 l 49 19 q 99 89 99 36 l 99 832 q 88 874 99 860 q 49 896 76 889 l 31 900 l 31 914 l 285 974 l 301 961 l 296 767 l 296 292 q 297 190 296 240 q 297 89 297 139 q 308 44 297 61 q 346 18 319 26 l 364 14 l 364 0 l 32 0 m 54 1063 q 126 1137 90 1099 q 196 1210 163 1175 q 252 1260 231 1247 q 294 1272 274 1272 q 337 1256 321 1272 q 353 1217 353 1240 q 267 1133 353 1172 q 167 1090 215 1111 q 68 1046 119 1069 l 54 1063 z "},"ľ":{"ha":456,"x_min":31,"x_max":536,"o":"m 383 708 l 365 735 q 426 794 400 761 q 467 872 453 828 l 447 875 q 392 903 413 882 q 372 956 372 925 q 394 1013 372 990 q 451 1035 417 1035 q 514 1009 492 1035 q 535 938 536 983 q 493 806 533 861 q 383 708 453 750 m 32 0 l 32 14 l 49 19 q 99 89 99 36 l 99 832 q 88 874 99 860 q 49 896 76 889 l 31 900 l 31 914 l 285 974 l 301 961 l 296 767 l 296 292 q 297 190 296 240 q 297 89 297 139 q 308 44 297 61 q 346 18 319 26 l 364 14 l 364 0 l 32 0 z "},"ļ":{"ha":397,"x_min":31,"x_max":364,"o":"m 32 0 l 32 14 l 49 19 q 99 89 99 36 l 99 832 q 88 874 99 860 q 49 896 76 889 l 31 900 l 31 914 l 285 974 l 301 961 l 296 767 l 296 292 q 297 190 296 240 q 297 89 297 139 q 308 44 297 61 q 346 18 319 26 l 364 14 l 364 0 l 32 0 m 100 -368 l 96 -353 q 173 -312 144 -333 q 215 -256 201 -290 q 139 -227 167 -253 q 111 -162 111 -201 q 139 -99 111 -124 q 206 -74 167 -74 q 278 -100 253 -74 q 303 -172 303 -126 q 275 -258 303 -219 q 201 -324 247 -296 q 100 -368 156 -351 z "},"ŀ":{"ha":525,"x_min":31,"x_max":604,"o":"m 32 0 l 32 14 l 49 19 q 99 89 99 36 l 99 832 q 88 874 99 860 q 49 896 76 889 l 31 900 l 31 914 l 285 974 l 301 961 l 296 767 l 296 292 q 297 190 296 240 q 297 89 297 139 q 308 44 297 61 q 346 18 319 26 l 364 14 l 364 0 l 32 0 z "},"ł":{"ha":397,"x_min":4,"x_max":394,"o":"m 32 0 l 32 14 l 49 19 q 99 89 99 36 l 99 424 l 4 374 l 4 419 l 99 472 l 99 832 q 88 874 99 860 q 49 896 76 889 l 31 900 l 31 914 l 285 974 l 301 961 l 296 767 l 296 568 l 394 622 l 394 576 l 296 522 l 296 292 q 297 190 296 240 q 297 89 297 139 q 308 44 297 61 q 346 18 319 26 l 364 14 l 364 0 l 32 0 z "},"m":{"ha":1210,"x_min":28,"x_max":1183,"o":"m 28 0 l 28 14 l 47 19 q 84 43 74 26 q 96 88 94 60 l 96 522 q 86 567 96 553 q 49 588 76 582 l 28 593 l 28 607 l 265 688 l 279 674 l 290 579 q 395 657 336 625 q 518 689 454 689 q 625 662 585 689 q 686 578 665 635 q 803 659 740 629 q 926 689 867 689 q 1072 642 1025 689 q 1118 493 1118 594 l 1118 86 q 1168 18 1118 32 l 1183 14 l 1183 0 l 863 0 l 863 14 l 876 18 q 913 43 903 26 q 924 88 924 60 l 924 513 q 903 592 924 571 q 836 614 882 614 q 766 598 800 614 q 694 550 732 582 q 703 501 701 528 q 706 446 706 475 l 706 86 q 756 18 707 32 l 768 14 l 768 0 l 446 0 l 446 14 l 465 19 q 502 44 492 28 q 513 88 513 60 l 513 511 q 492 590 513 567 q 424 614 472 614 q 360 598 392 614 q 293 551 328 582 l 293 86 q 342 18 293 32 l 354 14 l 354 0 l 28 0 z "},"n":{"ha":803,"x_min":28,"x_max":776,"o":"m 28 0 l 28 14 l 47 19 q 96 88 96 33 l 96 522 q 86 567 96 553 q 49 588 76 582 l 28 593 l 28 607 l 265 688 l 279 674 l 290 590 q 400 661 339 633 q 521 689 461 689 q 662 639 613 689 q 711 486 711 589 l 711 86 q 764 18 711 32 l 776 14 l 776 0 l 449 0 l 449 14 l 467 19 q 515 88 515 35 l 515 531 q 426 619 515 619 q 293 558 365 619 l 293 86 q 342 18 293 32 l 354 14 l 354 0 l 28 0 z "},"ń":{"ha":803,"x_min":28,"x_max":776,"o":"m 28 0 l 28 14 l 47 19 q 96 88 96 33 l 96 522 q 86 567 96 553 q 49 588 76 582 l 28 593 l 28 607 l 265 688 l 279 674 l 290 590 q 400 661 339 633 q 521 689 461 689 q 662 639 613 689 q 711 486 711 589 l 711 86 q 764 18 711 32 l 776 14 l 776 0 l 449 0 l 449 14 l 467 19 q 515 88 515 35 l 515 531 q 426 619 515 619 q 293 558 365 619 l 293 86 q 342 18 293 32 l 354 14 l 354 0 l 28 0 m 332 796 q 376 877 351 832 q 436 988 401 922 q 482 1052 460 1032 q 533 1072 504 1072 q 579 1055 560 1072 q 599 1013 599 1038 q 581 963 599 986 q 519 910 563 940 q 419 837 460 868 q 347 782 379 806 l 332 796 z "},"ň":{"ha":803,"x_min":28,"x_max":776,"o":"m 28 0 l 28 14 l 47 19 q 96 88 96 33 l 96 522 q 86 567 96 553 q 49 588 76 582 l 28 593 l 28 607 l 265 688 l 279 674 l 290 590 q 400 661 339 633 q 521 689 461 689 q 662 639 613 689 q 711 486 711 589 l 711 86 q 764 18 711 32 l 776 14 l 776 0 l 449 0 l 449 14 l 467 19 q 515 88 515 35 l 515 531 q 426 619 515 619 q 293 558 365 619 l 293 86 q 342 18 293 32 l 354 14 l 354 0 l 28 0 m 396 788 l 208 1035 l 226 1050 l 413 911 l 599 1050 l 617 1035 l 429 788 l 396 788 z "},"ņ":{"ha":803,"x_min":28,"x_max":776,"o":"m 28 0 l 28 14 l 47 19 q 96 88 96 33 l 96 522 q 86 567 96 553 q 49 588 76 582 l 28 593 l 28 607 l 265 688 l 279 674 l 290 590 q 400 661 339 633 q 521 689 461 689 q 662 639 613 689 q 711 486 711 589 l 711 86 q 764 18 711 32 l 776 14 l 776 0 l 449 0 l 449 14 l 467 19 q 515 88 515 35 l 515 531 q 426 619 515 619 q 293 558 365 619 l 293 86 q 342 18 293 32 l 354 14 l 354 0 l 28 0 m 306 -368 l 301 -353 q 378 -312 350 -333 q 421 -256 407 -290 q 344 -227 372 -253 q 317 -162 317 -201 q 344 -99 317 -124 q 411 -74 372 -74 q 483 -100 458 -74 q 508 -172 508 -126 q 481 -258 508 -219 q 407 -324 453 -296 q 306 -368 361 -351 z "},"ñ":{"ha":803,"x_min":28,"x_max":776,"o":"m 28 0 l 28 14 l 47 19 q 96 88 96 33 l 96 522 q 86 567 96 553 q 49 588 76 582 l 28 593 l 28 607 l 265 688 l 279 674 l 290 590 q 400 661 339 633 q 521 689 461 689 q 662 639 613 689 q 711 486 711 589 l 711 86 q 764 18 711 32 l 776 14 l 776 0 l 449 0 l 449 14 l 467 19 q 515 88 515 35 l 515 531 q 426 619 515 619 q 293 558 365 619 l 293 86 q 342 18 293 32 l 354 14 l 354 0 l 28 0 m 181 813 q 228 953 192 903 q 321 1003 265 1003 q 380 991 357 1003 q 424 961 403 979 q 467 922 446 940 q 515 903 489 903 q 580 928 553 903 q 624 996 607 953 l 644 989 q 597 849 633 900 q 506 797 561 797 q 446 809 471 797 q 401 839 421 821 q 358 877 381 858 q 308 896 336 896 q 244 872 271 896 q 201 806 218 847 l 181 813 z "},"o":{"ha":757,"x_min":33,"x_max":724,"o":"m 379 -21 q 196 23 274 -21 q 76 147 118 67 q 33 336 33 228 q 78 524 33 444 q 202 646 124 603 q 379 689 281 689 q 556 647 478 689 q 678 525 633 604 q 724 336 724 446 q 681 147 724 226 q 562 23 639 67 q 379 -21 485 -21 m 379 7 q 457 35 428 7 q 499 133 486 63 q 513 333 513 204 q 499 535 513 464 q 457 633 486 606 q 379 661 428 661 q 301 633 331 661 q 258 535 271 606 q 244 333 244 464 q 258 133 244 204 q 301 35 271 63 q 379 7 331 7 z "},"ó":{"ha":757,"x_min":33,"x_max":724,"o":"m 379 -21 q 196 23 274 -21 q 76 147 118 67 q 33 336 33 228 q 78 524 33 444 q 202 646 124 603 q 379 689 281 689 q 556 647 478 689 q 678 525 633 604 q 724 336 724 446 q 681 147 724 226 q 562 23 639 67 q 379 -21 485 -21 m 379 7 q 457 35 428 7 q 499 133 486 63 q 513 333 513 204 q 499 535 513 464 q 457 633 486 606 q 379 661 428 661 q 301 633 331 661 q 258 535 271 606 q 244 333 244 464 q 258 133 244 204 q 301 35 271 63 q 379 7 331 7 m 299 796 q 343 877 318 832 q 403 988 368 922 q 449 1052 426 1032 q 500 1072 471 1072 q 546 1055 526 1072 q 565 1013 565 1038 q 547 963 565 986 q 486 910 529 940 q 386 837 426 868 q 314 782 346 806 l 299 796 z "},"ô":{"ha":757,"x_min":33,"x_max":724,"o":"m 379 -21 q 196 23 274 -21 q 76 147 118 67 q 33 336 33 228 q 78 524 33 444 q 202 646 124 603 q 379 689 281 689 q 556 647 478 689 q 678 525 633 604 q 724 336 724 446 q 681 147 724 226 q 562 23 639 67 q 379 -21 485 -21 m 379 7 q 457 35 428 7 q 499 133 486 63 q 513 333 513 204 q 499 535 513 464 q 457 633 486 606 q 379 661 428 661 q 301 633 331 661 q 258 535 271 606 q 244 333 244 464 q 258 133 244 204 q 301 35 271 63 q 379 7 331 7 m 190 757 l 172 774 l 369 1043 l 389 1043 l 586 774 l 568 757 l 379 904 l 190 757 z "},"ö":{"ha":757,"x_min":33,"x_max":724,"o":"m 379 -21 q 196 23 274 -21 q 76 147 118 67 q 33 336 33 228 q 78 524 33 444 q 202 646 124 603 q 379 689 281 689 q 556 647 478 689 q 678 525 633 604 q 724 336 724 446 q 681 147 724 226 q 562 23 639 67 q 379 -21 485 -21 m 379 7 q 457 35 428 7 q 499 133 486 63 q 513 333 513 204 q 499 535 513 464 q 457 633 486 606 q 379 661 428 661 q 301 633 331 661 q 258 535 271 606 q 244 333 244 464 q 258 133 244 204 q 301 35 271 63 q 379 7 331 7 m 540 806 q 470 831 501 806 q 439 901 439 857 q 470 972 439 946 q 540 997 501 997 q 612 972 582 997 q 642 901 642 946 q 612 831 642 857 q 540 806 582 806 m 218 806 q 147 831 178 806 q 117 901 117 857 q 147 972 117 946 q 218 997 178 997 q 289 972 258 997 q 319 901 319 946 q 289 831 319 857 q 218 806 258 806 z "},"ò":{"ha":757,"x_min":33,"x_max":724,"o":"m 379 -21 q 196 23 274 -21 q 76 147 118 67 q 33 336 33 228 q 78 524 33 444 q 202 646 124 603 q 379 689 281 689 q 556 647 478 689 q 678 525 633 604 q 724 336 724 446 q 681 147 724 226 q 562 23 639 67 q 379 -21 485 -21 m 379 7 q 457 35 428 7 q 499 133 486 63 q 513 333 513 204 q 499 535 513 464 q 457 633 486 606 q 379 661 428 661 q 301 633 331 661 q 258 535 271 606 q 244 333 244 464 q 258 133 244 204 q 301 35 271 63 q 379 7 331 7 m 433 782 q 362 837 403 806 q 263 910 321 868 q 201 963 219 940 q 182 1013 182 986 q 202 1055 182 1038 q 249 1072 222 1072 q 299 1052 276 1072 q 344 988 322 1032 q 404 877 379 922 q 450 796 429 832 l 433 782 z "},"ő":{"ha":757,"x_min":33,"x_max":724,"o":"m 379 -21 q 196 23 274 -21 q 76 147 118 67 q 33 336 33 228 q 78 524 33 444 q 202 646 124 603 q 379 689 281 689 q 556 647 478 689 q 678 525 633 604 q 724 336 724 446 q 681 147 724 226 q 562 23 639 67 q 379 -21 485 -21 m 379 7 q 457 35 428 7 q 499 133 486 63 q 513 333 513 204 q 499 535 513 464 q 457 633 486 606 q 379 661 428 661 q 301 633 331 661 q 258 535 271 606 q 244 333 244 464 q 258 133 244 204 q 301 35 271 63 q 379 7 331 7 m 463 775 l 442 788 l 510 1001 q 545 1067 525 1050 q 588 1083 565 1083 q 628 1068 611 1083 q 646 1026 646 1053 q 635 990 646 1010 q 604 946 624 969 l 463 775 m 260 775 l 239 788 l 306 1001 q 341 1067 321 1050 q 383 1083 361 1083 q 425 1068 407 1083 q 443 1026 443 1053 q 431 990 443 1010 q 400 946 419 969 l 260 775 z "},"ō":{"ha":757,"x_min":33,"x_max":724,"o":"m 379 -21 q 196 23 274 -21 q 76 147 118 67 q 33 336 33 228 q 78 524 33 444 q 202 646 124 603 q 379 689 281 689 q 556 647 478 689 q 678 525 633 604 q 724 336 724 446 q 681 147 724 226 q 562 23 639 67 q 379 -21 485 -21 m 379 7 q 457 35 428 7 q 499 133 486 63 q 513 333 513 204 q 499 535 513 464 q 457 633 486 606 q 379 661 428 661 q 301 633 331 661 q 258 535 271 606 q 244 333 244 464 q 258 133 244 204 q 301 35 271 63 q 379 7 331 7 m 167 857 l 167 888 l 592 888 l 592 857 l 167 857 z "},"ø":{"ha":779,"x_min":46,"x_max":735,"o":"m 121 -32 l 92 -10 l 151 64 q 73 180 100 111 q 46 336 46 249 q 91 524 46 444 q 214 646 136 603 q 390 689 292 689 q 600 625 513 689 l 660 700 l 688 678 l 628 603 q 706 490 678 557 q 735 336 735 422 q 692 147 735 226 q 573 23 650 67 q 390 -21 496 -21 q 179 42 265 -21 l 121 -32 m 249 333 q 256 194 249 251 l 518 524 q 472 630 504 599 q 390 661 440 661 q 309 631 340 661 q 263 530 278 601 q 249 333 249 458 m 390 7 q 472 37 440 7 q 517 138 503 67 q 532 333 532 210 q 525 475 532 417 l 263 144 q 308 38 276 69 q 390 7 340 7 z "},"õ":{"ha":757,"x_min":33,"x_max":724,"o":"m 379 -21 q 196 23 274 -21 q 76 147 118 67 q 33 336 33 228 q 78 524 33 444 q 202 646 124 603 q 379 689 281 689 q 556 647 478 689 q 678 525 633 604 q 724 336 724 446 q 681 147 724 226 q 562 23 639 67 q 379 -21 485 -21 m 379 7 q 457 35 428 7 q 499 133 486 63 q 513 333 513 204 q 499 535 513 464 q 457 633 486 606 q 379 661 428 661 q 301 633 331 661 q 258 535 271 606 q 244 333 244 464 q 258 133 244 204 q 301 35 271 63 q 379 7 331 7 m 147 813 q 195 953 158 903 q 288 1003 232 1003 q 347 991 324 1003 q 390 961 369 979 q 434 922 413 940 q 482 903 456 903 q 547 928 519 903 q 590 996 574 953 l 611 989 q 564 849 600 900 q 472 797 528 797 q 413 809 438 797 q 368 839 388 821 q 325 877 347 858 q 275 896 303 896 q 211 872 238 896 q 168 806 185 847 l 147 813 z "},"œ":{"ha":1185,"x_min":33,"x_max":1144,"o":"m 379 -21 q 196 23 274 -21 q 76 147 118 67 q 33 336 33 228 q 78 524 33 444 q 202 646 124 603 q 379 689 281 689 q 624 597 528 689 q 733 665 671 642 q 858 689 794 689 q 1013 652 949 689 q 1110 552 1076 615 q 1144 408 1144 489 q 1143 377 1144 393 q 1138 349 1142 361 l 724 349 q 783 133 725 200 q 939 67 840 67 q 1045 89 1003 67 q 1125 154 1088 111 l 1139 142 q 1024 22 1096 65 q 853 -21 953 -21 q 618 64 710 -21 q 379 -21 528 -21 m 379 7 q 456 37 426 7 q 499 138 485 67 q 513 333 513 210 q 499 530 513 458 q 456 631 485 601 q 379 661 426 661 q 302 631 332 661 q 258 530 272 601 q 244 333 244 458 q 258 138 244 210 q 302 37 272 67 q 379 7 332 7 m 854 661 q 790 637 819 661 q 743 551 761 613 q 724 376 725 489 l 960 376 q 949 583 974 504 q 854 661 924 661 z "},"p":{"ha":803,"x_min":28,"x_max":768,"o":"m 28 -319 l 28 -306 l 44 -300 q 96 -233 96 -286 l 96 522 q 85 568 96 553 q 47 589 75 583 l 28 593 l 28 607 l 264 688 l 278 674 l 290 631 q 392 674 336 658 q 508 689 449 689 q 698 598 628 689 q 768 338 768 507 q 691 75 768 171 q 474 -21 614 -21 q 289 11 364 -21 l 289 -229 q 339 -299 289 -285 l 365 -306 l 365 -319 l 28 -319 m 407 19 q 517 92 476 19 q 558 332 558 164 q 519 567 558 500 q 407 635 481 635 q 293 601 356 635 l 293 42 q 407 19 346 19 z "},"þ":{"ha":806,"x_min":31,"x_max":772,"o":"m 31 -319 l 31 -306 l 42 -303 q 97 -235 96 -289 q 99 -117 99 -172 q 100 -12 100 -62 l 100 851 q 47 922 100 907 l 32 926 l 32 940 l 286 1000 l 303 988 l 297 793 l 297 635 q 399 674 343 660 q 511 689 456 689 q 701 598 631 689 q 772 338 772 507 q 694 75 772 171 q 476 -21 617 -21 q 293 11 365 -21 l 293 -22 q 294 -117 293 -65 q 294 -231 294 -169 q 349 -300 297 -286 l 368 -306 l 368 -319 l 31 -319 m 410 19 q 522 92 481 19 q 563 332 563 164 q 524 567 563 500 q 411 635 485 635 q 297 601 358 635 l 297 42 q 410 19 350 19 z "},"q":{"ha":785,"x_min":33,"x_max":771,"o":"m 433 -319 l 433 -306 l 463 -299 q 515 -229 515 -283 l 515 47 q 423 -2 475 17 q 307 -21 371 -21 q 111 68 189 -21 q 33 326 33 157 q 72 524 33 443 q 180 647 111 604 q 339 689 249 689 q 451 671 400 689 q 540 625 501 653 l 699 689 l 713 675 l 708 488 l 708 -233 q 758 -301 708 -290 l 771 -306 l 771 -319 l 433 -319 m 399 35 q 511 79 457 35 l 511 607 q 463 629 488 622 q 403 636 438 636 q 286 565 329 636 q 243 329 243 493 q 285 102 243 169 q 399 35 326 35 z "},"r":{"ha":613,"x_min":28,"x_max":597,"o":"m 28 0 l 28 14 l 49 19 q 87 44 76 28 q 97 88 97 61 l 97 522 q 87 567 97 553 q 49 588 76 582 l 28 593 l 28 607 l 267 688 l 281 674 l 293 554 l 293 543 q 344 615 313 582 q 413 668 375 647 q 489 689 451 689 q 569 660 542 689 q 597 586 597 631 q 570 513 597 539 q 506 488 543 488 q 403 546 447 488 l 400 549 q 368 570 386 568 q 335 553 350 572 q 312 523 321 540 q 294 483 303 506 l 294 96 q 343 26 294 40 l 388 14 l 388 0 l 28 0 z "},"ŕ":{"ha":613,"x_min":28,"x_max":597,"o":"m 28 0 l 28 14 l 49 19 q 87 44 76 28 q 97 88 97 61 l 97 522 q 87 567 97 553 q 49 588 76 582 l 28 593 l 28 607 l 267 688 l 281 674 l 293 554 l 293 543 q 344 615 313 582 q 413 668 375 647 q 489 689 451 689 q 569 660 542 689 q 597 586 597 631 q 570 513 597 539 q 506 488 543 488 q 403 546 447 488 l 400 549 q 368 570 386 568 q 335 553 350 572 q 312 523 321 540 q 294 483 303 506 l 294 96 q 343 26 294 40 l 388 14 l 388 0 l 28 0 m 253 796 q 297 877 272 832 q 357 988 322 922 q 403 1052 381 1032 q 454 1072 425 1072 q 500 1055 481 1072 q 519 1013 519 1038 q 501 963 519 986 q 440 910 483 940 q 340 837 381 868 q 268 782 300 806 l 253 796 z "},"ř":{"ha":613,"x_min":28,"x_max":597,"o":"m 28 0 l 28 14 l 49 19 q 87 44 76 28 q 97 88 97 61 l 97 522 q 87 567 97 553 q 49 588 76 582 l 28 593 l 28 607 l 267 688 l 281 674 l 293 554 l 293 543 q 344 615 313 582 q 413 668 375 647 q 489 689 451 689 q 569 660 542 689 q 597 586 597 631 q 570 513 597 539 q 506 488 543 488 q 403 546 447 488 l 400 549 q 368 570 386 568 q 335 553 350 572 q 312 523 321 540 q 294 483 303 506 l 294 96 q 343 26 294 40 l 388 14 l 388 0 l 28 0 m 317 788 l 129 1035 l 147 1050 l 333 911 l 519 1050 l 538 1035 l 350 788 l 317 788 z "},"ŗ":{"ha":613,"x_min":28,"x_max":597,"o":"m 28 0 l 28 14 l 49 19 q 87 44 76 28 q 97 88 97 61 l 97 522 q 87 567 97 553 q 49 588 76 582 l 28 593 l 28 607 l 267 688 l 281 674 l 293 554 l 293 543 q 344 615 313 582 q 413 668 375 647 q 489 689 451 689 q 569 660 542 689 q 597 586 597 631 q 570 513 597 539 q 506 488 543 488 q 403 546 447 488 l 400 549 q 368 570 386 568 q 335 553 350 572 q 312 523 321 540 q 294 483 303 506 l 294 96 q 343 26 294 40 l 388 14 l 388 0 l 28 0 m 103 -368 l 99 -353 q 176 -312 147 -333 q 218 -256 204 -290 q 142 -227 169 -253 q 114 -162 114 -201 q 142 -99 114 -124 q 208 -74 169 -74 q 281 -100 256 -74 q 306 -172 306 -126 q 278 -258 306 -219 q 204 -324 250 -296 q 103 -368 158 -351 z "},"s":{"ha":606,"x_min":40,"x_max":572,"o":"m 268 -21 q 146 -5 200 -21 q 46 35 92 11 l 47 200 l 61 200 l 108 117 q 176 34 139 61 q 269 7 213 7 q 377 37 336 7 q 418 117 418 67 q 389 192 418 163 q 281 244 360 221 l 222 263 q 89 340 138 288 q 40 469 40 393 q 113 625 40 561 q 319 689 185 689 q 422 677 374 689 q 514 642 469 665 l 506 492 l 492 492 l 443 578 q 391 642 417 624 q 314 661 365 661 q 225 635 267 661 q 183 560 183 608 q 219 485 183 513 q 324 433 254 457 l 386 415 q 529 331 486 385 q 572 203 572 278 q 492 40 572 101 q 268 -21 413 -21 z "},"ś":{"ha":606,"x_min":40,"x_max":572,"o":"m 268 -21 q 146 -5 200 -21 q 46 35 92 11 l 47 200 l 61 200 l 108 117 q 176 34 139 61 q 269 7 213 7 q 377 37 336 7 q 418 117 418 67 q 389 192 418 163 q 281 244 360 221 l 222 263 q 89 340 138 288 q 40 469 40 393 q 113 625 40 561 q 319 689 185 689 q 422 677 374 689 q 514 642 469 665 l 506 492 l 492 492 l 443 578 q 391 642 417 624 q 314 661 365 661 q 225 635 267 661 q 183 560 183 608 q 219 485 183 513 q 324 433 254 457 l 386 415 q 529 331 486 385 q 572 203 572 278 q 492 40 572 101 q 268 -21 413 -21 m 233 796 q 278 877 253 832 q 338 988 303 922 q 383 1052 361 1032 q 435 1072 406 1072 q 481 1055 461 1072 q 500 1013 500 1038 q 482 963 500 986 q 421 910 464 940 q 321 837 361 868 q 249 782 281 806 l 233 796 z "},"š":{"ha":606,"x_min":40,"x_max":572,"o":"m 268 -21 q 146 -5 200 -21 q 46 35 92 11 l 47 200 l 61 200 l 108 117 q 176 34 139 61 q 269 7 213 7 q 377 37 336 7 q 418 117 418 67 q 389 192 418 163 q 281 244 360 221 l 222 263 q 89 340 138 288 q 40 469 40 393 q 113 625 40 561 q 319 689 185 689 q 422 677 374 689 q 514 642 469 665 l 506 492 l 492 492 l 443 578 q 391 642 417 624 q 314 661 365 661 q 225 635 267 661 q 183 560 183 608 q 219 485 183 513 q 324 433 254 457 l 386 415 q 529 331 486 385 q 572 203 572 278 q 492 40 572 101 q 268 -21 413 -21 m 297 788 l 110 1035 l 128 1050 l 314 911 l 500 1050 l 518 1035 l 331 788 l 297 788 z "},"ş":{"ha":606,"x_min":40,"x_max":572,"o":"m 268 -21 q 146 -5 200 -21 q 46 35 92 11 l 47 200 l 61 200 l 108 117 q 176 34 139 61 q 269 7 213 7 q 377 37 336 7 q 418 117 418 67 q 389 192 418 163 q 281 244 360 221 l 222 263 q 89 340 138 288 q 40 469 40 393 q 113 625 40 561 q 319 689 185 689 q 422 677 374 689 q 514 642 469 665 l 506 492 l 492 492 l 443 578 q 391 642 417 624 q 314 661 365 661 q 225 635 267 661 q 183 560 183 608 q 219 485 183 513 q 324 433 254 457 l 386 415 q 529 331 486 385 q 572 203 572 278 q 492 40 572 101 q 268 -21 413 -21 m 258 -118 l 276 3 l 306 3 l 297 -65 q 419 -107 379 -75 q 460 -186 460 -139 q 415 -272 460 -237 q 281 -307 371 -307 q 223 -302 247 -307 q 176 -290 199 -297 l 182 -267 q 256 -279 222 -279 q 316 -256 294 -279 q 338 -193 338 -233 q 316 -142 338 -160 q 258 -118 294 -124 z "},"ș":{"ha":610,"x_min":40,"x_max":572,"o":"m 268 -21 q 146 -5 200 -21 q 46 35 92 11 l 47 200 l 61 200 l 108 117 q 176 34 139 61 q 269 7 213 7 q 377 37 336 7 q 418 117 418 67 q 389 192 418 163 q 281 244 360 221 l 222 263 q 89 340 138 288 q 40 469 40 393 q 113 625 40 561 q 319 689 185 689 q 422 677 374 689 q 514 642 469 665 l 506 492 l 492 492 l 443 578 q 391 642 417 624 q 314 661 365 661 q 225 635 267 661 q 183 560 183 608 q 219 485 183 513 q 324 433 254 457 l 386 415 q 529 331 486 385 q 572 203 572 278 q 492 40 572 101 q 268 -21 413 -21 m 206 -368 l 201 -353 q 278 -312 250 -333 q 321 -256 307 -290 q 244 -227 272 -253 q 217 -162 217 -201 q 244 -99 217 -124 q 311 -74 272 -74 q 383 -100 358 -74 q 408 -172 408 -126 q 381 -258 408 -219 q 307 -324 353 -296 q 206 -368 261 -351 z "},"ß":{"ha":894,"x_min":36,"x_max":849,"o":"m 569 -21 q 470 -10 517 -21 q 375 22 424 0 l 376 194 l 392 194 l 424 113 q 452 56 436 79 q 499 19 468 32 q 531 10 514 14 q 567 7 549 7 q 658 40 619 7 q 696 132 696 74 q 665 211 696 182 q 563 271 633 240 q 444 344 488 301 q 401 450 401 386 q 419 515 401 489 q 467 565 438 542 q 532 618 497 589 q 625 801 625 701 q 586 917 625 875 q 474 960 547 960 q 379 930 418 960 q 321 835 340 900 q 301 728 307 792 q 296 561 296 665 l 296 286 q 300 0 296 144 l 36 0 l 36 14 l 43 17 q 97 86 96 33 q 99 151 99 114 q 99 224 99 188 q 99 286 99 260 l 99 593 q 126 755 99 692 q 192 858 154 818 q 319 953 243 918 q 485 988 396 988 q 696 934 621 988 q 771 807 771 881 q 733 710 771 751 q 628 631 696 669 q 538 578 565 600 q 511 532 511 556 q 551 483 511 504 q 681 426 592 463 q 810 333 771 386 q 849 201 849 279 q 812 86 849 136 q 712 8 775 36 q 569 -21 649 -21 z "},"t":{"ha":501,"x_min":8,"x_max":486,"o":"m 292 -21 q 153 24 203 -21 q 104 165 104 68 l 104 640 l 8 640 l 8 654 l 42 660 q 116 688 85 669 q 178 736 147 706 l 292 863 l 306 863 l 301 668 l 457 668 l 457 640 l 300 640 l 300 140 q 322 67 300 92 q 376 42 343 42 q 428 56 406 42 q 472 96 450 71 l 486 82 q 410 7 458 35 q 292 -21 361 -21 z "},"ť":{"ha":488,"x_min":8,"x_max":551,"o":"m 394 731 l 389 744 q 450 799 426 769 q 483 872 474 828 l 464 875 q 409 903 429 882 q 389 956 389 925 q 411 1013 389 990 q 468 1035 433 1035 q 529 1009 507 1035 q 550 938 551 983 q 508 815 549 869 q 394 731 468 761 m 292 -21 q 153 24 203 -21 q 104 165 104 68 l 104 640 l 8 640 l 8 654 l 42 660 q 116 688 85 669 q 178 736 147 706 l 292 863 l 306 863 l 301 668 l 457 668 l 457 640 l 300 640 l 300 140 q 322 67 300 92 q 376 42 343 42 q 428 56 406 42 q 472 96 450 71 l 486 82 q 410 7 458 35 q 292 -21 361 -21 z "},"ţ":{"ha":494,"x_min":8,"x_max":486,"o":"m 292 -21 q 153 24 203 -21 q 104 165 104 68 l 104 640 l 8 640 l 8 654 l 42 660 q 116 688 85 669 q 178 736 147 706 l 292 863 l 306 863 l 301 668 l 457 668 l 457 640 l 300 640 l 300 140 q 322 67 300 92 q 376 42 343 42 q 428 56 406 42 q 472 96 450 71 l 486 82 q 410 7 458 35 q 292 -21 361 -21 m 242 -122 l 260 -1 l 289 -1 l 281 -69 q 403 -111 363 -79 q 443 -190 443 -143 q 399 -276 443 -242 q 264 -311 354 -311 q 206 -306 231 -311 q 160 -294 182 -301 l 165 -271 q 239 -283 206 -283 q 299 -260 278 -283 q 321 -197 321 -237 q 299 -146 321 -164 q 242 -122 278 -128 z "},"ț":{"ha":501,"x_min":8,"x_max":486,"o":"m 292 -21 q 153 24 203 -21 q 104 165 104 68 l 104 640 l 8 640 l 8 654 l 42 660 q 116 688 85 669 q 178 736 147 706 l 292 863 l 306 863 l 301 668 l 457 668 l 457 640 l 300 640 l 300 140 q 322 67 300 92 q 376 42 343 42 q 428 56 406 42 q 472 96 450 71 l 486 82 q 410 7 458 35 q 292 -21 361 -21 m 179 -368 l 175 -353 q 252 -312 224 -333 q 294 -256 281 -290 q 218 -227 246 -253 q 190 -162 190 -201 q 218 -99 190 -124 q 285 -74 246 -74 q 357 -100 332 -74 q 382 -172 382 -126 q 354 -258 382 -219 q 281 -324 326 -296 q 179 -368 235 -351 z "},"u":{"ha":788,"x_min":26,"x_max":760,"o":"m 279 -21 q 180 0 225 -21 q 109 67 135 21 q 85 190 83 114 l 89 547 q 78 593 89 579 q 43 613 67 607 l 26 618 l 26 632 l 275 681 l 289 667 l 282 469 l 282 135 q 308 69 282 90 q 372 49 333 49 q 442 60 411 49 q 503 93 472 71 l 508 546 q 499 591 508 578 q 463 610 489 604 l 449 614 l 449 628 l 692 681 l 706 667 l 701 469 l 701 93 q 710 46 701 63 q 746 18 718 29 l 760 14 l 760 0 l 517 -14 l 504 68 q 405 5 458 31 q 279 -21 351 -21 z "},"ú":{"ha":788,"x_min":26,"x_max":760,"o":"m 279 -21 q 180 0 225 -21 q 109 67 135 21 q 85 190 83 114 l 89 547 q 78 593 89 579 q 43 613 67 607 l 26 618 l 26 632 l 275 681 l 289 667 l 282 469 l 282 135 q 308 69 282 90 q 372 49 333 49 q 442 60 411 49 q 503 93 472 71 l 508 546 q 499 591 508 578 q 463 610 489 604 l 449 614 l 449 628 l 692 681 l 706 667 l 701 469 l 701 93 q 710 46 701 63 q 746 18 718 29 l 760 14 l 760 0 l 517 -14 l 504 68 q 405 5 458 31 q 279 -21 351 -21 m 311 796 q 356 877 331 832 q 415 988 381 922 q 461 1052 439 1032 q 513 1072 483 1072 q 558 1055 539 1072 q 578 1013 578 1038 q 560 963 578 986 q 499 910 542 940 q 399 837 439 868 q 326 782 358 806 l 311 796 z "},"û":{"ha":788,"x_min":26,"x_max":760,"o":"m 279 -21 q 180 0 225 -21 q 109 67 135 21 q 85 190 83 114 l 89 547 q 78 593 89 579 q 43 613 67 607 l 26 618 l 26 632 l 275 681 l 289 667 l 282 469 l 282 135 q 308 69 282 90 q 372 49 333 49 q 442 60 411 49 q 503 93 472 71 l 508 546 q 499 591 508 578 q 463 610 489 604 l 449 614 l 449 628 l 692 681 l 706 667 l 701 469 l 701 93 q 710 46 701 63 q 746 18 718 29 l 760 14 l 760 0 l 517 -14 l 504 68 q 405 5 458 31 q 279 -21 351 -21 m 203 757 l 185 774 l 382 1043 l 401 1043 l 599 774 l 581 757 l 392 904 l 203 757 z "},"ü":{"ha":788,"x_min":26,"x_max":760,"o":"m 279 -21 q 180 0 225 -21 q 109 67 135 21 q 85 190 83 114 l 89 547 q 78 593 89 579 q 43 613 67 607 l 26 618 l 26 632 l 275 681 l 289 667 l 282 469 l 282 135 q 308 69 282 90 q 372 49 333 49 q 442 60 411 49 q 503 93 472 71 l 508 546 q 499 591 508 578 q 463 610 489 604 l 449 614 l 449 628 l 692 681 l 706 667 l 701 469 l 701 93 q 710 46 701 63 q 746 18 718 29 l 760 14 l 760 0 l 517 -14 l 504 68 q 405 5 458 31 q 279 -21 351 -21 m 553 806 q 483 831 514 806 q 451 901 451 857 q 483 972 451 946 q 553 997 514 997 q 624 972 594 997 q 654 901 654 946 q 624 831 654 857 q 553 806 594 806 m 231 806 q 160 831 190 806 q 129 901 129 857 q 160 972 129 946 q 231 997 190 997 q 301 972 271 997 q 332 901 332 946 q 301 831 332 857 q 231 806 271 806 z "},"ù":{"ha":788,"x_min":26,"x_max":760,"o":"m 279 -21 q 180 0 225 -21 q 109 67 135 21 q 85 190 83 114 l 89 547 q 78 593 89 579 q 43 613 67 607 l 26 618 l 26 632 l 275 681 l 289 667 l 282 469 l 282 135 q 308 69 282 90 q 372 49 333 49 q 442 60 411 49 q 503 93 472 71 l 508 546 q 499 591 508 578 q 463 610 489 604 l 449 614 l 449 628 l 692 681 l 706 667 l 701 469 l 701 93 q 710 46 701 63 q 746 18 718 29 l 760 14 l 760 0 l 517 -14 l 504 68 q 405 5 458 31 q 279 -21 351 -21 m 446 782 q 374 837 415 806 q 275 910 333 868 q 213 963 232 940 q 194 1013 194 986 q 215 1055 194 1038 q 261 1072 235 1072 q 312 1052 289 1072 q 357 988 335 1032 q 417 877 392 922 q 463 796 442 832 l 446 782 z "},"ű":{"ha":788,"x_min":26,"x_max":760,"o":"m 279 -21 q 180 0 225 -21 q 109 67 135 21 q 85 190 83 114 l 89 547 q 78 593 89 579 q 43 613 67 607 l 26 618 l 26 632 l 275 681 l 289 667 l 282 469 l 282 135 q 308 69 282 90 q 372 49 333 49 q 442 60 411 49 q 503 93 472 71 l 508 546 q 499 591 508 578 q 463 610 489 604 l 449 614 l 449 628 l 692 681 l 706 667 l 701 469 l 701 93 q 710 46 701 63 q 746 18 718 29 l 760 14 l 760 0 l 517 -14 l 504 68 q 405 5 458 31 q 279 -21 351 -21 m 475 775 l 454 788 l 522 1001 q 558 1067 538 1050 q 600 1083 578 1083 q 641 1068 624 1083 q 658 1026 658 1053 q 647 990 658 1010 q 617 946 636 969 l 475 775 m 272 775 l 251 788 l 318 1001 q 353 1067 333 1050 q 396 1083 374 1083 q 438 1068 419 1083 q 456 1026 456 1053 q 444 990 456 1010 q 413 946 432 969 l 272 775 z "},"ū":{"ha":788,"x_min":26,"x_max":760,"o":"m 279 -21 q 180 0 225 -21 q 109 67 135 21 q 85 190 83 114 l 89 547 q 78 593 89 579 q 43 613 67 607 l 26 618 l 26 632 l 275 681 l 289 667 l 282 469 l 282 135 q 308 69 282 90 q 372 49 333 49 q 442 60 411 49 q 503 93 472 71 l 508 546 q 499 591 508 578 q 463 610 489 604 l 449 614 l 449 628 l 692 681 l 706 667 l 701 469 l 701 93 q 710 46 701 63 q 746 18 718 29 l 760 14 l 760 0 l 517 -14 l 504 68 q 405 5 458 31 q 279 -21 351 -21 m 179 857 l 179 888 l 604 888 l 604 857 l 179 857 z "},"ų":{"ha":788,"x_min":26,"x_max":824,"o":"m 279 -21 q 180 0 225 -21 q 109 67 135 21 q 85 190 83 114 l 89 547 q 78 593 89 579 q 43 613 67 607 l 26 618 l 26 632 l 275 681 l 289 667 l 282 469 l 282 135 q 308 69 282 90 q 372 49 333 49 q 442 60 411 49 q 503 93 472 71 l 508 546 q 499 591 508 578 q 463 610 489 604 l 449 614 l 449 628 l 692 681 l 706 667 l 701 469 l 701 93 q 710 46 701 63 q 746 18 718 29 l 760 14 l 760 0 l 517 -14 l 504 68 q 405 5 458 31 q 279 -21 351 -21 m 649 -311 q 545 -278 585 -311 q 506 -187 506 -244 q 534 -103 506 -143 q 606 -32 563 -62 q 693 14 650 -1 l 717 14 q 648 -52 674 -12 q 622 -136 622 -92 q 651 -208 622 -181 q 726 -236 681 -236 q 775 -227 753 -236 q 814 -208 797 -218 l 824 -224 q 748 -285 793 -258 q 649 -311 703 -311 z "},"ů":{"ha":788,"x_min":26,"x_max":760,"o":"m 279 -21 q 180 0 225 -21 q 109 67 135 21 q 85 190 83 114 l 89 547 q 78 593 89 579 q 43 613 67 607 l 26 618 l 26 632 l 275 681 l 289 667 l 282 469 l 282 135 q 308 69 282 90 q 372 49 333 49 q 442 60 411 49 q 503 93 472 71 l 508 546 q 499 591 508 578 q 463 610 489 604 l 449 614 l 449 628 l 692 681 l 706 667 l 701 469 l 701 93 q 710 46 701 63 q 746 18 718 29 l 760 14 l 760 0 l 517 -14 l 504 68 q 405 5 458 31 q 279 -21 351 -21 m 392 767 q 277 808 325 767 q 229 922 229 850 q 277 1035 229 993 q 392 1076 325 1076 q 506 1036 458 1076 q 554 922 554 996 q 506 808 554 850 q 392 767 458 767 m 392 800 q 453 828 432 800 q 474 922 474 857 q 453 1016 474 988 q 392 1044 432 1044 q 331 1016 353 1044 q 310 922 310 988 q 331 828 310 857 q 392 800 353 800 z "},"v":{"ha":736,"x_min":7,"x_max":729,"o":"m 339 -4 l 93 586 q 26 649 74 633 l 7 654 l 7 668 l 367 668 l 367 654 l 342 649 q 308 576 288 635 l 454 189 l 590 574 q 596 619 601 601 q 563 646 590 638 l 528 654 l 528 668 l 729 668 l 729 654 l 689 644 q 648 624 663 638 q 624 582 633 610 l 419 -4 l 339 -4 z "},"w":{"ha":1085,"x_min":14,"x_max":1068,"o":"m 313 -4 l 99 583 q 38 646 83 628 l 14 654 l 14 668 l 354 668 l 354 654 l 333 649 q 297 582 279 632 l 426 189 l 542 494 l 515 574 q 495 620 506 604 q 468 643 485 636 l 444 654 l 444 668 l 732 668 l 732 654 l 713 646 q 688 624 692 638 q 693 582 683 610 l 821 196 l 953 579 q 932 646 972 632 l 901 654 l 901 668 l 1068 668 l 1068 654 l 1035 644 q 1001 623 1011 638 q 982 583 990 608 l 782 -4 l 711 -4 l 557 450 l 393 -4 l 313 -4 z "},"x":{"ha":789,"x_min":18,"x_max":772,"o":"m 18 0 l 18 14 l 54 22 q 106 44 86 29 q 144 85 126 58 l 294 300 l 106 600 q 81 632 92 621 q 46 649 69 643 l 26 654 l 26 668 l 379 668 l 379 654 l 356 649 q 336 588 307 633 l 450 411 l 574 582 q 588 622 589 606 q 561 644 588 638 l 526 654 l 526 668 l 729 668 l 729 654 l 696 646 q 649 624 665 638 q 613 583 632 611 l 467 386 l 657 90 q 750 21 692 36 l 772 14 l 772 0 l 389 0 l 389 14 l 413 19 q 442 42 436 25 q 435 82 449 60 l 313 272 l 181 81 q 170 42 164 58 q 199 21 176 26 l 226 14 l 226 0 l 18 0 z "},"y":{"ha":744,"x_min":10,"x_max":726,"o":"m 156 -333 q 67 -306 100 -333 q 35 -235 35 -278 q 63 -172 35 -196 q 125 -149 90 -149 q 183 -163 160 -149 q 225 -206 207 -178 l 235 -217 q 296 -215 265 -258 q 324 -160 308 -194 q 361 -69 340 -126 l 92 575 q 71 617 82 601 q 35 644 60 633 l 10 654 l 10 668 l 356 668 l 356 656 l 328 644 q 297 613 297 635 q 307 560 296 592 l 451 185 l 589 564 q 597 617 600 596 q 563 647 594 639 l 533 654 l 533 668 l 726 668 l 726 654 l 696 644 q 651 617 664 635 q 628 567 639 599 l 404 -43 q 296 -261 350 -189 q 156 -333 242 -333 z "},"ý":{"ha":744,"x_min":10,"x_max":726,"o":"m 156 -333 q 67 -306 100 -333 q 35 -235 35 -278 q 63 -172 35 -196 q 125 -149 90 -149 q 183 -163 160 -149 q 225 -206 207 -178 l 235 -217 q 296 -215 265 -258 q 324 -160 308 -194 q 361 -69 340 -126 l 92 575 q 71 617 82 601 q 35 644 60 633 l 10 654 l 10 668 l 356 668 l 356 656 l 328 644 q 297 613 297 635 q 307 560 296 592 l 451 185 l 589 564 q 597 617 600 596 q 563 647 594 639 l 533 654 l 533 668 l 726 668 l 726 654 l 696 644 q 651 617 664 635 q 628 567 639 599 l 404 -43 q 296 -261 350 -189 q 156 -333 242 -333 m 333 796 q 378 877 353 832 q 438 988 403 922 q 483 1052 461 1032 q 535 1072 506 1072 q 581 1055 561 1072 q 600 1013 600 1038 q 582 963 600 986 q 521 910 564 940 q 421 837 461 868 q 349 782 381 806 l 333 796 z "},"ÿ":{"ha":744,"x_min":10,"x_max":726,"o":"m 156 -333 q 67 -306 100 -333 q 35 -235 35 -278 q 63 -172 35 -196 q 125 -149 90 -149 q 183 -163 160 -149 q 225 -206 207 -178 l 235 -217 q 296 -215 265 -258 q 324 -160 308 -194 q 361 -69 340 -126 l 92 575 q 71 617 82 601 q 35 644 60 633 l 10 654 l 10 668 l 356 668 l 356 656 l 328 644 q 297 613 297 635 q 307 560 296 592 l 451 185 l 589 564 q 597 617 600 596 q 563 647 594 639 l 533 654 l 533 668 l 726 668 l 726 654 l 696 644 q 651 617 664 635 q 628 567 639 599 l 404 -43 q 296 -261 350 -189 q 156 -333 242 -333 m 575 806 q 505 831 536 806 q 474 901 474 857 q 505 972 474 946 q 575 997 536 997 q 647 972 617 997 q 676 901 676 946 q 647 831 676 857 q 575 806 617 806 m 253 806 q 182 831 213 806 q 151 901 151 857 q 182 972 151 946 q 253 997 213 997 q 324 972 293 997 q 354 901 354 946 q 324 831 354 857 q 253 806 293 806 z "},"z":{"ha":646,"x_min":32,"x_max":621,"o":"m 32 0 l 32 22 l 411 640 l 201 640 q 144 621 165 640 q 106 569 124 601 l 56 476 l 42 476 l 51 668 l 607 668 l 607 649 l 236 28 l 454 28 q 519 49 499 28 q 558 106 540 69 l 607 208 l 621 208 l 608 0 l 32 0 z "},"ź":{"ha":646,"x_min":32,"x_max":621,"o":"m 32 0 l 32 22 l 411 640 l 201 640 q 144 621 165 640 q 106 569 124 601 l 56 476 l 42 476 l 51 668 l 607 668 l 607 649 l 236 28 l 454 28 q 519 49 499 28 q 558 106 540 69 l 607 208 l 621 208 l 608 0 l 32 0 m 263 796 q 307 877 282 832 q 367 988 332 922 q 413 1052 390 1032 q 464 1072 435 1072 q 510 1055 490 1072 q 529 1013 529 1038 q 511 963 529 986 q 450 910 493 940 q 350 837 390 868 q 278 782 310 806 l 263 796 z "},"ž":{"ha":646,"x_min":32,"x_max":621,"o":"m 32 0 l 32 22 l 411 640 l 201 640 q 144 621 165 640 q 106 569 124 601 l 56 476 l 42 476 l 51 668 l 607 668 l 607 649 l 236 28 l 454 28 q 519 49 499 28 q 558 106 540 69 l 607 208 l 621 208 l 608 0 l 32 0 m 326 788 l 139 1035 l 157 1050 l 343 911 l 529 1050 l 547 1035 l 360 788 l 326 788 z "},"ż":{"ha":646,"x_min":32,"x_max":621,"o":"m 32 0 l 32 22 l 411 640 l 201 640 q 144 621 165 640 q 106 569 124 601 l 56 476 l 42 476 l 51 668 l 607 668 l 607 649 l 236 28 l 454 28 q 519 49 499 28 q 558 106 540 69 l 607 208 l 621 208 l 608 0 l 32 0 m 343 797 q 263 827 296 797 q 231 903 231 857 q 263 978 231 949 q 343 1008 296 1008 q 423 978 390 1008 q 456 903 456 949 q 423 827 456 857 q 343 797 390 797 z "},"ª":{"ha":492,"x_min":33,"x_max":490,"o":"m 413 658 q 436 625 413 625 q 451 629 443 625 q 468 644 458 633 l 490 628 q 450 579 474 593 q 390 565 426 565 q 292 635 310 565 q 229 582 257 601 q 156 563 201 563 q 68 593 103 563 q 33 679 33 624 q 67 759 33 724 q 206 825 101 794 q 288 847 239 835 l 288 876 q 271 960 288 938 q 208 982 254 982 q 176 979 192 982 l 168 932 q 147 877 165 894 q 104 860 128 860 q 47 904 56 860 q 107 992 54 958 q 253 1026 160 1026 q 375 988 338 1026 q 413 860 413 950 l 413 658 m 154 699 q 173 648 154 664 q 215 632 192 632 q 247 640 232 632 q 288 667 261 649 l 288 810 q 256 799 271 804 q 231 790 242 794 q 154 699 154 760 z "},"º":{"ha":526,"x_min":31,"x_max":496,"o":"m 264 1026 q 379 999 326 1026 q 464 919 432 971 q 496 796 496 868 q 430 625 496 688 q 264 563 364 563 q 97 626 163 563 q 31 796 31 689 q 63 919 31 868 q 148 999 94 971 q 264 1026 201 1026 m 264 979 q 189 934 214 979 q 164 794 164 889 q 189 654 164 699 q 264 610 214 610 q 338 654 313 610 q 363 794 363 699 q 338 934 363 889 q 264 979 313 979 z "},"¹":{"ha":336,"x_min":19,"x_max":306,"o":"m 19 576 l 19 585 l 83 607 l 83 1049 l 21 1042 l 21 1053 q 86 1078 57 1067 q 149 1103 115 1090 q 229 1135 182 1117 l 242 1126 l 238 1001 l 238 607 l 306 585 l 306 576 l 19 576 z "},"²":{"ha":479,"x_min":47,"x_max":443,"o":"m 67 972 l 74 1104 q 140 1128 101 1119 q 229 1138 178 1138 q 387 1094 339 1138 q 435 986 435 1050 q 371 866 435 922 q 196 746 307 810 q 155 719 182 736 q 113 690 128 703 l 443 690 l 443 576 l 47 576 l 47 658 q 106 715 81 690 q 160 769 131 740 q 253 881 224 835 q 283 986 283 926 q 265 1080 283 1043 q 197 1117 247 1117 q 162 1109 179 1117 q 144 1101 144 1101 l 75 972 l 67 972 z "},"³":{"ha":478,"x_min":54,"x_max":451,"o":"m 231 563 q 127 576 163 563 q 54 603 92 589 l 64 726 l 72 726 l 149 596 q 167 588 149 596 q 211 581 185 581 q 275 613 256 581 q 294 726 294 646 q 276 826 294 800 q 215 851 257 851 l 168 851 l 168 869 l 211 869 q 268 892 250 869 q 286 992 286 915 q 269 1089 286 1061 q 222 1117 251 1117 q 181 1109 197 1117 q 164 1101 164 1101 l 94 976 l 86 976 l 93 1113 q 158 1131 124 1124 q 238 1138 192 1138 q 385 1097 336 1138 q 435 997 435 1057 q 396 919 435 958 q 271 865 357 881 q 408 819 365 860 q 451 719 451 778 q 393 607 451 651 q 231 563 335 563 z "},"⁴":{"ha":479,"x_min":21,"x_max":454,"o":"m 244 576 l 244 699 l 21 699 l 21 760 l 272 1131 l 376 1131 l 376 778 l 454 778 l 454 699 l 376 699 l 376 576 l 244 576 m 64 778 l 244 778 l 244 1040 l 64 778 z "},"⁄":{"ha":194,"x_min":-229,"x_max":426,"o":"m -201 -29 l -229 -10 l 397 908 l 426 889 l -201 -29 z "},"½":{"ha":1096,"x_min":19,"x_max":1060,"o":"m 204 -29 l 176 -10 l 803 908 l 832 889 l 204 -29 m 19 350 l 19 358 l 83 381 l 83 822 l 21 815 l 21 826 q 86 852 57 840 q 149 877 115 864 q 229 908 182 890 l 242 900 l 238 775 l 238 381 l 306 358 l 306 350 l 19 350 m 683 396 l 690 528 q 756 552 718 543 q 846 561 794 561 q 1003 517 956 561 q 1051 410 1051 474 q 988 290 1051 346 q 813 169 924 233 q 772 143 799 160 q 729 114 744 126 l 1060 114 l 1060 0 l 664 0 l 664 82 q 722 139 697 114 q 776 193 747 164 q 870 304 840 258 q 900 410 900 350 q 882 503 900 467 q 814 540 864 540 q 778 533 796 540 q 761 525 761 525 l 692 396 l 683 396 z "},"¼":{"ha":969,"x_min":19,"x_max":944,"o":"m 204 -29 l 176 -10 l 803 908 l 832 889 l 204 -29 m 19 344 l 19 353 l 83 375 l 83 817 l 21 810 l 21 821 q 86 847 57 835 q 149 872 115 858 q 229 903 182 885 l 242 894 l 238 769 l 238 375 l 306 353 l 306 344 l 19 344 m 735 0 l 735 122 l 511 122 l 511 183 l 763 554 l 867 554 l 867 201 l 944 201 l 944 122 l 867 122 l 867 0 l 735 0 m 554 201 l 735 201 l 735 464 l 554 201 z "},"¾":{"ha":1078,"x_min":54,"x_max":1051,"o":"m 231 333 q 127 347 163 333 q 54 374 92 360 l 64 497 l 72 497 l 149 367 q 167 359 149 367 q 211 351 185 351 q 275 384 256 351 q 294 497 294 417 q 276 597 294 571 q 215 622 257 622 l 168 622 l 168 640 l 211 640 q 268 663 250 640 q 286 763 286 686 q 269 860 286 832 q 222 888 251 888 q 181 880 197 888 q 164 872 164 872 l 94 747 l 86 747 l 93 883 q 158 901 124 894 q 238 908 192 908 q 385 868 336 908 q 435 768 435 828 q 396 690 435 729 q 271 636 357 651 q 408 590 365 631 q 451 490 451 549 q 393 378 451 422 q 231 333 335 333 m 311 -29 l 283 -10 l 910 908 l 939 889 l 311 -29 m 842 0 l 842 122 l 618 122 l 618 183 l 869 554 l 974 554 l 974 201 l 1051 201 l 1051 122 l 974 122 l 974 0 l 842 0 m 661 201 l 842 201 l 842 464 l 661 201 z "},".":{"ha":417,"x_min":89,"x_max":328,"o":"m 208 -21 q 124 14 158 -21 q 89 97 89 49 q 124 182 89 146 q 208 218 158 218 q 293 182 258 218 q 328 97 328 146 q 293 14 328 49 q 208 -21 258 -21 z "},",":{"ha":417,"x_min":89,"x_max":322,"o":"m 121 -221 l 113 -201 q 184 -131 160 -172 q 218 -29 208 -90 l 172 -10 q 110 41 132 10 q 89 104 89 72 q 121 185 89 153 q 204 218 153 218 q 290 181 257 218 q 322 75 322 144 q 291 -62 322 -1 q 214 -163 260 -122 q 121 -221 168 -204 z "},":":{"ha":417,"x_min":89,"x_max":328,"o":"m 208 458 q 124 493 158 458 q 89 576 89 528 q 124 661 89 625 q 208 697 158 697 q 293 661 258 697 q 328 576 328 625 q 293 493 328 528 q 208 458 258 458 m 208 -21 q 124 14 158 -21 q 89 97 89 49 q 124 182 89 146 q 208 218 158 218 q 293 182 258 218 q 328 97 328 146 q 293 14 328 49 q 208 -21 258 -21 z "},";":{"ha":417,"x_min":89,"x_max":328,"o":"m 208 458 q 124 493 158 458 q 89 576 89 528 q 124 661 89 625 q 208 697 158 697 q 293 661 258 697 q 328 576 328 625 q 293 493 328 528 q 208 458 258 458 m 121 -221 l 113 -201 q 184 -131 160 -172 q 218 -29 208 -90 l 172 -10 q 110 41 132 10 q 89 104 89 72 q 121 185 89 153 q 204 218 153 218 q 290 181 257 218 q 322 75 322 144 q 291 -62 322 -1 q 214 -163 260 -122 q 121 -221 168 -204 z "},"…":{"ha":1250,"x_min":89,"x_max":1161,"o":"m 208 -21 q 124 14 158 -21 q 89 97 89 49 q 124 182 89 146 q 208 218 158 218 q 293 182 258 218 q 328 97 328 146 q 293 14 328 49 q 208 -21 258 -21 m 625 -21 q 540 14 575 -21 q 506 97 506 49 q 540 182 506 146 q 625 218 575 218 q 710 182 675 218 q 744 97 744 146 q 710 14 744 49 q 625 -21 675 -21 m 1042 -21 q 957 14 992 -21 q 922 97 922 49 q 957 182 922 146 q 1042 218 992 218 q 1126 182 1092 218 q 1161 97 1161 146 q 1126 14 1161 49 q 1042 -21 1092 -21 z "},"!":{"ha":463,"x_min":111,"x_max":351,"o":"m 232 933 q 313 901 283 933 q 342 815 342 868 q 319 681 342 772 q 274 481 297 590 l 244 335 l 218 335 l 189 481 q 144 678 167 588 q 122 815 122 769 q 151 901 122 868 q 232 933 181 933 m 232 -21 q 146 14 181 -21 q 111 99 111 49 q 146 183 111 147 q 232 218 181 218 q 317 183 282 218 q 351 99 351 147 q 317 14 351 49 q 232 -21 282 -21 z "},"¡":{"ha":463,"x_min":111,"x_max":351,"o":"m 231 442 q 146 477 181 442 q 111 561 111 513 q 146 646 111 611 q 231 681 181 681 q 317 646 282 681 q 351 561 351 611 q 317 477 351 513 q 231 442 282 442 m 231 -274 q 150 -240 179 -274 q 121 -156 121 -207 q 143 -21 121 -111 q 189 179 165 69 l 218 325 l 244 325 l 274 179 q 318 -19 296 72 q 340 -156 340 -110 q 312 -240 340 -207 q 231 -274 283 -274 z "},"?":{"ha":703,"x_min":79,"x_max":658,"o":"m 351 313 l 339 549 q 444 622 404 572 q 485 743 485 672 q 454 874 485 826 q 378 922 424 922 q 316 894 338 922 q 282 819 294 867 l 264 753 q 222 685 251 706 q 159 669 192 665 q 103 699 126 674 q 79 769 79 725 q 120 865 79 825 q 225 928 161 906 q 358 950 289 950 q 578 890 499 950 q 658 711 658 831 q 618 572 658 629 q 515 480 578 515 q 383 425 451 444 l 376 313 l 351 313 m 353 -21 q 267 14 303 -21 q 232 99 232 49 q 267 183 232 147 q 353 218 303 218 q 438 183 404 218 q 472 99 472 147 q 438 14 472 49 q 353 -21 404 -21 z "},"¿":{"ha":703,"x_min":44,"x_max":624,"o":"m 350 467 q 265 502 299 467 q 231 586 231 538 q 265 671 231 636 q 350 706 299 706 q 435 671 400 706 q 471 586 471 636 q 435 502 471 538 q 350 467 400 467 m 344 -265 q 124 -205 204 -265 q 44 -26 44 -144 q 85 113 44 56 q 188 206 125 169 q 319 260 251 242 l 326 372 l 351 372 l 364 136 q 258 63 299 114 q 218 -58 218 13 q 249 -190 218 -142 q 325 -237 279 -237 q 387 -210 365 -237 q 421 -135 408 -182 l 439 -68 q 481 -1 451 -21 q 544 15 511 19 q 600 -15 576 11 q 624 -85 624 -40 q 583 -180 624 -139 q 478 -243 542 -221 q 344 -265 414 -265 z "},"·":{"ha":417,"x_min":89,"x_max":328,"o":"m 208 346 q 124 381 158 346 q 89 464 89 415 q 124 549 89 513 q 208 585 158 585 q 293 549 258 585 q 328 464 328 513 q 293 381 328 415 q 208 346 258 346 z "},"•":{"ha":450,"x_min":49,"x_max":401,"o":"m 225 272 q 101 321 153 272 q 49 450 49 369 q 101 581 49 532 q 225 629 153 629 q 349 581 297 629 q 401 450 401 532 q 349 321 401 369 q 225 272 297 272 z "},"*":{"ha":601,"x_min":19,"x_max":581,"o":"m 300 1025 q 349 1006 332 1025 q 365 956 365 986 q 358 899 365 933 q 336 822 350 865 l 317 756 l 371 796 q 460 852 424 836 q 518 868 496 868 q 561 851 542 868 q 581 801 581 833 q 533 745 581 758 q 394 728 485 732 l 326 725 l 381 688 q 472 611 446 644 q 499 546 499 578 q 481 504 499 524 q 436 485 463 485 q 372 526 396 485 q 322 642 349 568 l 300 704 l 276 642 q 224 523 250 560 q 163 486 199 486 q 118 506 136 486 q 100 547 100 525 q 131 615 100 581 q 219 688 161 649 l 272 725 l 206 728 q 65 746 110 732 q 19 803 19 760 q 40 851 19 835 q 82 868 60 868 q 229 796 136 868 l 283 756 l 264 822 q 243 902 250 867 q 236 956 236 938 q 253 1006 236 986 q 300 1025 269 1025 z "},"#":{"ha":774,"x_min":28,"x_max":747,"o":"m 153 0 l 190 243 l 28 243 l 28 294 l 197 294 l 244 600 l 74 600 l 74 651 l 251 651 l 289 894 l 335 894 l 297 651 l 544 651 l 582 894 l 628 894 l 590 651 l 747 651 l 747 600 l 583 600 l 536 294 l 701 294 l 701 243 l 529 243 l 492 0 l 446 0 l 483 243 l 236 243 l 199 0 l 153 0 m 243 294 l 490 294 l 538 600 l 290 600 l 243 294 z "},"/":{"ha":475,"x_min":36,"x_max":440,"o":"m 36 -222 l 407 986 l 440 986 l 69 -222 l 36 -222 z "},"\\":{"ha":467,"x_min":32,"x_max":436,"o":"m 403 -222 l 32 986 l 65 986 l 436 -222 l 403 -222 z "},"(":{"ha":511,"x_min":103,"x_max":447,"o":"m 431 -242 q 190 38 276 -122 q 103 386 103 197 q 190 735 103 575 q 431 1014 276 894 l 447 999 q 332 803 374 899 q 273 606 290 707 q 256 386 256 504 q 273 166 256 268 q 332 -32 290 64 q 447 -229 374 -128 l 431 -242 z "},")":{"ha":511,"x_min":64,"x_max":408,"o":"m 81 1014 q 322 735 235 894 q 408 386 408 575 q 322 38 408 197 q 81 -242 235 -122 l 64 -226 q 179 -31 138 -126 q 238 167 221 65 q 256 386 256 268 q 238 606 256 504 q 179 804 221 708 q 64 1001 138 900 l 81 1014 z "},"{":{"ha":469,"x_min":56,"x_max":428,"o":"m 378 -221 q 202 -177 269 -221 q 135 -44 135 -133 q 153 58 135 11 q 191 147 172 104 q 210 233 210 190 q 176 322 210 290 q 56 368 142 354 l 56 404 q 176 451 142 418 q 210 539 210 483 q 191 626 210 583 q 153 715 172 668 q 135 817 135 763 q 202 950 135 907 q 378 993 269 993 l 428 993 l 428 965 l 400 963 q 314 924 342 956 q 286 843 286 893 q 295 748 286 793 q 313 659 304 703 q 322 568 322 615 q 278 444 322 488 q 133 386 235 401 q 278 328 235 371 q 322 204 322 286 q 313 113 322 157 q 295 25 304 69 q 286 -71 286 -19 q 314 -152 286 -121 q 400 -190 342 -183 l 428 -193 l 428 -221 l 378 -221 z "},"}":{"ha":469,"x_min":42,"x_max":414,"o":"m 92 993 q 267 949 200 993 q 335 817 335 906 q 316 715 335 761 q 278 625 297 668 q 260 539 260 582 q 294 450 260 482 q 414 404 328 418 l 414 368 q 294 322 328 354 q 260 233 260 289 q 278 147 260 189 q 316 57 297 104 q 335 -44 335 10 q 267 -178 335 -135 q 92 -221 200 -221 l 42 -221 l 42 -193 l 69 -190 q 156 -152 128 -183 q 183 -71 183 -121 q 174 24 183 -21 q 156 113 165 69 q 147 204 147 157 q 191 328 147 285 q 336 386 235 371 q 191 444 235 401 q 147 568 147 486 q 156 659 147 615 q 174 747 165 703 q 183 843 183 792 q 156 924 183 893 q 69 963 128 956 l 42 965 l 42 993 l 92 993 z "},"[":{"ha":475,"x_min":139,"x_max":449,"o":"m 139 -221 q 142 -3 142 -114 q 143 219 143 108 l 143 553 q 142 773 143 663 q 139 993 142 883 l 449 993 l 449 958 l 297 943 q 295 749 296 854 q 294 553 294 643 l 294 219 q 295 26 294 132 q 297 -171 296 -81 l 449 -186 l 449 -221 l 139 -221 z "},"]":{"ha":475,"x_min":26,"x_max":336,"o":"m 336 993 q 333 775 333 886 q 332 553 332 664 l 332 219 q 333 -1 332 110 q 336 -221 333 -111 l 26 -221 l 26 -186 l 178 -171 q 180 24 179 -82 q 181 219 181 129 l 181 553 q 180 747 181 640 q 178 943 179 853 l 26 958 l 26 993 l 336 993 z "},"-":{"ha":461,"x_min":56,"x_max":406,"o":"m 56 333 l 56 371 l 406 371 l 406 333 l 56 333 z "},"­":{"ha":461,"x_min":56,"x_max":406,"o":"m 56 333 l 56 371 l 406 371 l 406 333 l 56 333 z "},"–":{"ha":739,"x_min":56,"x_max":683,"o":"m 56 333 l 56 371 l 683 371 l 683 333 l 56 333 z "},"—":{"ha":1156,"x_min":56,"x_max":1100,"o":"m 56 333 l 56 371 l 1100 371 l 1100 333 l 56 333 z "},"_":{"ha":739,"x_min":56,"x_max":683,"o":"m 56 -76 l 56 -39 l 683 -39 l 683 -76 l 56 -76 z "},"‚":{"ha":299,"x_min":44,"x_max":261,"o":"z "},"„":{"ha":592,"x_min":44,"x_max":554,"o":"z "},"“":{"ha":592,"x_min":38,"x_max":547,"o":"m 151 636 q 69 673 100 636 q 38 769 38 710 q 83 915 38 847 q 197 1015 129 982 l 206 999 q 154 942 176 976 q 122 856 132 907 l 151 849 q 227 808 200 838 q 254 736 254 778 q 224 664 254 692 q 151 636 194 636 m 444 636 q 362 673 393 636 q 331 769 331 710 q 376 915 331 847 q 490 1015 422 982 l 499 999 q 447 942 469 976 q 415 856 425 907 l 444 849 q 520 808 493 838 q 547 736 547 778 q 517 664 547 692 q 444 636 488 636 z "},"”":{"ha":592,"x_min":44,"x_max":554,"o":"z "},"‘":{"ha":299,"x_min":38,"x_max":254,"o":"m 151 636 q 69 673 100 636 q 38 769 38 710 q 83 915 38 847 q 197 1015 129 982 l 206 999 q 154 942 176 976 q 122 856 132 907 l 151 849 q 227 808 200 838 q 254 736 254 778 q 224 664 254 692 q 151 636 194 636 z "},"’":{"ha":299,"x_min":44,"x_max":261,"o":"m 147 1015 q 230 978 199 1015 q 261 882 261 942 q 215 737 261 804 q 101 636 169 669 l 93 653 q 144 710 122 675 q 176 796 167 744 l 147 803 q 72 844 99 814 q 44 915 44 874 q 74 988 44 960 q 147 1015 104 1015 z "},"«":{"ha":744,"x_min":38,"x_max":669,"o":"m 358 50 l 38 332 l 38 364 l 358 646 l 372 633 l 189 347 l 372 63 l 358 50 m 656 50 l 335 332 l 335 364 l 656 646 l 669 633 l 486 347 l 669 63 l 656 50 z "},"»":{"ha":744,"x_min":75,"x_max":707,"o":"z "},"‹":{"ha":447,"x_min":38,"x_max":372,"o":"m 358 50 l 38 332 l 38 364 l 358 646 l 372 633 l 189 347 l 372 63 l 358 50 z "},"›":{"ha":447,"x_min":75,"x_max":410,"o":"m 89 651 l 410 369 l 410 338 l 89 56 l 75 68 l 258 354 l 75 639 l 89 651 z "},"\"":{"ha":590,"x_min":56,"x_max":535,"o":"m 142 560 l 114 653 q 89 752 103 700 q 65 847 75 804 q 56 911 56 890 q 84 988 56 960 q 154 1015 113 1015 q 225 988 196 1015 q 254 911 254 960 q 244 847 254 890 q 221 752 235 804 q 196 653 207 700 l 168 560 l 142 560 m 422 560 l 394 653 q 369 752 383 700 q 346 847 356 804 q 336 911 336 890 q 365 988 336 960 q 435 1015 393 1015 q 506 988 476 1015 q 535 911 535 960 q 525 847 535 890 q 501 752 515 804 q 476 653 488 700 l 449 560 l 422 560 z "},"'":{"ha":310,"x_min":56,"x_max":254,"o":"m 142 560 l 114 653 q 89 752 103 700 q 65 847 75 804 q 56 911 56 890 q 84 988 56 960 q 154 1015 113 1015 q 225 988 196 1015 q 254 911 254 960 q 244 847 254 890 q 221 752 235 804 q 196 653 207 700 l 168 560 l 142 560 z "}," ":{"ha":303,"x_min":0,"x_max":0,"o":""}," ":{"ha":303,"x_min":0,"x_max":0,"o":""},"\r":{"ha":833,"x_min":0,"x_max":0,"o":""},"¢":{"ha":739,"x_min":50,"x_max":694,"o":"m 403 -62 l 403 74 q 219 119 299 75 q 94 243 139 164 q 50 429 50 322 q 145 686 50 590 q 403 788 240 782 l 403 908 l 438 908 l 438 788 q 578 757 521 785 q 665 688 635 729 q 694 604 694 647 q 672 546 694 565 q 617 526 649 526 q 551 557 575 526 q 518 633 526 588 l 510 679 q 488 729 504 707 q 438 756 471 751 l 438 156 q 576 185 524 157 q 669 261 628 213 l 692 244 q 594 125 658 169 q 438 75 529 81 l 438 -62 l 403 -62 m 242 446 q 281 245 242 321 q 403 158 321 169 l 403 756 q 285 667 329 746 q 242 446 242 588 z "},"¤":{"ha":742,"x_min":36,"x_max":706,"o":"m 128 451 q 141 534 128 496 q 178 603 154 572 l 132 628 q 63 674 89 651 q 36 728 36 697 q 53 769 36 751 q 94 786 71 786 q 148 760 125 786 q 194 690 171 733 l 219 643 q 371 693 285 693 q 521 643 457 693 l 547 690 q 594 760 571 733 q 646 786 617 786 q 688 769 669 786 q 706 728 706 751 q 679 674 706 697 q 610 628 653 651 l 563 603 q 599 535 586 574 q 613 451 613 496 q 599 369 613 407 q 563 301 586 331 l 610 275 q 679 229 653 253 q 706 176 706 206 q 688 135 706 153 q 646 117 671 117 q 594 143 617 117 q 547 213 571 169 l 522 260 q 371 210 457 210 q 221 260 286 210 l 194 213 q 148 143 171 169 q 94 117 125 117 q 54 134 72 117 q 36 176 36 151 q 63 228 36 206 q 132 275 89 251 l 179 300 q 142 369 156 331 q 128 451 128 407 m 229 451 q 272 344 229 385 q 371 303 314 303 q 469 344 428 303 q 511 451 511 385 q 469 558 511 517 q 371 600 428 600 q 272 558 314 600 q 229 451 229 517 z "},"$":{"ha":739,"x_min":69,"x_max":688,"o":"m 363 -21 q 149 26 229 -21 q 69 156 69 72 q 94 220 69 196 q 153 244 118 244 q 213 224 188 244 q 244 149 238 203 l 249 126 q 287 35 258 63 q 364 7 315 7 l 364 350 l 322 365 q 140 472 204 406 q 75 638 75 538 q 152 822 75 749 q 365 901 229 896 l 365 1026 l 399 1026 l 399 901 q 590 847 521 899 q 658 724 658 794 q 637 660 658 682 q 578 638 615 638 q 520 660 546 638 q 483 743 494 682 l 478 775 q 453 840 469 818 q 399 865 436 861 l 399 539 l 424 531 q 628 413 569 483 q 688 247 688 342 q 652 116 688 174 q 551 22 617 58 q 397 -19 486 -14 l 397 -160 l 364 -160 l 364 -21 l 363 -21 m 222 721 q 258 615 222 657 q 365 549 293 574 l 365 867 q 299 847 332 864 q 244 799 265 831 q 222 721 222 768 m 535 176 q 504 274 535 239 q 397 339 474 308 l 397 8 q 498 63 461 18 q 535 176 535 107 z "},"€":{"ha":739,"x_min":14,"x_max":721,"o":"m 14 321 l 14 353 l 94 353 q 90 442 90 396 q 96 535 90 490 l 14 535 l 14 567 l 100 567 q 232 818 131 735 q 472 901 333 901 q 599 881 543 901 q 688 822 656 860 q 721 735 721 785 q 698 674 721 696 q 639 651 675 651 q 582 672 608 651 q 546 751 556 692 l 539 782 q 513 844 532 818 q 460 869 494 869 q 342 794 394 869 q 274 567 290 719 l 565 567 l 565 535 l 269 535 q 267 442 267 490 q 269 353 267 394 l 565 353 l 565 321 l 272 321 q 338 90 288 168 q 464 11 389 11 q 514 33 497 11 q 538 97 531 56 l 544 126 q 578 206 553 182 q 642 229 604 229 q 697 208 675 229 q 719 147 719 186 q 649 26 719 74 q 465 -21 579 -21 q 224 65 322 -21 q 99 321 126 150 l 14 321 z "},"₽":{"ha":715,"x_min":29,"x_max":703,"o":"m 47 0 l 47 14 l 69 22 q 121 93 121 43 l 121 210 l 29 210 l 29 238 l 121 238 l 121 371 l 29 371 l 29 399 l 121 399 l 121 792 q 68 861 121 844 l 47 868 l 47 882 l 360 882 q 622 810 540 882 q 703 619 703 739 q 667 492 703 549 q 551 403 631 436 q 340 371 472 371 l 318 371 l 318 238 l 575 238 l 575 210 l 318 210 l 318 96 q 371 25 318 44 l 406 14 l 406 0 l 47 0 m 318 399 l 336 399 q 481 450 436 399 q 525 625 525 501 q 480 803 525 753 q 347 854 435 854 l 318 854 l 318 399 z "},"£":{"ha":739,"x_min":60,"x_max":679,"o":"m 60 0 l 60 113 q 170 219 136 163 q 204 340 204 276 q 201 378 204 361 q 194 411 199 396 l 76 411 l 76 442 l 183 442 q 155 502 171 472 q 128 568 139 532 q 117 653 117 604 q 158 788 117 732 q 266 872 199 843 q 414 901 333 901 q 603 852 533 901 q 674 724 674 803 q 650 657 674 681 q 590 633 626 633 q 528 658 553 633 q 492 743 503 683 l 488 771 q 460 849 479 825 q 406 874 440 874 q 319 819 350 874 q 288 663 288 764 q 303 547 288 599 q 326 442 318 494 l 567 442 l 567 411 l 331 411 q 329 354 332 382 q 300 269 326 310 q 235 193 274 228 q 154 133 196 158 l 679 133 l 679 0 l 60 0 z "},"¥":{"ha":739,"x_min":3,"x_max":715,"o":"m 197 0 l 197 14 l 222 22 q 275 92 274 39 l 275 226 l 92 226 l 92 257 l 275 257 l 275 392 l 271 401 l 92 401 l 92 433 l 254 433 l 71 804 q 14 861 54 840 l 3 867 l 3 881 l 318 881 l 318 867 l 308 863 q 279 796 258 843 l 436 442 l 604 806 q 582 861 624 846 l 571 867 l 571 881 l 715 881 l 715 867 l 703 861 q 636 799 657 843 l 469 433 l 646 433 l 646 401 l 465 401 l 465 264 q 465 257 465 260 l 646 257 l 646 226 l 465 226 q 465 161 465 196 q 465 92 464 126 q 518 22 467 39 l 543 14 l 543 0 l 197 0 z "},"∙":{"ha":417,"x_min":89,"x_max":328,"o":"m 208 333 q 124 368 158 333 q 89 451 89 403 q 124 536 89 500 q 208 572 158 572 q 293 536 258 572 q 328 451 328 500 q 293 368 328 403 q 208 333 258 333 z "},"∕":{"ha":194,"x_min":-229,"x_max":426,"o":"m -201 -29 l -229 -10 l 397 908 l 426 889 l -201 -29 z "},"+":{"ha":751,"x_min":42,"x_max":711,"o":"m 360 101 l 360 436 l 42 436 l 42 464 l 360 464 l 360 793 l 393 793 l 393 464 l 711 464 l 711 436 l 393 436 l 393 101 l 360 101 z "},"−":{"ha":751,"x_min":42,"x_max":711,"o":"m 42 436 l 42 464 l 711 464 l 711 436 l 42 436 z "},"×":{"ha":751,"x_min":86,"x_max":667,"o":"m 107 160 l 86 181 l 356 450 l 86 719 l 107 740 l 376 471 l 646 740 l 667 719 l 397 450 l 667 181 l 646 160 l 376 429 l 107 160 z "},"÷":{"ha":751,"x_min":42,"x_max":711,"o":"m 376 615 q 304 643 333 615 q 275 713 275 671 q 304 781 275 754 q 376 808 333 808 q 447 781 418 808 q 476 713 476 754 q 447 643 476 671 q 376 615 418 615 m 42 436 l 42 464 l 711 464 l 711 436 l 42 436 m 376 92 q 304 119 333 92 q 275 189 275 147 q 304 258 275 231 q 376 286 333 286 q 447 258 418 286 q 476 189 476 231 q 447 119 476 147 q 376 92 418 92 z "},"=":{"ha":751,"x_min":42,"x_max":711,"o":"m 42 292 l 42 319 l 711 319 l 711 292 l 42 292 m 42 581 l 42 608 l 711 608 l 711 581 l 42 581 z "},"≠":{"ha":751,"x_min":42,"x_max":711,"o":"m 175 63 l 146 78 l 267 292 l 42 292 l 42 319 l 282 319 l 429 581 l 42 581 l 42 608 l 444 608 l 575 839 l 604 822 l 483 608 l 711 608 l 711 581 l 468 581 l 321 319 l 711 319 l 711 292 l 304 292 l 175 63 z "},">":{"ha":751,"x_min":97,"x_max":693,"o":"m 693 469 l 693 433 l 114 117 l 97 149 l 649 451 l 97 754 l 114 786 l 693 469 z "},"<":{"ha":751,"x_min":58,"x_max":654,"o":"m 58 433 l 58 469 l 638 786 l 654 754 l 103 451 l 654 149 l 638 117 l 58 433 z "},"≥":{"ha":751,"x_min":42,"x_max":711,"o":"m 103 175 l 89 206 l 649 475 l 89 743 l 103 774 l 693 488 l 693 461 l 103 175 m 42 0 l 42 32 l 711 32 l 711 0 l 42 0 z "},"≤":{"ha":751,"x_min":42,"x_max":711,"o":"m 649 175 l 58 461 l 58 488 l 649 774 l 663 743 l 104 475 l 663 206 l 649 175 m 42 0 l 42 28 l 711 28 l 711 0 l 42 0 z "},"±":{"ha":751,"x_min":42,"x_max":711,"o":"m 360 161 l 360 460 l 42 460 l 42 488 l 360 488 l 360 781 l 393 781 l 393 488 l 711 488 l 711 460 l 393 460 l 393 161 l 360 161 m 42 0 l 42 28 l 711 28 l 711 0 l 42 0 z "},"≈":{"ha":751,"x_min":89,"x_max":663,"o":"m 506 168 q 424 185 464 168 q 344 246 385 203 q 276 313 301 294 q 218 332 250 332 q 153 301 183 332 q 111 197 122 271 l 89 200 q 133 368 92 313 q 243 424 175 424 q 327 406 290 424 q 406 343 364 388 q 476 277 450 296 q 532 258 503 258 q 599 288 568 258 q 640 392 631 317 l 663 389 q 621 229 661 290 q 506 168 581 168 m 506 501 q 424 519 464 501 q 344 579 385 536 q 276 647 301 628 q 218 665 250 665 q 153 635 183 665 q 111 531 122 604 l 89 533 q 133 701 92 646 q 243 757 175 757 q 327 739 290 757 q 406 676 364 721 q 476 610 450 629 q 532 592 503 592 q 599 621 568 592 q 640 725 631 650 l 663 722 q 621 563 661 624 q 506 501 581 501 z "},"~":{"ha":751,"x_min":89,"x_max":663,"o":"m 506 351 q 424 369 464 351 q 344 429 385 386 q 276 497 301 478 q 218 515 250 515 q 153 485 183 515 q 111 381 122 454 l 89 383 q 133 551 92 496 q 243 607 175 607 q 327 589 290 607 q 406 526 364 571 q 476 460 450 479 q 532 442 503 442 q 599 471 568 442 q 640 575 631 500 l 663 572 q 621 413 661 474 q 506 351 581 351 z "},"¬":{"ha":751,"x_min":38,"x_max":663,"o":"m 38 496 l 38 524 l 663 524 l 663 206 l 635 206 l 635 496 l 38 496 z "},"^":{"ha":751,"x_min":97,"x_max":656,"o":"m 131 296 l 97 318 l 350 693 l 403 693 l 656 318 l 621 296 l 376 557 l 131 296 z "},"µ":{"ha":811,"x_min":88,"x_max":801,"o":"m 88 -246 l 125 150 l 94 653 l 275 689 l 294 674 q 284 447 289 539 q 276 288 279 356 q 274 160 274 221 q 327 132 297 139 q 389 125 357 125 q 460 138 426 125 q 519 192 493 151 l 506 653 l 685 689 l 706 674 q 689 441 696 531 q 679 296 682 351 q 676 197 676 240 q 692 110 678 131 q 742 89 707 89 q 792 103 769 89 l 801 82 q 743 8 779 36 q 656 -21 707 -21 q 559 26 592 -21 q 522 149 526 72 q 365 -21 471 -21 q 301 8 332 -21 q 249 99 269 38 l 286 -229 l 111 -268 l 88 -246 z "},"%":{"ha":1210,"x_min":79,"x_max":1131,"o":"m 314 -29 l 286 -10 l 913 908 l 942 889 l 314 -29 m 288 901 q 390 872 342 901 q 467 778 438 842 q 496 615 496 715 q 467 455 496 518 q 390 362 438 392 q 288 332 342 332 q 185 362 233 332 q 108 455 138 392 q 79 615 79 518 q 108 778 79 715 q 185 872 138 842 q 288 901 233 901 m 210 615 q 220 454 210 510 q 249 378 231 399 q 288 357 267 357 q 327 378 310 357 q 355 455 344 399 q 365 615 365 511 q 355 776 365 721 q 327 853 344 832 q 288 875 310 875 q 249 854 267 875 q 220 777 231 833 q 210 615 210 721 m 922 557 q 1024 527 976 557 q 1101 434 1072 497 q 1131 271 1131 371 q 1101 110 1131 174 q 1024 17 1072 47 q 922 -12 976 -12 q 820 17 868 -12 q 743 110 772 47 q 714 271 714 174 q 743 434 714 371 q 820 527 772 497 q 922 557 868 557 m 844 271 q 855 110 844 165 q 883 33 865 54 q 922 13 901 13 q 962 33 944 13 q 990 110 979 54 q 1000 271 1000 167 q 990 432 1000 376 q 962 509 979 488 q 922 531 944 531 q 883 510 901 531 q 855 433 865 489 q 844 271 844 376 z "},"‰":{"ha":1688,"x_min":79,"x_max":1622,"o":"m 314 -29 l 286 -10 l 913 908 l 942 889 l 314 -29 m 288 901 q 390 872 342 901 q 467 778 438 842 q 496 615 496 715 q 467 455 496 518 q 390 362 438 392 q 288 332 342 332 q 185 362 233 332 q 108 455 138 392 q 79 615 79 518 q 108 778 79 715 q 185 872 138 842 q 288 901 233 901 m 210 615 q 220 454 210 510 q 249 378 231 399 q 288 357 267 357 q 327 378 310 357 q 355 455 344 399 q 365 615 365 511 q 355 776 365 721 q 327 853 344 832 q 288 875 310 875 q 249 854 267 875 q 220 777 231 833 q 210 615 210 721 m 922 557 q 1024 527 976 557 q 1101 434 1072 497 q 1131 271 1131 371 q 1101 110 1131 174 q 1024 17 1072 47 q 922 -12 976 -12 q 820 17 868 -12 q 743 110 772 47 q 714 271 714 174 q 743 434 714 371 q 820 527 772 497 q 922 557 868 557 m 844 271 q 855 110 844 165 q 883 33 865 54 q 922 13 901 13 q 962 33 944 13 q 990 110 979 54 q 1000 271 1000 167 q 990 432 1000 376 q 962 509 979 488 q 922 531 944 531 q 883 510 901 531 q 855 433 865 489 q 844 271 844 376 m 1414 557 q 1516 527 1468 557 q 1593 434 1564 497 q 1622 271 1622 371 q 1593 110 1622 174 q 1516 17 1564 47 q 1414 -12 1468 -12 q 1312 17 1360 -12 q 1235 110 1264 47 q 1206 271 1206 174 q 1235 434 1206 371 q 1312 527 1264 497 q 1414 557 1360 557 m 1336 271 q 1347 110 1336 165 q 1375 33 1357 54 q 1414 13 1393 13 q 1453 33 1436 13 q 1481 110 1471 54 q 1492 271 1492 167 q 1481 432 1492 376 q 1453 509 1471 488 q 1414 531 1436 531 q 1375 510 1393 531 q 1347 433 1357 489 q 1336 271 1336 376 z "},"@":{"ha":1218,"x_min":63,"x_max":1158,"o":"m 553 -212 q 294 -151 404 -212 q 123 19 183 -90 q 63 274 63 128 q 106 513 63 399 q 233 717 150 628 q 431 859 315 807 q 690 911 547 911 q 946 851 842 911 q 1104 690 1050 792 q 1158 463 1158 589 q 1131 297 1158 371 q 1057 169 1103 222 q 954 86 1011 115 q 839 57 897 57 q 726 97 765 57 q 681 190 688 138 q 588 90 639 122 q 485 57 538 57 q 373 106 421 57 q 325 254 325 154 q 355 401 325 328 q 433 534 385 474 q 541 631 482 594 q 658 668 600 668 q 769 629 722 668 l 858 660 l 893 636 l 810 174 q 817 110 803 133 q 858 88 832 88 q 954 135 907 88 q 1033 269 1001 183 q 1065 467 1065 354 q 963 772 1065 663 q 686 881 861 881 q 471 832 567 881 q 306 700 375 783 q 201 511 238 617 q 165 292 165 406 q 221 38 165 140 q 374 -119 276 -65 q 597 -172 472 -172 q 708 -161 654 -172 q 814 -128 763 -150 l 822 -153 q 694 -197 763 -181 q 553 -212 625 -212 m 564 156 q 613 167 588 156 q 665 210 638 179 l 735 592 q 701 617 721 610 q 663 624 682 624 q 581 581 624 624 q 509 464 539 538 q 479 299 479 390 q 504 191 479 226 q 564 156 529 156 z "},"&":{"ha":1001,"x_min":33,"x_max":949,"o":"m 321 -21 q 165 13 229 -21 q 67 103 100 47 q 33 226 33 158 q 250 485 33 394 q 181 592 211 538 q 151 718 151 646 q 222 876 151 817 q 406 935 292 935 q 578 885 517 935 q 639 756 639 836 q 583 636 639 688 q 425 542 528 585 q 480 480 451 513 q 539 415 508 447 q 612 336 576 374 q 683 258 647 299 q 746 369 717 304 q 792 507 775 435 q 751 575 803 560 l 742 579 l 742 593 l 899 593 l 899 579 l 886 575 q 826 511 840 560 q 775 364 806 433 q 704 238 744 294 l 853 81 q 889 49 871 61 q 929 24 907 36 l 949 14 l 949 0 l 668 0 l 575 100 q 515 43 549 71 q 435 -3 482 15 q 321 -21 388 -21 m 408 560 q 487 658 463 608 q 511 767 511 707 q 483 855 511 821 q 407 889 456 889 q 331 856 361 889 q 300 771 300 822 q 312 704 300 739 q 354 625 324 669 q 376 599 363 614 q 408 560 390 583 m 401 72 q 489 87 450 72 q 556 124 528 101 q 486 202 522 161 q 418 281 450 243 q 342 372 379 326 q 269 461 306 418 q 217 383 233 428 q 200 290 200 339 q 256 134 200 196 q 401 72 313 72 z "},"¶":{"ha":849,"x_min":32,"x_max":792,"o":"m 536 -165 q 540 48 539 -60 q 540 265 540 156 l 540 889 l 436 889 l 436 172 q 231 217 322 174 q 85 342 139 260 q 32 547 32 425 q 66 711 32 642 q 158 826 100 781 q 290 894 217 872 q 443 917 364 917 l 792 917 l 792 903 l 761 893 q 708 824 710 876 q 707 652 707 743 q 707 486 707 561 l 707 267 q 708 50 707 158 q 711 -165 708 -58 l 536 -165 z "},"§":{"ha":725,"x_min":60,"x_max":667,"o":"m 339 -149 q 151 -108 221 -149 q 82 3 82 -67 q 107 65 82 40 q 167 89 132 89 q 227 67 204 89 q 264 1 250 46 l 279 -43 q 315 -97 290 -74 q 382 -121 339 -121 q 458 -90 429 -121 q 488 -10 488 -60 q 467 63 488 35 q 403 116 446 92 q 293 169 361 140 q 119 269 179 217 q 60 415 60 322 q 90 509 60 465 q 171 582 119 553 q 113 726 113 642 q 143 831 113 782 q 235 910 174 879 q 386 940 296 940 q 571 894 503 940 q 639 779 639 849 q 617 724 639 744 q 563 703 596 703 q 503 724 531 703 q 457 804 476 744 l 443 843 q 415 893 433 872 q 358 914 397 914 q 278 883 310 914 q 247 804 247 853 q 292 699 247 739 q 415 628 336 660 q 609 524 551 578 q 667 392 667 471 q 636 286 667 329 q 556 214 606 243 q 599 151 585 186 q 614 71 614 115 q 582 -37 614 14 q 489 -118 550 -87 q 339 -149 428 -149 m 363 321 q 460 280 417 301 q 535 233 503 258 q 563 321 563 269 q 513 401 563 365 q 358 475 463 436 q 192 563 249 515 q 167 482 167 526 q 217 386 167 418 q 363 321 268 354 z "},"©":{"ha":1038,"x_min":42,"x_max":997,"o":"m 519 -25 q 336 9 422 -25 q 184 106 250 43 q 80 259 118 169 q 42 460 42 349 q 80 660 42 571 q 184 812 118 749 q 336 908 250 875 q 519 942 422 942 q 703 908 617 942 q 855 812 789 875 q 959 660 921 749 q 997 460 997 571 q 959 259 997 349 q 855 106 921 169 q 703 9 789 43 q 519 -25 617 -25 m 519 8 q 738 64 639 8 q 895 221 836 119 q 954 460 954 322 q 895 698 954 597 q 738 853 836 799 q 519 908 639 908 q 301 853 400 908 q 144 699 203 799 q 85 460 85 599 q 144 221 85 322 q 301 64 203 119 q 519 8 400 8 m 544 176 q 401 209 465 176 q 300 306 338 242 q 263 460 263 369 q 302 616 263 551 q 407 714 342 681 q 549 747 472 747 q 635 738 597 747 q 708 707 672 728 l 711 575 l 697 575 l 667 639 q 621 699 649 678 q 564 719 593 719 q 453 654 500 719 q 406 461 406 589 q 453 269 406 333 q 564 204 500 204 q 628 224 603 204 q 674 286 653 243 l 704 349 l 718 349 l 714 217 q 638 188 681 199 q 544 176 596 176 z "},"®":{"ha":649,"x_min":42,"x_max":607,"o":"m 324 432 q 183 466 247 432 q 81 563 119 500 q 42 713 42 626 q 81 863 42 800 q 184 958 119 925 q 324 992 249 992 q 465 958 400 992 q 568 863 529 925 q 607 713 607 800 q 568 563 607 626 q 465 466 529 500 q 324 432 401 432 m 324 456 q 452 487 394 456 q 544 576 510 518 q 578 713 578 633 q 544 850 578 793 q 452 938 510 907 q 324 968 394 968 q 197 938 254 968 q 104 850 139 907 q 69 713 69 793 q 104 576 69 633 q 197 487 139 518 q 324 456 254 456 m 200 581 l 200 594 l 210 599 q 228 626 228 607 l 228 813 q 211 840 228 832 l 200 844 l 200 857 l 333 857 q 412 838 385 857 q 439 788 439 819 q 393 719 439 738 l 438 622 q 461 597 443 607 l 469 593 l 469 581 l 375 581 l 326 704 l 301 704 l 301 626 q 319 600 301 607 l 329 594 l 329 581 l 200 581 m 301 719 l 314 719 q 356 738 344 719 q 367 781 367 757 q 314 840 367 840 l 301 840 l 301 719 z "},"™":{"ha":1064,"x_min":47,"x_max":1006,"o":"m 464 506 l 464 519 l 490 531 q 522 579 522 543 l 525 844 q 496 894 525 878 l 482 903 l 482 917 l 632 917 l 742 660 l 849 917 l 1006 917 l 1006 903 l 993 897 q 961 847 961 881 l 961 578 q 990 528 961 544 l 1006 519 l 1006 506 l 790 506 l 790 519 l 807 528 q 836 578 836 544 l 836 821 l 710 506 l 685 506 l 549 821 l 547 579 q 579 531 547 543 l 604 519 l 604 506 l 464 506 m 126 506 l 126 519 l 150 533 q 176 585 176 550 l 176 893 l 147 893 q 97 864 114 893 l 61 796 l 47 796 l 47 917 l 433 917 l 433 796 l 419 796 l 383 864 q 333 893 367 893 l 303 893 l 303 585 q 331 533 303 551 l 353 519 l 353 506 l 126 506 z "},"°":{"ha":456,"x_min":46,"x_max":410,"o":"m 228 572 q 138 594 179 572 q 71 658 96 617 q 46 756 46 699 q 71 854 46 813 q 138 919 96 896 q 228 942 179 942 q 318 919 276 942 q 385 854 360 896 q 410 756 410 813 q 385 658 410 699 q 318 594 360 617 q 228 572 276 572 m 228 606 q 328 647 288 606 q 368 756 368 688 q 328 867 368 825 q 228 908 288 908 q 128 867 168 908 q 88 756 88 825 q 128 647 88 688 q 228 606 168 606 z "},"|":{"ha":371,"x_min":168,"x_max":201,"o":"m 168 -347 l 168 1042 l 201 1042 l 201 -347 l 168 -347 z "},"¦":{"ha":371,"x_min":168,"x_max":201,"o":"m 201 444 l 168 444 l 168 1042 l 201 1042 l 201 444 m 168 -347 l 168 278 l 201 278 l 201 -347 l 168 -347 z "},"†":{"ha":732,"x_min":50,"x_max":682,"o":"m 351 -135 q 315 110 332 11 q 287 276 297 210 q 276 388 276 342 q 295 508 276 446 q 354 661 314 569 l 261 618 q 203 594 231 604 q 144 583 175 583 q 74 608 97 583 q 50 674 50 633 q 74 739 50 714 q 144 764 97 764 q 203 754 175 764 q 261 729 231 744 l 353 688 l 313 785 q 287 844 299 814 q 275 907 275 875 q 301 975 275 953 q 365 997 326 997 q 431 975 406 997 q 457 907 457 953 q 446 844 457 875 q 421 785 435 814 l 379 688 l 471 728 q 529 753 501 743 q 588 764 557 764 q 659 739 636 764 q 682 674 682 714 q 659 608 682 633 q 588 582 636 582 q 530 593 557 582 q 471 618 503 604 l 378 661 q 435 509 417 571 q 454 388 454 447 q 444 276 454 342 q 417 110 435 210 q 379 -135 400 11 l 351 -135 z "},"‡":{"ha":732,"x_min":50,"x_max":682,"o":"m 365 -140 q 301 -118 326 -140 q 275 -50 275 -96 q 288 23 275 -17 q 314 92 300 63 l 349 165 l 274 131 q 209 105 243 117 q 144 93 175 93 q 74 119 97 93 q 50 185 50 144 q 74 250 50 225 q 144 275 97 275 q 209 263 175 275 q 274 236 243 251 l 349 200 q 294 332 313 282 q 276 429 276 382 q 294 527 276 478 q 349 657 313 576 l 274 619 q 209 594 243 606 q 144 583 175 583 q 74 608 97 583 q 50 674 50 633 q 74 739 50 714 q 144 764 97 764 q 209 753 175 764 q 274 728 243 743 l 349 690 l 314 767 q 288 835 301 796 q 275 907 275 875 q 301 975 275 953 q 365 997 326 997 q 431 975 406 997 q 457 907 457 953 q 444 835 457 875 q 418 767 432 796 l 383 690 l 458 726 q 523 753 489 742 q 588 764 557 764 q 659 739 636 764 q 682 674 682 714 q 659 608 682 633 q 588 582 636 582 q 524 594 557 582 q 458 619 490 606 l 383 657 q 436 527 418 576 q 454 429 454 478 q 436 332 454 382 q 383 200 418 282 l 458 238 q 523 264 489 253 q 588 275 557 275 q 659 250 636 275 q 682 185 682 225 q 659 119 682 144 q 588 94 636 94 q 523 106 557 94 q 458 132 489 118 l 385 165 l 418 92 q 445 23 433 63 q 457 -50 457 -17 q 431 -118 457 -96 q 365 -140 406 -140 z "},"℮":{"ha":1111,"x_min":64,"x_max":1047,"o":"m 256 150 q 391 49 313 86 q 558 11 469 11 q 735 53 653 11 q 875 167 817 96 l 947 167 q 777 33 879 83 q 556 -17 675 -17 q 365 19 454 -17 q 208 119 275 56 q 102 268 140 183 q 64 450 64 353 q 102 632 64 547 q 208 781 140 717 q 365 881 275 844 q 556 917 454 917 q 747 881 658 917 q 903 781 836 844 q 1009 632 971 717 q 1047 450 1047 547 l 1047 439 l 250 439 q 244 433 244 439 l 244 178 q 248 163 244 169 q 256 150 251 157 m 250 464 l 861 464 q 869 472 869 464 l 869 728 q 856 758 869 744 q 721 854 797 819 q 558 889 644 889 q 392 852 469 889 q 256 753 314 815 q 248 739 251 747 q 244 722 244 731 l 244 472 q 250 464 244 464 z "},"̈":{"ha":0,"x_min":-262,"x_max":263,"o":"m 161 806 q 91 831 122 806 q 60 901 60 857 q 91 972 60 946 q 161 997 122 997 q 233 972 203 997 q 263 901 263 946 q 233 831 263 857 q 161 806 203 806 m -161 806 q -232 831 -201 806 q -262 901 -262 857 q -232 972 -262 946 q -161 997 -201 997 q -90 972 -121 997 q -60 901 -60 946 q -90 831 -60 857 q -161 806 -121 806 z "},"̇":{"ha":0,"x_min":-112,"x_max":113,"o":"m 0 797 q -80 827 -47 797 q -112 903 -112 857 q -80 978 -112 949 q 0 1008 -47 1008 q 80 978 47 1008 q 113 903 113 949 q 80 827 113 857 q 0 797 47 797 z "},"̀":{"ha":0,"x_min":-197,"x_max":71,"o":"m 54 782 q -17 837 24 806 q -117 910 -58 868 q -178 963 -160 940 q -197 1013 -197 986 q -177 1055 -197 1038 q -131 1072 -157 1072 q -80 1052 -103 1072 q -35 988 -57 1032 q 25 877 0 922 q 71 796 50 832 l 54 782 z "},"́":{"ha":0,"x_min":-81,"x_max":186,"o":"m -81 796 q -36 877 -61 832 q 24 988 -11 922 q 69 1052 47 1032 q 121 1072 92 1072 q 167 1055 147 1072 q 186 1013 186 1038 q 168 963 186 986 q 107 910 150 940 q 7 837 47 868 q -65 782 -33 806 l -81 796 z "},"̋":{"ha":0,"x_min":-140,"x_max":267,"o":"m 83 775 l 63 788 l 131 1001 q 166 1067 146 1050 q 208 1083 186 1083 q 249 1068 232 1083 q 267 1026 267 1053 q 256 990 267 1010 q 225 946 244 969 l 83 775 m -119 775 l -140 788 l -74 1001 q -38 1067 -58 1050 q 4 1083 -18 1083 q 46 1068 28 1083 q 64 1026 64 1053 q 52 990 64 1010 q 21 946 40 969 l -119 775 z "},"̂":{"ha":0,"x_min":-207,"x_max":207,"o":"m -189 757 l -207 774 l -10 1043 l 10 1043 l 207 774 l 189 757 l 0 904 l -189 757 z "},"̌":{"ha":0,"x_min":-204,"x_max":204,"o":"m -17 788 l -204 1035 l -186 1050 l 0 911 l 186 1050 l 204 1035 l 17 788 l -17 788 z "},"̆":{"ha":0,"x_min":-208,"x_max":208,"o":"m 0 789 q -115 822 -71 789 q -182 906 -160 856 q -208 1006 -204 957 l -182 1015 q -115 933 -158 967 q 0 899 -71 899 q 115 933 71 899 q 182 1015 158 967 l 208 1006 q 182 906 204 957 q 116 822 160 856 q 0 789 72 789 z "},"̊":{"ha":0,"x_min":-162,"x_max":163,"o":"m 0 767 q -115 808 -67 767 q -162 922 -162 850 q -115 1035 -162 993 q 0 1076 -67 1076 q 115 1036 67 1076 q 163 922 163 996 q 115 808 163 850 q 0 767 67 767 m 0 800 q 61 828 40 800 q 82 922 82 857 q 61 1016 82 988 q 0 1044 40 1044 q -60 1016 -39 1044 q -82 922 -82 988 q -60 828 -82 857 q 0 800 -39 800 z "},"̃":{"ha":0,"x_min":-232,"x_max":232,"o":"m -232 813 q -184 953 -221 903 q -92 1003 -147 1003 q -33 991 -56 1003 q 11 961 -10 979 q 55 922 33 940 q 103 903 76 903 q 167 928 140 903 q 211 996 194 953 l 232 989 q 185 849 221 900 q 93 797 149 797 q 33 809 58 797 q -11 839 8 821 q -54 877 -32 858 q -104 896 -76 896 q -168 872 -142 896 q -211 806 -194 847 l -232 813 z "},"̄":{"ha":0,"x_min":-212,"x_max":213,"o":"m -212 857 l -212 888 l 213 888 l 213 857 l -212 857 z "},"̦":{"ha":0,"x_min":-108,"x_max":99,"o":"m -104 -368 l -108 -353 q -31 -312 -60 -333 q 11 -256 -3 -290 q -65 -227 -37 -253 q -93 -162 -93 -201 q -65 -99 -93 -124 q 1 -74 -37 -74 q 74 -100 49 -74 q 99 -172 99 -126 q 71 -258 99 -219 q -3 -324 43 -296 q -104 -368 -49 -351 z "},"̧":{"ha":0,"x_min":-118,"x_max":165,"o":"m -36 -122 l -18 -1 l 11 -1 l 3 -69 q 125 -111 85 -79 q 165 -190 165 -143 q 121 -276 165 -242 q -14 -311 76 -311 q -72 -306 -47 -311 q -118 -294 -96 -301 l -112 -271 q -39 -283 -72 -283 q 22 -260 0 -283 q 43 -197 43 -237 q 22 -146 43 -164 q -36 -122 0 -128 z "},"̨":{"ha":0,"x_min":-167,"x_max":151,"o":"m -24 -311 q -127 -278 -87 -311 q -167 -187 -167 -244 q -138 -103 -167 -143 q -66 -32 -110 -62 q 21 14 -22 -1 l 44 14 q -24 -52 1 -12 q -50 -136 -50 -92 q -21 -208 -50 -181 q 54 -236 8 -236 q 103 -227 81 -236 q 142 -208 125 -218 l 151 -224 q 76 -285 121 -258 q -24 -311 31 -311 z "},"´":{"ha":556,"x_min":179,"x_max":446,"o":"m 179 796 q 224 877 199 832 q 283 988 249 922 q 329 1052 307 1032 q 381 1072 351 1072 q 426 1055 407 1072 q 446 1013 446 1038 q 428 963 446 986 q 367 910 410 940 q 267 837 307 868 q 194 782 226 806 l 179 796 z "},"˘":{"ha":556,"x_min":69,"x_max":486,"o":"m 278 789 q 163 822 207 789 q 96 906 118 856 q 69 1006 74 957 l 96 1015 q 163 933 119 967 q 278 899 207 899 q 392 933 349 899 q 460 1015 436 967 l 486 1006 q 460 906 482 957 q 394 822 438 856 q 278 789 350 789 z "},"ˇ":{"ha":556,"x_min":74,"x_max":482,"o":"m 261 788 l 74 1035 l 92 1050 l 278 911 l 464 1050 l 482 1035 l 294 788 l 261 788 z "},"¸":{"ha":556,"x_min":121,"x_max":404,"o":"m 203 -122 l 221 -1 l 250 -1 l 242 -69 q 364 -111 324 -79 q 404 -190 404 -143 q 360 -276 404 -242 q 225 -311 315 -311 q 167 -306 192 -311 q 121 -294 143 -301 l 126 -271 q 200 -283 167 -283 q 260 -260 239 -283 q 282 -197 282 -237 q 260 -146 282 -164 q 203 -122 239 -128 z "},"ˆ":{"ha":556,"x_min":71,"x_max":485,"o":"m 89 757 l 71 774 l 268 1043 l 288 1043 l 485 774 l 467 757 l 278 904 l 89 757 z "},"¨":{"ha":556,"x_min":15,"x_max":540,"o":"m 439 806 q 369 831 400 806 q 338 901 338 857 q 369 972 338 946 q 439 997 400 997 q 510 972 481 997 q 540 901 540 946 q 510 831 540 857 q 439 806 481 806 m 117 806 q 46 831 76 806 q 15 901 15 857 q 46 972 15 946 q 117 997 76 997 q 188 972 157 997 q 218 901 218 946 q 188 831 218 857 q 117 806 157 806 z "},"˙":{"ha":556,"x_min":165,"x_max":390,"o":"m 278 797 q 198 827 231 797 q 165 903 165 857 q 198 978 165 949 q 278 1008 231 1008 q 358 978 325 1008 q 390 903 390 949 q 358 827 390 857 q 278 797 325 797 z "},"`":{"ha":556,"x_min":107,"x_max":375,"o":"m 358 782 q 287 837 328 806 q 188 910 246 868 q 126 963 144 940 q 107 1013 107 986 q 127 1055 107 1038 q 174 1072 147 1072 q 224 1052 201 1072 q 269 988 247 1032 q 329 877 304 922 q 375 796 354 832 l 358 782 z "},"˝":{"ha":556,"x_min":110,"x_max":517,"o":"m 333 775 l 313 788 l 381 1001 q 416 1067 396 1050 q 458 1083 436 1083 q 499 1068 482 1083 q 517 1026 517 1053 q 506 990 517 1010 q 475 946 494 969 l 333 775 m 131 775 l 110 788 l 176 1001 q 212 1067 192 1050 q 254 1083 232 1083 q 296 1068 278 1083 q 314 1026 314 1053 q 302 990 314 1010 q 271 946 290 969 l 131 775 z "},"¯":{"ha":556,"x_min":65,"x_max":490,"o":"m 65 857 l 65 888 l 490 888 l 490 857 l 65 857 z "},"˛":{"ha":556,"x_min":114,"x_max":432,"o":"m 257 -311 q 153 -278 193 -311 q 114 -187 114 -244 q 142 -103 114 -143 q 215 -32 171 -62 q 301 14 258 -1 l 325 14 q 256 -52 282 -12 q 231 -136 231 -92 q 260 -208 231 -181 q 335 -236 289 -236 q 383 -227 361 -236 q 422 -208 406 -218 l 432 -224 q 356 -285 401 -258 q 257 -311 311 -311 z "},"˚":{"ha":556,"x_min":115,"x_max":440,"o":"m 278 767 q 163 808 211 767 q 115 922 115 850 q 163 1035 115 993 q 278 1076 211 1076 q 392 1036 344 1076 q 440 922 440 996 q 392 808 440 850 q 278 767 344 767 m 278 800 q 339 828 318 800 q 360 922 360 857 q 339 1016 360 988 q 278 1044 318 1044 q 217 1016 239 1044 q 196 922 196 988 q 217 828 196 857 q 278 800 239 800 z "},"˜":{"ha":556,"x_min":49,"x_max":513,"o":"m 49 813 q 97 953 60 903 q 189 1003 133 1003 q 248 991 225 1003 q 292 961 271 979 q 335 922 314 940 q 383 903 357 903 q 448 928 421 903 q 492 996 475 953 l 513 989 q 465 849 501 900 q 374 797 429 797 q 314 809 339 797 q 269 839 289 821 q 226 877 249 858 q 176 896 204 896 q 113 872 139 896 q 69 806 86 847 l 49 813 z "}}}
